<?xml version="1.0"?>

<!-- Created with Inkscape (http://www.inkscape.org/) -->

<svg xmlns:dc="http://purl.org/dc/elements/1.1/" xmlns:cc="http://creativecommons.org/ns#" xmlns:rdf="http://www.w3.org/1999/02/22-rdf-syntax-ns#" xmlns:svg="http://www.w3.org/2000/svg" xmlns="http://www.w3.org/2000/svg" xmlns:sodipodi="http://sodipodi.sourceforge.net/DTD/sodipodi-0.dtd" xmlns:inkscape="http://www.inkscape.org/namespaces/inkscape" id="svg3039" version="1.1" inkscape:version="0.48.5 r10040" width="165" height="185" sodipodi:docname="Kawaii Hulk.svg" viewBox="0 0 165 185">
  <metadata id="metadata3045">
    <rdf:rdf>
      <cc:work rdf:about="">
        <dc:format>image/svg+xml</dc:format>
        <dc:type rdf:resource="http://purl.org/dc/dcmitype/StillImage"></dc:type>
        <dc:title></dc:title>
      </cc:work>
    </rdf:rdf>
  </metadata>
  <defs id="defs3043"></defs>
  <sodipodi:namedview pagecolor="#ffffff" bordercolor="#666666" borderopacity="1" objecttolerance="10" gridtolerance="10" guidetolerance="10" inkscape:pageopacity="0" inkscape:pageshadow="2" inkscape:window-width="1280" inkscape:window-height="712" id="namedview3041" showgrid="false" inkscape:zoom="1.571934" inkscape:cx="93.740155" inkscape:cy="-27.779161" inkscape:window-x="0" inkscape:window-y="0" inkscape:window-maximized="1" inkscape:current-layer="svg3039"></sodipodi:namedview>
  <path style="fill:#000000" d="m 100.90449,181.49183 c -3.870781,-1.11894 -7.628481,-5.82484 -9.378241,-11.7447 -0.70783,-2.39475 -1.7642,-4.4946 -2.34748,-4.66632 -0.58329,-0.17173 -4.96761,-0.57517 -9.742939,-0.89655 -8.37348,-0.56353 -8.70684,-0.50424 -9.36915,1.66632 -3.42661,11.22989 -7.95694,15.28535 -16.9585,15.18091 -10.08667,-0.11703 -14.48995,-4.65175 -14.48995,-14.92251 0,-6.25153 3.28598,-23.13266 9.11182,-46.8104 2.1385,-8.69145 3.88819,-16.06512 3.88819,-16.38593 0,-1.18245 -9.13246,0.7155 -13.0435,2.71076 -2.2204,1.13276 -4.43536,3.10708 -4.92212,4.38737 -2.97559,7.82639 -14.65306,9.61124 -22.49981,3.43898 C 3.7671603,107.64021 1.8339003,93.81247 6.9463703,83.36296 10.20397,76.70468 18.14106,69.12408 23.55237,67.50281 c 2.91407,-0.87308 4.01878,-1.88249 4.98524,-4.55517 0.68367,-1.89068 2.72096,-4.4033 4.53384,-5.59167 3.0263,-1.98379 3.37945,-2.77473 4.3717,-9.79113 1.4204,-10.04394 4.37529,-17.6996 8.62039,-22.33417 3.09688,-3.38101 3.33082,-4.0267 2.2881,-6.31523 -1.01463,-2.22687 -0.86754,-2.78718 1.16334,-4.43169 1.27866,-1.035389 3.83873,-1.882529 5.68904,-1.882529 3.153,0 3.32899,-0.17617 2.80302,-2.8060105 -0.895,-4.475 1.43579,-5.70615 8.22248,-4.34319 5.2067,1.04566 5.86548,0.95411 9.82272,-1.36499 5.489029,-3.21678997 6.762049,-3.13590997 10.569439,0.67148 l 3.15729,3.15729 5.25753,-1.65729 c 2.89164,-0.91151 6.214641,-1.65729 7.384451,-1.65729 2.50732,0 4.30951,2.85488 3.57508,5.6633405 -0.44688,1.70885 0.24373,2.15749 4.93838,3.20811 6.22655,1.393439 9.19415,3.945299 8.20658,7.056889 -0.36164,1.13941 -1.10733,2.07166 -1.65709,2.07166 -0.54976,0 0.63931,2.00003 2.64238,4.4445 4.92882,6.01499 7.49877,13.27241 8.19538,23.14345 0.54106,7.66692 0.78942,8.4003 3.53122,10.42741 1.62208,1.19925 3.58568,3.70369 4.36356,5.56542 0.92289,2.20878 2.79281,4.08821 5.3815,5.40887 8.6566,4.41626 13.93714,12.40121 16.15263,24.42514 1.63897,8.89501 -0.37623,15.76596 -6.15537,20.98706 -3.5542,3.21101 -4.57387,3.59815 -9.47696,3.59815 -4.90822,0 -5.92119,-0.38573 -9.49712,-3.61636 -2.20158,-1.989 -4.00288,-4.20836 -4.00288,-4.93191 0,-1.84557 -4.61571,-4.85628 -10.42814,-6.80202 -6.39508,-2.14078 -6.93192,-2.08842 -6.15484,0.60029 0.91079,3.15139 3.86291,19.49149 8.71718,48.25 0.55702,3.3 1.08381,9.44953 1.17064,13.66562 0.13131,6.37585 -0.1751,8.03354 -1.82113,9.85237 -4.28974,4.74011 -11.30266,6.1548 -19.19746,3.87262 z" id="path3079"></path>
  <path style="fill:#008033" d="M 58.3125 21.96875 C 57.270421 22.082014 55.765795 22.78044 53.78125 24.09375 C 44.53215 30.21451 41.28416 40.04076 41.1875 62.09375 C 41.131 74.97671 41.44457 78.11126 43.375 84.25 C 45.31307 90.41302 46.37979 92.10603 51.1875 96.5 C 56.40952 101.27264 59.73321 102.83875 69.125 104.9375 C 74.05114 106.03832 96.424989 105.49051 101.4375 104.15625 C 118.21957 99.68913 125.01627 87.08968 124.9375 60.59375 C 124.8999 47.95502 123.5908 40.59609 120.1875 33.9375 C 117.8149 29.29548 110.9344 23.40738 108.3125 23.78125 C 106.05748 24.10281 105.93045 24.7662 107.15625 30.34375 C 107.78356 33.19807 107.60888 33.59375 105.78125 33.59375 C 104.6367 33.59375 101.33472 32.20827 98.4375 30.5 L 93.15625 27.375 L 91.65625 29.71875 C 89.08759 33.64706 86.57812 35.74026 84.84375 35.40625 C 83.40699 35.12956 80.295359 31.36874 77.625 26.65625 C 76.94477 25.45582 75.61605 25.76736 69.6875 28.5 C 60.96775 32.5192 59.10625 32.15166 60 26.5625 C 60.525269 23.277625 60.049298 21.779977 58.3125 21.96875 z M 110.46875 39.59375 C 111.92553 39.59375 112.28451 40.11603 111.90625 41.5625 C 111.53246 42.99186 112.2934 44.0648 114.75 45.5625 C 117.03259 46.95411 117.53443 47.59121 116.3125 47.59375 C 115.325 47.59575 113.4125 46.50625 112.0625 45.15625 L 109.625 42.6875 L 109.625 45.28125 C 109.625 46.70812 108.8375 48.48811 107.875 49.21875 C 105.02048 51.38564 104.09208 50.77783 106.4375 48.28125 C 109.04866 45.50179 109.12733 44.8227 106.96875 42.4375 C 104.91189 40.1647 105.93721 38.81674 108.28125 40.71875 C 109.41677 41.64014 109.7469 41.67085 109.25 40.84375 C 108.75092 40.01302 109.16253 39.59375 110.46875 39.59375 z M 112.375 47.71875 C 113.54885 47.662588 114.76825 48.086281 115.65625 49.15625 C 116.79408 50.52726 116.6411 50.63137 114.25 50.03125 C 112.21131 49.51957 111.15365 49.81918 110.09375 51.21875 C 108.94556 52.73492 108.68202 52.81838 108.65625 51.5625 C 108.60969 49.291819 110.41859 47.812353 112.375 47.71875 z M 36.9375 59.71875 C 36.561059 59.796696 35.419789 60.705211 34.1875 61.9375 C 30.53331 65.59169 30.59208 71.58376 34.34375 75.0625 C 35.85063 76.45976 37.45367 77.59375 37.875 77.59375 C 38.29633 77.59375 38.35457 73.65625 38 68.84375 C 37.64544 64.03125 37.19655 59.94583 37.03125 59.75 C 37.010586 59.725521 36.991277 59.707615 36.9375 59.71875 z M 128.5 62.5 C 128.43418 62.508417 128.3891 62.542989 128.34375 62.59375 C 128.09804 62.86875 127.62019 66.87259 127.28125 71.46875 L 126.65625 79.8125 L 128.90625 78.34375 C 130.13105 77.53808 131.75918 75.7911 132.53125 74.4375 C 133.35568 72.99211 133.65775 70.90636 133.28125 69.40625 C 132.62957 66.809797 129.48723 62.373747 128.5 62.5 z M 28.03125 70.59375 C 27.76439 70.59375 25.88859 71.30338 23.84375 72.15625 C 11.66845 77.23441 5.0801303 93.63958 10.625 105.09375 C 14.17635 112.42986 23.13271 114.90324 27.84375 109.84375 C 29.25209 108.33125 31.51922 105.89745 32.875 104.4375 C 34.28558 102.91854 37.84774 101.02647 41.21875 100 C 44.4588 99.01341 47.25949 98.1148 47.4375 98 C 47.61551 97.8852 46.4554 95.97483 44.84375 93.75 C 43.23209 91.52517 41.35059 87.77008 40.6875 85.40625 C 39.6943 81.8657 38.83974 80.81464 35.75 79.5 C 33.20304 78.41631 31.42752 76.73145 30.25 74.25 C 29.29629 72.24021 28.29811 70.59375 28.03125 70.59375 z M 57.3125 70.96875 C 58.313796 70.918923 60.081108 71.142415 61.84375 71.59375 C 69.16086 73.46731 69.38813 73.64435 66.125 75 L 63.125 76.25 L 65.59375 77.59375 C 67.95139 78.85903 67.97561 78.95226 66.09375 79.6875 C 62.60961 81.04873 60.57589 80.66965 58.0625 78.15625 C 55.55512 75.64888 54.84096 72.20828 56.59375 71.125 C 56.728077 71.04198 56.978735 70.985359 57.3125 70.96875 z M 105.90625 72.90625 C 106.70653 72.86352 107.30111 72.912886 107.59375 73.09375 C 109.3497 74.17898 108.7191 75.3488 106 76.03125 C 103.62034 76.6285 103.53943 76.83221 105.09375 77.96875 C 106.49851 78.99594 106.56776 79.39546 105.46875 80.25 C 103.26668 81.96222 101.24813 82.39499 99.09375 81.59375 C 96.3672 80.57971 94.27714 77.92069 94.90625 76.28125 C 95.375184 75.059234 102.43839 73.091415 105.90625 72.90625 z M 136.5625 74.03125 C 135.96993 74.004641 135.625 74.253328 135.625 74.8125 C 135.625 76.67974 130.79907 81.22289 127.5 82.46875 C 125.78558 83.11618 124.69127 84.41869 124.3125 86.3125 C 123.99544 87.89781 122.13118 91.59651 120.15625 94.53125 C 118.18131 97.46599 116.69161 99.95217 116.84375 100.03125 C 116.99589 100.11035 118.925 100.77714 121.125 101.53125 C 127.30273 103.64885 131.25365 106.69296 132.5625 110.3125 C 134.57876 115.88838 140.91392 118.06216 146.59375 115.125 C 155.64439 110.44473 157.16154 94.15832 149.53125 83.625 C 146.28218 79.139797 139.13028 74.146555 136.5625 74.03125 z M 81.15625 85.71875 C 83.886727 85.733629 86.60813 86.352425 89.125 87.5625 C 94.06492 89.93759 95.97114 91.46939 97.46875 94.28125 C 101.57223 101.98583 95.984499 103.78361 74.8125 101.5625 C 68.0605 100.85417 63.625 98.86479 63.625 96.53125 C 63.625 94.67788 69.36849 89.14671 73.0625 87.46875 C 75.66509 86.28656 78.425773 85.703871 81.15625 85.71875 z M 55.65625 103.9375 L 55.0625 107.5 C 54.73281 109.47431 53.96782 112.66875 53.375 114.59375 C 52.78217 116.51875 51.31263 122.70625 50.125 128.34375 L 47.96875 138.59375 L 51.75 138.59375 C 54.18095 138.59375 55.85546 139.17871 56.4375 140.21875 C 57.16089 141.51138 57.73934 141.61086 59.40625 140.71875 C 62.33491 139.15138 67.15506 139.32898 68.59375 141.0625 C 69.65855 142.34551 70.09632 142.34005 72.09375 141.03125 C 73.91583 139.83738 76.279491 139.67825 83.96875 140.21875 C 92.7581 140.83658 93.71744 141.11496 95.21875 143.40625 L 96.875 145.90625 L 98.46875 143.25 C 99.97251 140.77169 100.55098 140.59375 107.34375 140.59375 C 111.34136 140.59375 114.625 140.45152 114.625 140.25 C 114.625 140.04849 113.41862 133.86099 111.96875 126.5 C 110.51888 119.13902 109.13787 111.36462 108.875 109.25 C 108.3507 105.03237 109.1236 105.17759 99.625 107.625 C 92.53535 109.45172 68.47251 108.3681 61.375 105.90625 L 55.65625 103.9375 z M 49.875 164.09375 L 48.59375 166.84375 C 47.87105 168.37745 46.49466 169.59375 45.46875 169.59375 C 41.93042 169.59375 44.28489 174.31042 48.625 175.90625 C 52.25078 177.23943 58.40667 176.54658 60.96875 174.53125 C 64.85943 171.47084 64.24608 170.59375 58.125 170.59375 C 52.87029 170.59375 52.55723 170.45042 51.25 167.34375 L 49.875 164.09375 z M 100.375 171.09375 C 98.327095 171.06197 97.750884 173.51691 100.375 175.84375 C 103.60533 178.70813 108.28652 179.19095 113.15625 177.15625 C 118.33662 174.99175 117.43192 173.59375 110.84375 173.59375 C 107.23118 173.59375 104.23454 173.0054 102.84375 172.03125 C 101.89625 171.36759 101.05763 171.10434 100.375 171.09375 z " id="path3077"></path>
  <path style="fill:#502d16" d="m 118.29743,164.35122 c -0.33983,-4.5375 -1.12239,-11.02066 -1.73901,-14.40703 -1.25443,-6.88911 -1.83594,-7.3054 -10.23815,-7.32932 -3.99091,-0.0113 -5.20449,0.44892 -7.214791,2.73635 l -2.41682,2.75 -2.28521,-2.69602 c -2.12747,-2.50992 -2.91306,-2.71701 -11.38094,-3 -6.596629,-0.22046 -9.548859,0.072 -10.744989,1.06431 -1.40479,1.16546 -2.01538,1.1284 -4.11909,-0.25 -3.12887,-2.05012 -6.39012,-2.06407 -8.63009,-0.0369 -1.60201,1.4498 -1.92054,1.4082 -3.82874,-0.5 -1.297,-1.297 -3.37013,-2.08136 -5.50121,-2.08136 -3.40816,0 -3.42494,0.0231 -4.91029,6.75 -1.4733,6.67232 -1.95223,9.18278 -3.14778,16.5 -0.53518,3.27552 -0.36253,3.75 1.36451,3.75 1.08747,0 2.95179,-1.36865 4.14292,-3.04144 2.41077,-3.38562 4.2824,-2.83628 5.39143,1.58246 0.56726,2.26016 1.08848,2.45898 6.44624,2.45898 5.81164,0 5.83435,-0.0117 7.5935,-3.9128 0.97043,-2.15204 2.50128,-4.06454 3.40187,-4.25 0.9006,-0.18546 6.07723,-0.19259 11.503619,-0.0159 l 9.86617,0.32134 2.0823,4.92866 c 2.14974,5.08828 3.32825,6.02283 4.32373,3.42865 0.79066,-2.06041 2.708381,-1.87932 4.821141,0.45525 1.30009,1.43659 3.39704,2.04865 7.90498,2.30732 3.37453,0.19364 6.53985,0.43878 7.03404,0.54475 0.51327,0.11006 0.63361,-3.34466 0.28066,-8.05732 z" id="path3073"></path>
  <g transform="matrix(0.20030851,0,0,0.20030851,86.576149,192.25459)" id="text3414" style="font-size:72px;font-style:normal;font-variant:normal;font-weight:normal;font-stretch:normal;text-align:end;line-height:125%;letter-spacing:0px;word-spacing:0px;text-anchor:end;fill:#f9f9f9;fill-opacity:1;stroke:none;font-family:Comic Sans MS;-inkscape-font-specification:Comic Sans MS">
    <path style="fill:#f9f9f9" inkscape:connector-curvature="0" id="path3419" d="m 20.198069,-2.654533 c -2.29688,5.66e-5 -3.43751,1.1563054 -3.4375,3.50000003 -10e-6,3.70317427 -0.07032,7.93754507 -0.1875,12.71874997 -0.11718,4.757848 -0.18751,9.015656 -0.1875,12.71875 -10e-6,2.835962 -0.1172,7.085958 -0.375,12.78125 -0.25782,5.671884 -0.37501,9.914067 -0.375,12.75 -10e-6,2.390624 1.14062,3.593749 3.4375,3.59375 2.06249,-10e-7 3.20312,-1.15625 3.4375,-3.5 0.18745,-3.585932 0.28124,-6.304679 0.28125,-8.15625 l 0.53125,-17.46875 c -2e-5,-3.703094 0.0703,-7.960902 0.1875,-12.71875 0.11718,-4.7812049 0.15624,-9.0155757 0.15625,-12.71874997 -10e-6,-2.34369463 -1.14845,-3.49994343 -3.46875,-3.50000003 z m -432.281249,0.15625 c -1.00782,5.64e-5 -1.84376,0.3438061 -2.5,1 -0.63282,0.65630483 -0.93751,1.50786643 -0.9375,2.5625 -10e-6,1.0547393 0.0313,2.289113 0.125,3.71875 0.11719,1.4297352 0.18749,2.664109 0.1875,3.71875 -10e-6,3.515667 -0.0703,7.593788 -0.1875,12.1875 -0.0937,4.570341 -0.12501,8.625025 -0.125,12.1875 -10e-6,1.945332 -0.15625,4.859391 -0.4375,8.75 -0.25781,3.867196 -0.37501,6.773443 -0.375,8.71875 -10e-6,3.187501 1.16405,4.781249 3.53125,4.78125 1.0078,-10e-7 1.83593,-0.312501 2.46875,-0.96875 0.65624,-0.656249 0.99999,-1.507811 1,-2.5625 -10e-6,-3.445307 0.11717,-6.992179 0.375,-10.625 2.85936,-1.945298 4.95311,-3.453108 6.3125,-4.53125 l 6.25,8.46875 c 2.46091,3.23438 4.28122,6.039066 5.5,8.40625 0.70309,1.359375 1.71091,2.031248 3,2.03125 0.9609,-2e-6 1.80465,-0.351564 2.53125,-1.03125 0.74996,-0.679688 1.12496,-1.468749 1.125,-2.40625 -4e-5,-1.476559 -1.7891,-4.664056 -5.375,-9.5625 l -7.6875,-10.4375 c 4.21872,-3.867162 7.7734,-7.499971 10.65625,-10.875 0.67965,-0.773404 1.03121,-1.546841 1.03125,-2.34375 -4e-5,-0.960901 -0.37504,-1.80465 -1.125,-2.53125 -0.7266,-0.726524 -1.55472,-1.093711 -2.46875,-1.09375 -0.89066,3.9e-5 -1.7266,0.390663 -2.5,1.1875 l -7.71875,7.96875 c -2.95314,2.906276 -6.03126,5.593774 -9.21875,8.03125 -0.0469,-4.0781 -0.0234,-8.171846 0.0937,-12.25 l 0.25,-11.3125 c -2e-5,-1.0780786 -0.0391,-2.3280774 -0.15625,-3.78125 -0.11719,-1.476512 -0.18751,-2.7655732 -0.1875,-3.84375 -10e-6,-1.05463357 -0.31251,-1.90619517 -0.96875,-2.5625 -0.63283,-0.6561939 -1.46095,-0.9999436 -2.46875,-1 z m 331.874999,0 c -1.00782,5.64e-5 -1.84376,0.3438061 -2.5,1 -0.63282,0.65630483 -0.93751,1.50786643 -0.9375,2.5625 -1e-5,1.0547393 0.0313,2.289113 0.125,3.71875 0.11719,1.4297352 0.18749,2.664109 0.1875,3.71875 -1e-5,3.515667 -0.07032,7.593788 -0.1875,12.1875 -0.09372,4.570341 -0.12501,8.625025 -0.125,12.1875 -1e-5,1.945332 -0.15625,4.859391 -0.4375,8.75 -0.25781,3.867196 -0.37501,6.773443 -0.375,8.71875 -1e-5,3.187501 1.16405,4.781249 3.53125,4.78125 1.0078,-10e-7 1.83593,-0.312501 2.46875,-0.96875 0.65624,-0.656249 0.99999,-1.507811 1,-2.5625 -1e-5,-3.445307 0.11717,-6.992179 0.375,-10.625 2.85936,-1.945298 4.95311,-3.453108 6.3125,-4.53125 l 6.25,8.46875 c 2.46091,3.23438 4.28122,6.039066 5.5,8.40625 0.70309,1.359375 1.71091,2.031248 3,2.03125 0.9609,-2e-6 1.80465,-0.351564 2.53125,-1.03125 0.74996,-0.679688 1.12496,-1.468749 1.125,-2.40625 -4e-5,-1.476559 -1.7891,-4.664056 -5.375,-9.5625 l -7.6875,-10.4375 c 4.21872,-3.867162 7.7734,-7.499971 10.65625,-10.875 0.67965,-0.773404 1.03121,-1.546841 1.03125,-2.34375 -4e-5,-0.960901 -0.37504,-1.80465 -1.125,-2.53125 -0.7266,-0.726524 -1.55472,-1.093711 -2.46875,-1.09375 -0.89066,3.9e-5 -1.7266,0.390663 -2.5,1.1875 l -7.71875,7.96875 c -2.95314,2.906276 -6.03126,5.593774 -9.21875,8.03125 -0.04688,-4.0781 -0.02345,-8.171846 0.09375,-12.25 l 0.25,-11.3125 c -2e-5,-1.0780786 -0.03908,-2.3280774 -0.15625,-3.78125 -0.11719,-1.476512 -0.18751,-2.7655732 -0.1875,-3.84375 -1e-5,-1.05463357 -0.31251,-1.90619517 -0.96875,-2.5625 -0.63283,-0.6561939 -1.46095,-0.9999436 -2.46875,-1 z m -203.281249,0.1875 c -5.17971,5.62e-5 -9.00002,1.49224233 -11.4375,4.46875 -2.01564,2.4609868 -3.32814,6.2969205 -3.9375,11.5 -0.28126,2.250038 -0.4297,4.031287 -0.5,5.34375 l -3.375,0.09375 c -4.10157,0.117222 -6.15626,1.335971 -6.15625,3.65625 -10e-6,2.273466 1.16406,3.406278 3.53125,3.40625 0.77343,2.8e-5 2.63281,-0.109347 5.5625,-0.34375 l 0,10.1875 0.0937,9.59375 c -10e-6,3.585942 -0.22657,6.921877 -0.71875,9.96875 -0.0469,0.281248 -0.0625,0.499998 -0.0625,0.6875 -10e-6,0.937497 0.3203,1.703121 1,2.3125 0.67968,0.632807 1.5078,0.968744 2.46875,0.96875 1.78123,-6e-6 2.88279,-0.937505 3.28125,-2.8125 0.51561,-2.484376 0.74998,-5.953122 0.75,-10.40625 -2e-5,-1.429679 -0.0313,-3.593739 -0.125,-6.5 -0.0937,-2.906233 -0.15627,-5.109356 -0.15625,-6.5625 l 0.28125,-8 c 4.33591,-0.351534 7.03904,-0.5156 8.09375,-0.46875 1.0781,0.02347 2.0156,-0.0156 2.8125,-0.15625 1.8281,-0.328095 2.74997,-1.351532 2.75,-3.0625 -3e-5,-2.343716 -1.86722,-3.531215 -5.59375,-3.53125 -1.1719,3.5e-5 -3.76564,0.156285 -7.75,0.4375 l 0.125,-2.1875 c 0.67967,-7.8749545 3.85935,-11.8124505 9.53125,-11.8125 3.04684,4.95e-5 4.56246,-1.1249494 4.5625,-3.375 -4e-5,-2.2733824 -1.67971,-3.4061938 -5.03125,-3.40625 z m 259.781249,0.84375 c -1.35939,5.54e-5 -2.44532,0.72661723 -3.21875,2.15625003 -0.58595,1.12505207 -0.87501,2.37505087 -0.875,3.78124997 -10e-5,1.7344228 -0.0079,5.0000445 -0.03125,9.78125 -0.0235,4.757848 -0.03126,7.976594 -0.03125,9.6875 -10e-6,2.484402 0.07031,6.218774 0.1875,11.1875 0.14064,4.945326 0.18749,8.671885 0.1875,11.15625 -10e-6,0.609382 -0.02345,1.492193 -0.09375,2.6875 -0.0469,1.195316 -0.06251,2.109378 -0.0625,2.71875 -10e-6,0.937501 0.29687,1.703126 0.90625,2.3125 0.6328,0.632812 1.39062,0.968749 2.28125,0.96875 1.07812,-10e-7 1.99999,-0.5625 2.75,-1.6875 2.92967,1.406249 6.19529,2.093749 9.78125,2.09375 5.1327903,-10e-7 9.3984003,-1.867187 12.84375029,-5.59375 3.44527001,-3.726554 5.18746001,-8.249988 5.18750001,-13.59375 -4e-5,-5.296852 -1.48441,-9.77341 -4.4375,-13.40625 -3.14066,-3.867152 -7.24222,-5.781213 -12.2812503,-5.78125 -1.61721,3.7e-5 -3.33596,0.328161 -5.1875,1.03125 -1.82814,0.679722 -3.77345,1.710971 -5.8125,3.09375 l 0.0625,-8.96875 0.125,-7.6875 c -10e-6,-0.3280752 0.03905,-0.8046373 0.15625,-1.4375 0.11718,-0.632761 0.18749,-1.109323 0.1875,-1.4375 -10e-6,-2.03900807 -0.8672,-3.0624446 -2.625,-3.0625 z m -235.031249,6.25 c -0.98439,4.91e-5 -1.82033,0.3437988 -2.5,1 -0.6797,0.63286 -1.00001,1.4219218 -1,2.40625 -10e-6,0.8906699 0.0312,2.359418 0.125,4.375 0.11719,1.992227 0.18748,3.585975 0.1875,4.78125 l -7.40625,-0.59375 c -0.98438,3.7e-5 -1.77344,0.320349 -2.40625,1 -0.63281,0.679723 -0.96875,1.531284 -0.96875,2.5625 0,2.039094 1.07031,3.21878 3.15625,3.5 3.49218,0.328154 6.0703,0.52347 7.78125,0.59375 l 0.71875,20.53125 c -10e-6,0.890633 -0.0547,2.218757 -0.125,4 -0.0704,1.781253 -0.0938,3.109377 -0.0937,4 -1e-5,0.914062 0.35154,1.703124 1.03125,2.3125 0.70311,0.609373 1.49999,0.906247 2.4375,0.90625 2.55467,-3e-6 3.81245,-2.585937 3.71875,-7.71875 l -0.0625,-1.78125 -0.0312,-1.53125 -0.65625,-20.78125 c 2.64841,-0.351532 4.24216,-0.53122 4.78125,-0.53125 0.49216,3e-5 1.06248,0.01566 1.71875,0.0625 0.67966,0.0469 1.25778,0.06253 1.75,0.0625 1.00778,2.9e-5 1.83591,-0.31247 2.46875,-0.96875 0.65622,-0.679656 0.99997,-1.531217 1,-2.5625 -3e-5,-1.734339 -0.7266,-2.843714 -2.15625,-3.3125 -0.75003,-0.234338 -2.34378,-0.343713 -4.78125,-0.34375 -0.4219,3.7e-5 -2.09377,0.187537 -5,0.5625 l 0.0312,-2.1875 0.0937,-2.03125 c -2e-5,-1.218708 -0.0547,-2.257769 -0.125,-3.125 -0.35158,-3.445265 -1.57814,-5.1874509 -3.6875,-5.1875 z m 491.625,0 c -0.98439,4.91e-5 -1.82033,0.3437988 -2.5,1 -0.6797,0.63286 -1.00001,1.4219218 -1,2.40625 -1e-5,0.8906699 0.0312,2.359418 0.125,4.375 0.11717,1.992227 0.18749,3.585975 0.1875,4.78125 l -7.40625,-0.59375 c -0.98438,3.7e-5 -1.77344,0.320349 -2.40625,1 -0.63282,0.679723 -0.96875,1.531284 -0.96875,2.5625 0,2.039094 1.07031,3.21878 3.15625,3.5 3.49218,0.328154 6.0703,0.52347 7.78125,0.59375 l 0.71875,20.53125 c -1e-5,0.890633 -0.0547,2.218757 -0.125,4 -0.0703,1.781253 -0.0938,3.109377 -0.0937,4 -10e-6,0.914062 0.35155,1.703124 1.03125,2.3125 0.70311,0.609373 1.49998,0.906247 2.4375,0.90625 2.55467,-3e-6 3.81248,-2.585937 3.71875,-7.71875 l -0.0625,-1.78125 -0.0312,-1.53125 -0.65625,-20.78125 c 2.64841,-0.351532 4.24216,-0.53122 4.78125,-0.53125 0.49216,3e-5 1.06247,0.01566 1.71875,0.0625 0.67966,0.0469 1.25778,0.06253 1.75,0.0625 1.00778,2.9e-5 1.83591,-0.31247 2.46875,-0.96875 0.65622,-0.679656 0.99997,-1.531217 1,-2.5625 -3e-5,-1.734339 -0.72659,-2.843714 -2.15625,-3.3125 -0.75003,-0.234338 -2.34378,-0.343713 -4.78125,-0.34375 -0.4219,3.7e-5 -2.09377,0.187537 -5,0.5625 l 0.0312,-2.1875 0.0937,-2.03125 c -2e-5,-1.218708 -0.0547,-2.257769 -0.125,-3.125 -0.35158,-3.445265 -1.57814,-5.1874509 -3.6875,-5.1875 z m -99.875,8.96875 c -1.12503,4e-5 -2.16409,0.203165 -3.125,0.625 -1.33596,0.609414 -3.56252,1.359413 -6.65625,2.25 -3.09376,0.867224 -5.34376,1.617223 -6.75,2.25 -4.61719,2.08597 -6.90626,5.601592 -6.90625,10.5 -1e-5,2.648459 0.9453,4.62502 2.84375,5.9375 1.31249,0.91408 3.5078,1.69533 6.625,2.375 l 3.65625,0.8125 c 4.4531,1.125014 6.68748,3.281262 6.6875,6.46875 -2e-5,1.47657 -1.10158,2.570319 -3.28125,3.25 -1.50002,0.468755 -3.21877,0.687505 -5.1875,0.6875 -1.07814,5e-6 -2.39845,-0.124995 -3.96875,-0.40625 -1.96876,-0.351557 -3.25001,-0.804682 -3.8125,-1.34375 -1.14845,-1.124993 -2.08595,-1.687492 -2.8125,-1.6875 -0.93751,8e-6 -1.78126,0.359383 -2.53125,1.0625 -0.72657,0.703132 -1.09375,1.500005 -1.09375,2.4375 0,2.343752 1.82812,4.1875 5.4375,5.5 2.78905,1.031248 5.71092,1.531247 8.78125,1.53125 4.19529,-3e-6 7.66404,-0.781252 10.40625,-2.375 3.30466,-1.945311 4.96872,-4.835932 4.96875,-8.65625 -3e-5,-4.664049 -1.92972,-8.226545 -5.75,-10.6875 -2.62502,-1.687479 -6.64064,-3.00779 -12.03125,-3.96875 -0.6797,-0.117164 -1.35938,-0.304664 -2.0625,-0.5625 0.0234,-2.203099 1.91405,-4.062471 5.6875,-5.5625 3.65623,-1.195281 6.36716,-2.023406 8.125,-2.46875 0.25779,1.921905 0.55466,3.203154 0.90625,3.8125 0.5156,0.867215 1.42966,1.312527 2.71875,1.3125 1.00779,2.7e-5 1.83591,-0.343723 2.46875,-1 0.65622,-0.656221 0.96871,-1.507783 0.96875,-2.5625 -4e-5,-0.679656 -0.13285,-1.687468 -0.4375,-3 -0.28129,-1.312466 -0.43753,-2.289026 -0.4375,-2.96875 -3e-5,-1.05465 -0.31254,-1.906211 -0.96875,-2.5625 -0.63285,-0.65621 -1.46097,-0.99996 -2.46875,-1 z m 218.28125,1.125 c -2.39063,3.9e-5 -3.59376,2.648474 -3.59375,7.96875 -10e-6,1.265655 0.10156,3.140653 0.3125,5.625 0.23437,2.484398 0.37499,4.351583 0.375,5.59375 -10e-6,1.406268 -0.14844,3.523454 -0.40625,6.3125 -0.25782,2.789074 -0.375,4.875009 -0.375,6.28125 0,6.023439 1.32031,9.031249 3.96875,9.03125 0.96093,-10e-7 1.79686,-0.312501 2.5,-0.96875 0.72655,-0.65625 1.09374,-1.476562 1.09375,-2.4375 -10e-6,-0.562498 -0.10939,-1.484372 -0.34375,-2.75 -0.21095,-1.26562 -0.34376,-2.234369 -0.34375,-2.9375 -10e-6,-1.312492 0.14843,-3.351552 0.40625,-6.09375 0.2578,-2.742171 0.37499,-4.812482 0.375,-6.21875 0.8203,-0.914042 1.43749,-1.656228 1.8125,-2.21875 l 4.125,-4.625 c 1.68748,-1.687472 3.35935,-2.90622 5,-3.65625 0.7031,1.382842 1.06248,3.296901 1.0625,5.78125 -2e-5,2.835959 0.28123,7.03908 0.84375,12.59375 0.58591,5.531256 0.87497,9.726565 0.875,12.5625 -3e-5,1.031248 0.30466,1.874998 0.9375,2.53125 0.65622,0.679684 1.49216,0.999995 2.5,1 1.00778,-5e-6 1.83591,-0.320316 2.46875,-1 0.65622,-0.656252 0.96872,-1.500002 0.96875,-2.53125 -3e-5,-2.414061 -0.21097,-5.48437 -0.65625,-9.1875 l -1.0625,-9.375 c -0.14065,-2.203105 -0.17972,-4.421853 -0.15625,-6.625 0.70309,-0.820287 2.15622,-1.890599 4.40625,-3.25 2.36715,-1.476533 4.00777,-2.21872 4.875,-2.21875 0.93746,3e-5 1.79683,1.046904 2.59375,3.15625 0.56246,1.5469 0.95308,3.132836 1.1875,4.75 l 1.1875,10.90625 c 0.42183,4.687506 0.85933,8.296877 1.28125,10.875 0.32808,2.03906 1.45308,3.062497 3.375,3.0625 1.00776,-3e-6 1.85932,-0.312502 2.5625,-0.96875 0.70307,-0.656251 1.00776,-1.46875 0.9375,-2.40625 -1.0313,-9.398427 -1.87505,-16.093733 -2.53125,-20.125 -0.67974,-5.742161 -1.1563,-9.062471 -1.4375,-9.90625 -1.42974,-4.218716 -4.08598,-6.312463 -8,-6.3125 -2.29691,3.7e-5 -4.34379,0.445349 -6.125,1.3125 -1.78128,0.843785 -3.30472,2.101596 -4.59375,3.8125 -1.38284,-3.656214 -3.91409,-5.468713 -7.59375,-5.46875 -1.66408,3.7e-5 -3.69533,1.023474 -6.0625,3.0625 -2.3672,2.015657 -4.15626,4.273468 -5.375,6.78125 l -0.0625,-3.6875 c -10e-6,-0.492156 0.0391,-1.218718 0.15625,-2.15625 0.11717,-0.937466 0.18749,-1.617153 0.1875,-2.0625 -10e-6,-0.937464 -0.38282,-1.828088 -1.15625,-2.625 -0.75001,-0.796836 -1.58595,-1.187461 -2.5,-1.1875 z m -202.84375,0.375 c -1.33594,3.9e-5 -2.35938,0.710975 -3.0625,2.09375 -0.60938,1.148472 -0.90626,2.554721 -0.90625,4.21875 l 0.53125,7.125 c 0.28124,4.218771 0.4297,8.898454 0.5,14.03125 l 0,14.03125 -0.0937,14.0625 c 0,1.031232 0.30468,1.874981 0.9375,2.53125 0.65625,0.65623 1.49218,0.968729 2.5,0.96875 1.0078,-2.1e-5 1.83593,-0.31252 2.46875,-0.96875 0.65624,-0.656269 0.99999,-1.500018 1,-2.53125 l 0.0625,-16.8125 c 2.81249,0.749999 5.37498,1.124999 7.71875,1.125 4.80466,-10e-7 8.64841,-1.718749 11.53125,-5.1875 2.71871,-3.281242 4.09372,-7.468738 4.09375,-12.53125 -3e-5,-5.554665 -0.89847,-9.999973 -2.65625,-13.375 -2.22659,-4.265591 -5.72659,-6.406214 -10.53125,-6.40625 -1.71096,3.6e-5 -3.50002,0.359411 -5.375,1.0625 -1.87501,0.679722 -3.82813,1.710971 -5.84375,3.09375 0.0469,-0.609342 0.1328,-1.304654 0.25,-2.03125 0.0703,-0.562466 0.0937,-0.945278 0.0937,-1.15625 -1e-5,-0.937464 -0.3047,-1.7109 -0.9375,-2.34375 -0.60939,-0.656212 -1.36719,-0.999961 -2.28125,-1 z m -343.375,0.25 c -0.98438,3.8e-5 -1.82032,0.343788 -2.5,1 -0.65625,0.63285 -0.96876,1.460973 -0.96875,2.46875 -1e-5,0.750034 0.0234,1.83597 0.0937,3.3125 0.0937,1.476592 0.125,2.593779 0.125,3.34375 0,2.414088 -0.14844,5.77346 -0.5,10.0625 -0.32813,4.265639 -0.5,7.617198 -0.5,10.03125 0,0.703133 0.0781,1.750006 0.21875,3.15625 0.16409,1.406253 0.21875,2.453128 0.21875,3.15625 0,1.054689 0.33593,1.906249 0.96875,2.5625 0.63281,0.656248 1.46874,0.999998 2.5,1 1.0078,-2e-6 1.80468,-0.343752 2.4375,-1 0.65624,-0.656251 0.99999,-1.507811 1,-2.5625 -1e-5,-0.703122 -0.0781,-1.749997 -0.21875,-3.15625 -0.14064,-1.406244 -0.21876,-2.453117 -0.21875,-3.15625 -1e-5,-1.101553 0.0781,-2.234365 0.21875,-3.40625 0.16405,-1.382799 0.2656,-2.554674 0.3125,-3.46875 1.21873,-4.335919 2.90623,-7.914039 5.0625,-10.75 2.3906,-3.117159 4.90623,-4.68747 7.53125,-4.6875 1.87498,3e-5 2.81248,2.531278 2.8125,7.59375 -2e-5,0.656272 -0.0313,1.773458 -0.125,3.34375 -0.0704,1.57033 -0.12503,2.687517 -0.125,3.34375 -3e-5,2.390639 0.17185,4.976574 0.5,7.71875 l 0.96875,7.6875 c 0.25779,2.203123 1.42184,3.312498 3.4375,3.3125 1.00778,-2e-6 1.81247,-0.343752 2.46875,-1 0.67966,-0.632813 1.03122,-1.468751 1.03125,-2.5 -3e-5,-1.921873 -0.26566,-4.398432 -0.78125,-7.46875 -0.49222,-3.093738 -0.71879,-5.617174 -0.71875,-7.5625 l 0.0312,-3.28125 0,-3.53125 c -0.0938,-4.312473 -0.64847,-7.578095 -1.65625,-9.78125 -1.4766,-3.304652 -4.09377,-4.968712 -7.84375,-4.96875 -4.14845,3.8e-5 -8.18752,2.625035 -12.125,7.875 l -0.0937,-4.09375 c -0.21095,-3.046838 -1.40626,-4.593712 -3.5625,-4.59375 z m 483.78125,1.03125 c -4.40627,3.7e-5 -8.35939,2.812534 -11.875,8.4375 -3.16407,5.062524 -4.75,9.960956 -4.75,14.71875 0,4.992196 1.68749,9.01563 5.0625,12.0625 3.21092,2.90625 7.22655,4.374998 12.03125,4.375 2.08591,-2e-6 4.71091,-0.718751 7.875,-2.125 3.60934,-1.593748 5.40622,-3.226559 5.40625,-4.9375 -3e-5,-0.890619 -0.30472,-1.695306 -0.9375,-2.375 -0.63285,-0.703117 -1.38284,-1.062492 -2.25,-1.0625 -0.30472,8e-6 -0.82816,0.187508 -1.53125,0.5625 l -4.0625,2.1875 c -1.59377,0.750005 -3.09377,1.125005 -4.5,1.125 -3.09377,5e-6 -5.62502,-0.835933 -7.59375,-2.5 -2.10939,-1.781242 -3.18751,-4.218739 -3.1875,-7.3125 -10e-6,-2.859358 1.08593,-6.242167 3.21875,-10.15625 2.34373,-4.265596 4.70311,-6.406219 7.09375,-6.40625 3.1406,3.1e-5 5.39841,0.554717 6.78125,1.65625 0.46872,0.398466 0.94528,0.828154 1.4375,1.25 0.5156,0.398465 1.13278,0.593777 1.8125,0.59375 0.86716,2.7e-5 1.57028,-0.351535 2.15625,-1.03125 0.5859,-0.703096 0.90622,-1.484345 0.90625,-2.375 -3e-5,-1.992155 -1.82034,-3.679653 -5.40625,-5.0625 -2.83596,-1.078088 -5.39065,-1.624963 -7.6875,-1.625 z m -645.375,0.3125 c -5.48439,3.7e-5 -10.46877,2.164098 -14.96875,6.5 -0.0234,-3.89059 -1.17188,-5.843714 -3.46875,-5.84375 -2.0625,3.6e-5 -3.09375,1.195348 -3.09375,3.5625 0,0.77347 -0.0547,1.921906 -0.125,3.46875 -0.0469,1.546903 -0.0625,2.726589 -0.0625,3.5 l 0,24.6875 c 0,2.367186 1.03124,3.531248 3.09375,3.53125 2.3203,-2e-6 3.49999,-1.164064 3.5,-3.53125 l -0.0937,-19.28125 c 1.3828,-3.070289 3.1328,-5.351537 5.21875,-6.875 2.22655,-1.640596 5.17186,-2.710908 8.875,-3.15625 l 0.125,2.96875 c 0.0703,1.195339 0.0937,2.023463 0.0937,2.46875 -3e-5,2.320336 1.0156,3.468772 3.03125,3.46875 2.17965,2.2e-5 3.33591,-1.47654 3.5,-4.40625 0.0234,-0.421849 0.0625,-1.218722 0.0625,-2.4375 -3e-5,-2.882781 -0.46878,-5.039029 -1.40625,-6.46875 -0.93753,-1.429651 -2.38284,-2.156213 -4.28125,-2.15625 z m 29.75,0.34375 c -5.41408,3.6e-5 -10.08595,2.031284 -14,6.0625 -3.89063,4.031276 -5.81251,8.890647 -5.8125,14.5625 -10e-6,6.00001 1.16406,10.437506 3.53125,13.34375 2.5078,3.09375 6.51561,4.656248 12,4.65625 1.14842,-2e-6 2.57029,-0.335939 4.28125,-0.96875 1.71091,-0.609375 3.68747,-1.53125 5.9375,-2.75 0.51559,0.750001 1.32028,1.632813 2.375,2.59375 1.17184,1.031248 1.9609,1.531248 2.40625,1.53125 0.86715,-2e-6 1.62497,-0.296877 2.28125,-0.90625 0.65622,-0.609376 0.99996,-1.375 1,-2.3125 l -0.21875,-0.625 c -0.37503,-0.82031 -0.64848,-1.421873 -0.8125,-1.84375 -1.24222,-3.093744 -1.9844,-5.156242 -2.21875,-6.1875 -0.4219,-1.687489 -0.61725,-3.999987 -0.59375,-6.90625 0.0234,-3.187481 0.10153,-5.804665 0.21875,-7.84375 0.1406,-2.039036 0.3281,-3.484348 0.5625,-4.375 0.46872,-0.492159 0.71872,-1.054658 0.71875,-1.6875 -3e-5,-1.851531 -1.59378,-3.437466 -4.78125,-4.75 -2.53128,-1.054652 -4.83596,-1.593714 -6.875,-1.59375 z m 118.03125,0.15625 c -1.21878,3.6e-5 -2.21878,0.656285 -2.96875,1.96875 -1.73441,3.023469 -3.53127,6.617215 -5.40625,10.8125 l -5.1875,12.125 c -4.57033,-10.218728 -8.85939,-18.09372 -12.84375,-23.625 -0.58594,-0.820277 -1.42188,-1.218713 -2.5,-1.21875 -0.91406,3.7e-5 -1.75,0.367223 -2.5,1.09375 -0.72656,0.726597 -1.09375,1.570346 -1.09375,2.53125 0,0.726594 0.33593,1.640656 0.96875,2.71875 l 1.5625,2.5625 12.59375,24.21875 c -5.06251,11.226554 -7.59375,17.999986 -7.59375,20.34375 0,0.96092 0.35937,1.773419 1.0625,2.40625 0.72656,0.65623 1.57811,0.96873 2.5625,0.96875 1.49999,-2e-5 2.54686,-0.843769 3.15625,-2.53125 l 2.3125,-6.8125 c 1.59373,-4.312507 3.90623,-9.664064 6.90625,-16.0625 l 12.15625,-26.3125 c 0.30465,-0.656218 0.46872,-1.234342 0.46875,-1.75 -3e-5,-0.937466 -0.37503,-1.757778 -1.125,-2.4375 -0.72659,-0.679651 -1.57034,-0.999964 -2.53125,-1 z m 63.53125,0.09375 c -5.85939,3.7e-5 -10.43751,2.398472 -13.71875,7.15625 -2.81251,4.031275 -4.14063,8.671895 -4,13.96875 0.16405,5.460947 1.80469,9.828131 4.96875,13.0625 2.83593,2.90625 6.24999,4.343748 10.1875,4.34375 4.94529,-2e-6 8.90622,-2.078125 11.90625,-6.25 2.6484,-3.67968 3.9922,-8.109363 4.0625,-13.3125 0.0703,-4.874978 -0.82816,-9.062473 -2.75,-12.53125 -2.41409,-4.289028 -5.96878,-6.437463 -10.65625,-6.4375 z m 37.8125,0 c -5.85939,3.7e-5 -10.43751,2.398472 -13.71875,7.15625 -2.8125,4.031275 -4.14063,8.671895 -4,13.96875 0.16406,5.460947 1.83593,9.828131 5,13.0625 2.83592,2.90625 6.21874,4.343748 10.15625,4.34375 4.94529,-2e-6 8.90623,-2.078125 11.906249,-6.25 2.64841,-3.67968 4.02345,-8.109363 4.09375,-13.3125 0.07028,-4.874978 -0.8594,-9.062473 -2.78125,-12.53125 -2.41409,-4.289028 -5.968769,-6.437463 -10.656249,-6.4375 z m 157.218749,0 c -5.85939,3.7e-5 -10.43751,2.398472 -13.71875,7.15625 -2.8125,4.031275 -4.14063,8.671895 -4,13.96875 0.16406,5.460947 1.83593,9.828131 5,13.0625 2.83592,2.90625 6.21874,4.343748 10.15625,4.34375 4.94529,-2e-6 8.90623,-2.078125 11.90625,-6.25 2.64841,-3.67968 4.02335,-8.109363 4.09375,-13.3125 0.07028,-4.874978 -0.8594,-9.062473 -2.78125,-12.53125 -2.41409,-4.289028 -5.96877,-6.437463 -10.65625,-6.4375 z m 149.625001,0 c -5.85939,3.7e-5 -10.43751,2.398472 -13.71875,7.15625 -2.8125,4.031275 -4.14063,8.671895 -4,13.96875 0.16406,5.460947 1.83593,9.828131 5,13.0625 2.83592,2.90625 6.21874,4.343748 10.15625,4.34375 4.94529,-2e-6 8.90622,-2.078125 11.90625,-6.25 2.6484,-3.67968 4.0234,-8.109363 4.09375,-13.3125 0.0703,-4.874978 -0.85941,-9.062473 -2.78125,-12.53125 -2.41409,-4.289028 -5.96878,-6.437463 -10.65625,-6.4375 z m 126.71875,0 c -5.85939,3.7e-5 -10.43751,2.398472 -13.71875,7.15625 -2.8125,4.031275 -4.14063,8.671895 -4,13.96875 0.16406,5.460947 1.80468,9.828131 4.96875,13.0625 2.83593,2.90625 6.24999,4.343748 10.1875,4.34375 4.94529,-2e-6 8.90622,-2.078125 11.90625,-6.25 2.6484,-3.67968 3.99215,-8.109363 4.0625,-13.3125 0.0703,-4.874978 -0.82816,-9.062473 -2.75,-12.53125 -2.41409,-4.289028 -5.96878,-6.437463 -10.65625,-6.4375 z m -236.250001,0.46875 c -6.46877,3.6e-5 -11.59376,1.984409 -15.34375,5.96875 -3.63282,3.867214 -5.4375,8.953146 -5.4375,15.28125 0,4.617197 1.32031,8.406256 3.96875,11.3125 2.67186,2.882813 6.1328,4.312499 10.375,4.3125 2.24998,-10e-7 4.23436,-0.578125 5.96875,-1.75 1.75779,-1.171873 3.2656,-2.937496 4.53125,-5.28125 -0.07034,5.929688 -0.65627,10.32812 -1.78125,13.1875 -1.71096,4.289051 -4.81252,6.46092 -9.3125,6.53125 -2.39064,0.04686 -4.59376,-0.140638 -6.5625,-0.5625 -1.96875,-0.39845 -3.375,-0.593763 -4.21875,-0.59375 -2.03906,-1.3e-5 -3.03125,1.039049 -3.03125,3.125 0,1.851545 1.45312,3.070294 4.40625,3.65625 2.10936,0.421855 4.72655,0.62498 7.84375,0.625 5.32029,-2e-5 9.40623,-1.070331 12.21875,-3.25 2.32028,-1.804702 4.00778,-4.609387 5.0625,-8.40625 0.82028,-2.976568 1.29684,-6.812502 1.437501,-11.5 l 0.8125,-11.8125 c 0.0937,-1.171859 0.3984,-3.390607 0.9375,-6.625 0.49215,-2.789038 0.74996,-4.99216 0.75,-6.65625 -4e-5,-2.718719 -1.27347,-4.11716 -3.781251,-4.1875 -0.77347,-1.124967 -1.89847,-1.968716 -3.375,-2.53125 -1.47659,-0.562465 -3.28909,-0.843714 -5.46875,-0.84375 z m -416.218749,5.5 c 0.37498,3e-5 0.85936,0.132843 1.46875,0.34375 0.63279,0.210967 1.38279,0.523467 2.25,0.96875 -0.25783,1.335965 -0.45315,2.617214 -0.59375,3.8125 -0.11718,1.171899 -0.18753,2.242211 -0.1875,3.25 -3e-5,3.093769 0.37497,7.757826 1.125,13.96875 -1.52347,1.335944 -2.68753,2.210943 -3.53125,2.65625 -1.57034,0.820317 -3.50002,1.250005 -5.75,1.25 -2.71877,5e-6 -4.73439,-0.98437 -6.09375,-2.90625 -1.35939,-1.921866 -2.06251,-4.781238 -2.0625,-8.625 -10e-6,-3.867168 1.31249,-7.296852 3.9375,-10.25 2.64842,-2.976534 5.80467,-4.46872 9.4375,-4.46875 z m 415.843749,0.125 c 1.0781,3e-5 2.14841,0.179718 3.15625,0.53125 1.00779,0.351592 1.96872,0.867216 2.90625,1.59375 -0.56253,5.414085 -1.10159,9.406268 -1.59375,11.9375 -0.28128,2.414076 -1.4219,4.851574 -3.4375,7.3125 -2.22658,2.671881 -4.50783,4.000005 -6.875,4 -2.57814,5e-6 -4.52345,-0.851557 -5.8125,-2.5625 -1.28907,-1.710928 -1.9375,-4.2578 -1.9375,-7.65625 0,-4.265605 1.10155,-7.796852 3.28125,-10.5625 2.43748,-3.070283 5.85936,-4.59372 10.3125,-4.59375 z m -100.15625,0.09375 c 3.2109103,3.1e-5 5.7890303,1.281279 7.6875003,3.8125 1.75778,2.343774 2.62496999,5.257833 2.62499999,8.75 -3e-5,3.562514 -1.10159999,6.546886 -3.28124999,8.9375 -2.17972,2.390631 -4.94534,3.562505 -8.3437503,3.5625 -1.80471,5e-6 -3.45314,-0.210932 -4.90625,-0.65625 -2.03908,-0.796869 -3.62502,-1.453118 -4.75,-1.96875 l -0.03125,-5.78125 -0.03125,-5.46875 0.0625,-6.09375 c 2.39061,-1.781224 4.07811,-2.92966 5.0625,-3.46875 2.0156,-1.078095 3.98435,-1.624969 5.90625,-1.625 z m -135.062499,0.96875 c 5.22654,0.02347 7.67185,4.554712 7.34375,13.625 -0.11721,3.351575 -1.16409,6.000009 -3.15625,7.96875 -1.75784,1.781256 -3.84377,2.687505 -6.28125,2.6875 -2.08595,5e-6 -3.92189,-0.773432 -5.46875,-2.34375 -1.85157,-1.898428 -2.78126,-4.570301 -2.78125,-7.96875 -1e-5,-3.398419 0.7578,-6.414041 2.28125,-9.0625 1.92186,-3.30466 4.61717,-4.92966 8.0625,-4.90625 z m 37.84375,0 c 5.22654,0.02347 7.67184,4.554712 7.34375,13.625 -0.11722,3.351575 -1.19534,6.000009 -3.1875,7.96875 -1.75783,1.781256 -3.84377,2.687505 -6.28125,2.6875 -2.08595,5e-6 -3.89064,-0.773432 -5.4375,-2.34375 -1.85158,-1.898428 -2.78126,-4.570301 -2.78125,-7.96875 -1e-5,-3.398419 0.7578,-6.414041 2.28125,-9.0625 1.92186,-3.30466 4.61717,-4.92966 8.0625,-4.90625 z m 157.218749,0 c 5.22654,0.02347 7.67184,4.554712 7.34375,13.625 -0.11722,3.351575 -1.19534,6.000009 -3.1875,7.96875 -1.75783,1.781256 -3.84377,2.687505 -6.28125,2.6875 -2.08595,5e-6 -3.89064,-0.773432 -5.4375,-2.34375 -1.85158,-1.898428 -2.78126,-4.570301 -2.78125,-7.96875 -10e-6,-3.398419 0.7578,-6.414041 2.28125,-9.0625 1.92186,-3.30466 4.61717,-4.92966 8.0625,-4.90625 z m 149.625001,0 c 5.22654,0.02347 7.67185,4.554712 7.34375,13.625 -0.11721,3.351575 -1.19534,6.000009 -3.1875,7.96875 -1.75784,1.781256 -3.84377,2.687505 -6.28125,2.6875 -2.08595,5e-6 -3.89064,-0.773432 -5.4375,-2.34375 -1.85158,-1.898428 -2.78126,-4.570301 -2.78125,-7.96875 -1e-5,-3.398419 0.7578,-6.414041 2.28125,-9.0625 1.92186,-3.30466 4.61717,-4.92966 8.0625,-4.90625 z m 126.6875,0 c 5.22654,0.02347 7.67185,4.554712 7.34375,13.625 -0.11721,3.351575 -1.16409,6.000009 -3.15625,7.96875 -1.75784,1.781256 -3.84377,2.687505 -6.28125,2.6875 -2.08595,5e-6 -3.92189,-0.773432 -5.46875,-2.34375 -1.85157,-1.898428 -2.78126,-4.570301 -2.78125,-7.96875 -10e-6,-3.398419 0.7578,-6.414041 2.28125,-9.0625 1.92186,-3.30466 4.61717,-4.92966 8.0625,-4.90625 z m -163.15625,0.0625 c 2.10935,2.9e-5 3.68747,1.054716 4.71875,3.1875 1.05465,2.109399 1.56247,5.296896 1.5625,9.5625 -3e-5,3.023451 -0.66409,5.476573 -2,7.375 -1.5469,2.179694 -3.78909,3.281256 -6.71875,3.28125 -2.55471,6e-6 -5.10157,-0.484369 -7.65625,-1.46875 -1e-5,-5.859362 -0.16407,-11.460918 -0.46875,-16.78125 1.89843,-1.804661 3.47655,-3.039036 4.71875,-3.71875 1.73436,-0.960909 3.68748,-1.437471 5.84375,-1.4375 z m -204.406251,23.78125 c -1.21876,5e-6 -2.25001,0.445318 -3.09375,1.3125 -0.84376,0.843753 -1.25001,1.86719 -1.25,3.0625 -10e-6,1.21875 0.40624,2.249999 1.25,3.09375 0.84374,0.843747 1.87499,1.249997 3.09375,1.25 1.1953,-3e-6 2.21874,-0.406253 3.0625,-1.25 0.86718,-0.843751 1.31248,-1.875 1.3125,-3.09375 -2e-5,-1.19531 -0.44532,-2.218747 -1.3125,-3.0625 -0.84376,-0.867182 -1.8672,-1.312495 -3.0625,-1.3125 z m 301.781251,0 c -1.21876,5e-6 -2.25001,0.445318 -3.09375,1.3125 -0.84376,0.843753 -1.25001,1.86719 -1.25,3.0625 -1e-5,1.21875 0.40624,2.249999 1.25,3.09375 0.84374,0.843747 1.87499,1.249997 3.09375,1.25 1.1953,-3e-6 2.21874,-0.406253 3.0625,-1.25 0.86717,-0.843751 1.31249,-1.875 1.3125,-3.09375 -10e-6,-1.19531 -0.44533,-2.218747 -1.3125,-3.0625 -0.84376,-0.867182 -1.8672,-1.312495 -3.0625,-1.3125 z"></path>
  </g>
</svg>
