<?xml version="1.0"?>

<!-- Created with Inkscape (http://www.inkscape.org/) -->

<svg xmlns:dc="http://purl.org/dc/elements/1.1/" xmlns:cc="http://creativecommons.org/ns#" xmlns:rdf="http://www.w3.org/1999/02/22-rdf-syntax-ns#" xmlns:svg="http://www.w3.org/2000/svg" xmlns="http://www.w3.org/2000/svg" xmlns:sodipodi="http://sodipodi.sourceforge.net/DTD/sodipodi-0.dtd" xmlns:inkscape="http://www.inkscape.org/namespaces/inkscape" id="svg3113" version="1.1" inkscape:version="0.48.5 r10040" width="200" height="180" sodipodi:docname="Kawaii Captain America.svg" viewBox="0 0 200 180">
  <metadata id="metadata3119">
    <rdf:rdf>
      <cc:work rdf:about="">
        <dc:format>image/svg+xml</dc:format>
        <dc:type rdf:resource="http://purl.org/dc/dcmitype/StillImage"></dc:type>
        <dc:title></dc:title>
      </cc:work>
    </rdf:rdf>
  </metadata>
  <defs id="defs3117"></defs>
  <sodipodi:namedview pagecolor="#ffffff" bordercolor="#666666" borderopacity="1" objecttolerance="10" gridtolerance="10" guidetolerance="10" inkscape:pageopacity="0" inkscape:pageshadow="2" inkscape:window-width="1280" inkscape:window-height="712" id="namedview3115" showgrid="false" inkscape:zoom="1.7643257" inkscape:cx="117.57207" inkscape:cy="93.540075" inkscape:window-x="0" inkscape:window-y="0" inkscape:window-maximized="1" inkscape:current-layer="svg3113"></sodipodi:namedview>
  <path style="fill:#000000" d="m 83.360087,3.187317 c -10.03038,6.259425 -6.664598,6.58656 -12.78125,34.375 0.35478,1.80157 -0.57727,4.64889 -2.9375,9.09375 -1.892436,3.56389 -4.046255,9.1334 -4.78125,12.375 l -1.34375,5.90625 -7.5,0.6875 c -19.496914,1.78668 -35.327002,12.18987 -44.03125,28.96875 -6.069266,11.699523 -7.384172,28.044763 -3.34375,41.125003 5.6776,18.38034 21.092951,33.2605 39.53125,38.125 6.723819,1.77391 17.113816,1.98383 24.21875,0.46875 6.07982,-1.29676 15.392913,-5.2314 17.96875,-7.5625 1.60292,-1.45062 2.05255,-1.42513 5.1875,0.0625 4.95331,2.3505 8.587093,2.03026 11.750003,-1 2.58194,-2.47365 2.85182,-2.52653 5.03125,-1 3.06894,2.14957 7.65125,2.04658 11.46875,-0.28125 1.71492,-1.04572 6.43992,-6.44981 10.5,-12 l 7.375,-10.09375 4.875,0 c 3.72386,-0.003 5.53394,0.58272 7.8125,2.5 8.1715,6.87586 19.9725,-2.45687 15.8125,-12.5 -0.67393,-1.62702 -3.23892,-4.83916 -5.71875,-7.125 l -4.5,-4.15625 3.34375,-2.53125 c 12.74919,-9.67099 20.875,-25.407473 20.875,-40.406253 0,-3.13689 0.60425,-4.42161 3,-6.4375 1.65,-1.38839 3,-3.37957 3,-4.40625 0,-1.02669 1.13545,-3.53692 2.53125,-5.59375 1.39649,-2.05784 2.43667,-4.90671 2.3125,-6.3125 -0.12411,-1.40509 0.60151,-4.33339 1.59375,-6.53125 2.2542,-4.99314 1.25025,-9.92875 -2.59375,-12.78125 -3.75079,-2.78333 -6.40568,-1.7902 -13.21875,4.96875 l -5.8125,5.75 -2.0625,-2.96875 c -6.437,-9.23339 -20.15774,-18.90429 -32.25,-22.75 -9.44599,-3.00412 -30.18367,-3.20741 -38.3125,-0.375 -2.923133,1.01854 -5.555903,1.60036 -5.843753,1.3125 -2.70626,-7.59595 -3.09341,-17.415553 -10.34375,-18.875 -0.252669,-0.04622 -0.517498,-0.04135 -0.8125,-0.03125 z" id="path3202" inkscape:connector-curvature="0"></path>
  <path style="fill:#ffffff" d="M 83.34375 9.625 C 83.224849 9.6152 83.122043 9.61557 83 9.65625 C 81.016095 10.31755 80.385325 14.65987 81.78125 18.15625 C 83.190638 21.68635 82.258558 23.14011 78.9375 22.59375 C 77.595329 22.37295 77.1875 23.00869 77.1875 25.3125 C 77.1875 26.96462 77.6375 28.59758 78.1875 28.9375 C 79.751671 29.90421 79.359084 33.4375 77.6875 33.4375 C 75.410735 33.4375 75.906099 36.2186 78.65625 38.96875 C 81.752655 42.06511 83.70719 42.07001 85.71875 39 C 89.13251 33.78995 87.029693 9.928752 83.34375 9.625 z M 117.6875 32.46875 L 104.5 45.625 C 97.242067 52.8624 91.48183 59.07348 91.6875 59.40625 C 91.89316 59.73902 95.53639 61.54078 99.78125 63.40625 L 107.5 66.78125 L 109.46875 64.34375 C 110.55231 63.00765 112.00136 61.08462 112.71875 60.0625 C 113.97557 58.27185 114.45798 58.32272 125.375 61.46875 C 131.60646 63.2645 137.25 65.18755 137.9375 65.71875 C 138.625 66.24994 139.1875 68.66883 139.1875 71.09375 C 139.1875 76.01646 139.2659 76.05597 148.125 78 C 156.38642 79.81288 156.41844 79.81363 155.78125 76.6875 C 155.47296 75.175 154.07338 66.9625 152.65625 58.4375 C 151.23913 49.9125 149.75579 42.65629 149.375 42.3125 C 148.99421 41.96872 141.7125 39.59326 133.1875 37.0625 L 117.6875 32.46875 z M 188.875 41.28125 C 186.72601 41.22782 182.2162 45.63742 177.25 53.0625 C 172.00494 60.90451 170.5801 64.3774 171.5625 66.9375 C 172.23013 68.67733 177.3603 68.95277 180.25 67.40625 C 181.89553 66.52559 181.99785 66.07793 180.9375 64.28125 C 179.91922 62.55585 179.93976 62.08091 181.125 61.65625 C 183.08147 60.95527 187.1875 56.76279 187.1875 55.46875 C 187.1875 54.89375 186.2875 54.4375 185.1875 54.4375 C 183.85417 54.4375 183.1875 53.77083 183.1875 52.4375 C 183.1875 51.3375 183.675 50.4375 184.25 50.4375 C 186.07225 50.4375 190.1875 45.59702 190.1875 43.46875 C 190.1875 41.99997 189.71591 41.30215 188.875 41.28125 z M 126.03125 44.5625 C 126.9422 44.4983 128.17897 44.6515 130.03125 44.90625 C 132.90424 45.30139 135.90804 46.28304 136.71875 47.09375 C 139.53268 49.90768 138.05881 57.58979 134.75 57.34375 C 134.1725 57.30085 130.7625 56.24109 127.1875 55 C 123.6125 53.75891 120.58068 52.12222 120.4375 51.34375 C 120.29432 50.56529 121.22802 48.64156 122.5 47.0625 C 123.86679 45.36574 124.513 44.66956 126.03125 44.5625 z M 56.1875 80.875 C 45.837299 81.11554 36.155507 85.49138 28.9375 93.375 C 21.223484 101.80038 18.75931 107.96778 18.71875 118.9375 C 18.67801 129.9575 20.002123 134.56652 25.53125 142.65625 C 34.028241 155.08829 45.088534 160.66632 60.1875 160.125 C 66.814216 159.88742 69.95266 159.24764 74.4375 157.1875 C 81.83891 153.78761 90.15418 145.89424 93.46875 139.125 C 105.52201 114.50905 90.55942 85.74286 63.4375 81.375 C 61.000124 80.98247 58.576008 80.8195 56.1875 80.875 z M 57.1875 88.9375 C 64.462145 88.9255 66.498792 89.32352 71.3125 91.6875 C 91.72094 101.70992 96.56707 128.32507 80.78125 143.75 C 72.621912 151.72281 60.87258 154.86758 50.28125 151.90625 C 43.230714 149.93492 39.26423 147.39235 34 141.53125 C 27.918554 134.76027 25.842997 128.38545 26.40625 118.125 C 27.097168 105.53897 32.209104 97.59272 43.46875 91.6875 C 47.953892 89.33522 49.879313 88.9496 57.1875 88.9375 z M 62.65625 101.75 C 61.716284 101.84165 59.613424 103.49314 57.25 106.0625 C 53.372411 110.278 52.30925 110.90346 50.1875 110.3125 C 46.518657 109.29064 41.409535 109.29594 40.78125 110.3125 C 40.480731 110.79875 41.50691 113.76032 43.09375 116.90625 L 46 122.625 L 44 127.09375 C 41.07748 133.70059 41.918842 134.7608 49.28125 133.90625 C 54.517093 133.29857 55.651455 133.48714 57.53125 135.1875 C 62.59539 139.76825 65.685643 140.45948 66.5625 137.1875 C 66.894137 135.95 67.18 133.27543 67.1875 131.25 C 67.1972 128.63681 67.695698 127.40866 68.9375 127 C 69.9 126.68325 72.4875 124.87972 74.6875 123 L 78.6875 119.5625 L 74.1875 117.625 C 71.7125 116.55854 68.995363 115.47203 68.15625 115.1875 C 67.227955 114.87273 66.138797 112.29169 65.375 108.59375 C 64.684581 105.25107 63.601347 102.17222 62.96875 101.78125 C 62.883753 101.72875 62.790531 101.7369 62.65625 101.75 z M 150.09375 123.46875 C 149.49842 123.44245 142.1875 133.95809 142.1875 134.84375 C 142.1875 135.30553 145.99154 136.01631 149.90625 136.28125 C 151.43587 136.38477 152.92201 135.27838 154.6875 132.6875 L 157.25 128.9375 L 153.96875 126.21875 C 152.17064 124.72105 150.42838 123.48355 150.09375 123.46875 z M 113.3125 129.9375 C 112.96427 129.98712 112.55747 130.21188 112.03125 130.625 C 111.12018 131.34027 110.07955 133.34875 109.71875 135.09375 C 109.14653 137.86125 109.32681 138.21062 110.96875 137.78125 C 112.00404 137.51051 113.40858 137.98051 114.125 138.84375 C 115.97671 141.07492 117.1875 140.79855 117.1875 138.125 C 117.1875 136.86 117.74625 135.285 118.40625 134.625 C 119.33958 133.69167 119.25861 133.4375 118.03125 133.4375 C 117.16334 133.4375 115.81709 132.50277 115.0625 131.375 C 114.33611 130.28938 113.89288 129.8548 113.3125 129.9375 z M 111.46875 142.375 C 109.36071 142.50464 106.49687 143.58341 105.4375 145.1875 C 103.96931 147.4106 103.99573 147.4375 108.5625 147.4375 C 111.10458 147.4375 113.1875 147.00501 113.1875 146.5 C 113.1875 145.99498 113.49549 144.84505 113.84375 143.9375 C 114.30182 142.74379 113.10834 142.27417 111.46875 142.375 z M 129.21875 142.4375 C 128.03647 142.4375 126.6165 143.64102 125.6875 145.4375 C 124.27293 148.17298 124.27707 148.4375 125.75 148.4375 C 126.63846 148.4375 128.21764 147.425 129.25 146.1875 C 131.66546 143.29213 131.65795 142.4375 129.21875 142.4375 z " id="path3200"></path>
  <path inkscape:connector-curvature="0" id="path3198" d="m 120.90625,24.53125 c -0.92345,-0.0108 -1.85159,0.007 -2.78125,0.03125 -7.4373,0.19715 -14.98273,1.53033 -21.5,3.96875 -5.03948,1.88552 -5.18301,2.05548 -5.6875,6.53125 -0.28454,2.52451 -1.40862,5.76908 -2.5,7.21875 -1.97322,2.62101 -3.086046,2.82741 -10.1875,1.9375 -1.949958,-0.24436 -2.91858,0.53036 -4.75,3.71875 -3.094749,5.38777 -6.051329,13.33647 -6.46875,17.40625 -0.325297,3.17157 -0.126394,3.39306 4.15625,4.6875 2.475,0.74808 4.6125,1.367 4.75,1.375 0.1375,0.008 0.28769,-1.43125 0.3125,-3.21875 0.02481,-1.7875 0.587307,-4.44415 1.25,-5.875 l 1.1875,-2.59375 17,8.90625 c 9.34537,4.89121 17.44537,9.34544 18,9.90625 1.42721,1.44313 -6.63259,8.78902 -10.5,9.5625 -4.90194,0.98039 -2.87557,2.74332 4.59375,4 9.89241,1.66436 17.00808,4.64281 24.1875,10.09375 5.9163,4.49193 12.48151,12.2799 13.78125,16.375 0.32351,1.01929 0.82151,1.875 1.125,1.875 0.30349,0 3.17396,-1.58672 6.375,-3.53125 12.64837,-7.68348 21.71034,-22.27476 22.6875,-36.53125 0.5403,-7.8828 0.52798,-7.9375 -1.875,-7.9375 -1.33121,0 -3.43388,-0.70632 -4.65625,-1.5625 -2.92131,-2.04616 -3.00605,-8.62708 -0.1875,-13.25 l 2,-3.28125 -2.875,-4.21875 c -7.03178,-10.22033 -18.1039,-18.7633 -29.4375,-22.71875 -5.27935,-1.84251 -11.53584,-2.79929 -18,-2.875 z m -3.71875,4.90625 c 2.85926,-0.006 33.43008,9.27382 34.6875,10.53125 1.83006,1.83006 8.28354,41.12271 6.96875,42.4375 -0.56955,0.56955 -1.29125,0.96285 -1.59375,0.90625 -0.3025,-0.0566 -5.0625,-1.06841 -10.5625,-2.28125 l -10,-2.21875 -0.25,-3.4375 c -0.59221,-7.55096 -0.52351,-7.45978 -10.90625,-10.40625 l -9.65625,-2.75 -3.8125,4.09375 c -2.08577,2.25887 -4.09782,4.125 -4.46875,4.125 C 106.05907,70.4375 87.69878,61.24078 87,60.125 86.095208,58.68026 114.8583,29.4425 117.1875,29.4375 z m 9.46875,52.78125 c 2.57121,-0.11578 8.45324,0.48757 21.46875,1.65625 9.58569,0.86071 17.59871,1.75496 17.8125,1.96875 0.21379,0.21379 -0.73306,2.58281 -2.09375,5.25 -2.83734,5.56166 -6.90361,9.74534 -10.96875,11.28125 -4.09309,1.54648 -12.71745,1.22985 -16.1875,-0.59375 C 129.58573,98.04909 125.77923,92.55743 125,84.9375 c -0.17862,-1.74674 -0.91496,-2.60297 1.65625,-2.71875 z m -70.4375,18.21875 c -3.576149,0 -9.646045,2.33689 -12.3125,4.75 -1.782744,1.61336 -1.778759,1.68602 -0.03125,2.375 0.998382,0.39363 3.435801,0.74265 5.40625,0.78125 3.01679,0.0592 4.07446,-0.53802 6.78125,-3.90625 l 3.21875,-4 -3.0625,0 z m 9.65625,2 c -0.223556,0 0.136292,2.32382 0.78125,5.1875 1.050592,4.66475 1.569093,5.38561 5.09375,6.96875 4.945999,2.22155 5.4375,2.23709 5.4375,0.0625 0,-3.77092 -7.826733,-12.21875 -11.3125,-12.21875 z m -26.78125,10.875 c -2.690621,1.30987 -2.692536,10.62627 -1.21875,13.34375 1.527913,3.16809 2.805524,4.34743 4.3125,-0.21875 1.162397,-3.5221 1.104747,-4.48869 -0.53125,-8.25 -1.019212,-2.34326 -2.021927,-4.45968 -2.21875,-4.71875 -0.113196,-0.14925 -0.220384,-0.19455 -0.34375,-0.15625 z M 77.625,123.59375 c -0.730621,0.10404 -2.134023,0.97466 -4.25,2.53125 -2.025803,1.49025 -3.74547,2.7277 -3.8125,2.75 -0.06703,0.0223 -0.423011,2.25621 -0.8125,4.9375 l -0.71875,4.875 L 71,136.5625 c 1.629435,-1.16026 3.929168,-4.11621 5.09375,-6.59375 2.140671,-4.55408 2.748951,-6.54841 1.53125,-6.375 z m 68.375,1.125 c -0.11522,0.01 -0.26299,0.0576 -0.4375,0.125 -5.25237,2.02704 -15.70631,3.7327 -22.625,3.6875 -7.44786,-0.0487 -7.72957,0.0488 -6.71875,1.9375 0.61323,1.14582 2.0694,1.96875 3.5,1.96875 2.9832,0 3.16879,1.0638 0.46875,2.75 -1.1,0.68696 -2,2.15466 -2,3.25 0,1.81415 0.69637,2 7.625,2 6.92208,0 7.77284,-0.22482 9.5625,-2.5 1.08158,-1.375 2.54279,-2.5 3.25,-2.5 0.70721,0 2.96841,-2.54939 5.03125,-5.65625 2.46447,-3.71177 3.15032,-5.1304 2.34375,-5.0625 z m -34.8125,2.71875 c -0.55,0 -1,0.45 -1,1 0,0.55 0.45,1 1,1 0.55,0 1,-0.45 1,-1 0,-0.55 -0.45,-1 -1,-1 z m -61.46875,8 c -5.665773,0 -5.783278,1.53379 -0.28125,4.03125 4.183783,1.89909 11.77419,2.68441 11.75,1.21875 -0.0324,-1.96287 -7.211406,-5.25 -11.46875,-5.25 z M 111,139 c -0.26738,0.0165 -0.53763,0.0531 -0.8125,0.125 -2.75155,0.71955 -2.50155,1.3125 0.5625,1.3125 1.40746,0 2.30801,-0.40788 2,-0.90625 C 112.51899,139.15747 111.80215,138.9506 111,139 z m 2.3125,11.4375 c -11.31631,0 -11.96378,0.11101 -13.40625,2.3125 -1.47474,2.25073 -1.44795,2.28933 1.375,1.875 1.59497,-0.23409 2.90625,-0.82492 2.90625,-1.3125 0,-1.22388 6.73646,-1.11043 7.5,0.125 0.87168,1.4104 10.86438,1.22937 12.3125,-0.21875 0.66,-0.66 1.1875,-1.56 1.1875,-2 0,-0.44 -5.33826,-0.78125 -11.875,-0.78125 z" style="fill:#0000ff"></path>
  <path style="fill:#0000ff" d="m 128.64134,47.906067 c 3.01505,0.0666 6.68155,1.55841 6.34375,3.3125 -0.3471,1.80235 -2.37641,2.43569 -4.8125,1.5 -0.825,-0.31688 -2.5735,-0.97511 -3.90625,-1.46875 -2.17832,-0.80681 -2.28589,-1.05786 -0.90625,-2.4375 0.66823,-0.66823 1.91077,-0.93653 3.28125,-0.90625 z" id="path3188" inkscape:connector-curvature="0"></path>
  <path style="fill:#ffccaa" d="M 79.40625 62.5 L 78.8125 64.71875 C 77.316939 70.29714 78.015897 71.83626 83.34375 74.65625 L 88.46875 77.375 L 91.46875 74.875 C 94.92015 71.97084 97.528077 72.30773 100.96875 76.09375 C 103.71778 79.11871 103.10793 80.4375 98.96875 80.4375 L 95.84375 80.4375 L 98.1875 82.9375 C 99.47925 84.3125 100.02088 85.4375 99.375 85.4375 C 98.72913 85.4375 98.1875 85.91293 98.1875 86.5 C 98.1875 87.6763 100.80846 87.07641 105.84375 84.75 C 107.58124 83.94724 109.75165 82.46832 110.65625 81.46875 C 112.21911 79.74181 111.74124 79.35148 101 73.65625 C 94.782907 70.35982 87.39122 66.5133 84.5625 65.09375 L 79.40625 62.5 z M 130.5 84.40625 L 126.28125 84.4375 L 127.78125 88.65625 C 131.36989 98.82752 142.11109 104.06406 151.875 100.375 C 155.37264 99.053497 159.88347 94.84793 161.84375 91.09375 C 162.66021 89.53014 163.2093 88.12263 163.03125 87.96875 C 162.41431 87.43555 134.68611 84.39625 130.5 84.40625 z M 141.90625 87.125 C 143.80105 87.0399 145.76184 87.61604 147.1875 88.90625 C 150.03733 91.4853 149.68094 93.15649 146.125 93.9375 C 143.21544 94.57655 143.13825 94.72233 144.71875 96.46875 C 148.48887 100.63469 141.75241 102.06492 137.65625 97.96875 C 134.72817 95.04068 134.53014 92.46373 137.03125 89.375 C 138.16929 87.96958 140.01145 87.2101 141.90625 87.125 z M 104.75 93.53125 C 103.27422 93.53012 103.63154 94.3601 104.625 96.28125 C 105.79143 98.53688 106.97369 99.2793 110.25 99.71875 C 121.68249 101.25217 131.09525 116.17751 123.6875 121.03125 C 121.58497 122.40888 120.47692 122.4697 116.75 121.53125 C 111.1727 120.12687 111.1875 120.12904 111.1875 121.84375 C 111.1875 122.62842 111.975 123.49848 112.9375 123.75 C 116.81231 124.7626 132.05815 124.31171 137.5 123.03125 C 140.68786 122.28116 143.53957 121.42918 143.84375 121.125 C 144.95201 120.01673 138.65937 110.13372 134.53125 106.5 C 128.71946 101.38426 119.7568 96.77506 112.09375 94.96875 C 108.14068 94.03695 105.89783 93.53213 104.75 93.53125 z " id="path3186"></path>
  <path style="fill:#ff0000" d="M 56.21875 71.46875 C 37.519694 71.97047 20.163724 83.683907 12.4375 102.0625 C 9.000536 110.23811 8.793424 127.00299 12.03125 135.84375 C 19.417313 156.01112 37.62686 169.22847 58.25 169.375 C 62.45983 169.4049 68.228833 168.70887 71.25 167.8125 C 88.519 162.68879 101.26112 149.74901 105.65625 132.875 C 112.65331 106.01147 94.60831 77.9956 66.6875 72.375 C 63.186022 71.67014 59.681538 71.37585 56.21875 71.46875 z M 57.21875 79.4375 C 88.61862 79.4375 109.10334 111.83972 95.15625 139.46875 C 91.41752 146.87512 87.46273 151.39063 81.15625 155.4375 C 71.700602 161.50517 59.299373 163.78586 48.9375 161.34375 C 30.800573 157.0692 17.127441 139.62823 16.875 120.4375 C 16.567001 97.023237 33.864492 79.4375 57.21875 79.4375 z M 57.34375 90.8125 C 52.828737 90.789 48.35646 91.64256 44.8125 93.375 C 21.823088 104.61323 22.337445 136.91779 45.6875 148.03125 C 52.67419 151.35652 63.628519 151.36422 70.71875 148.0625 C 77.698573 144.8122 84.748426 136.72516 86.8125 129.625 C 91.02402 115.13786 84.051589 100.01864 70.1875 93.53125 C 66.403765 91.76074 61.858763 90.836 57.34375 90.8125 z M 57.1875 99.03125 C 65.96803 99.16064 75.36513 105.37648 78.21875 112.9375 C 81.583288 121.85226 78.04457 133.46266 70.34375 138.875 C 66.821429 141.35058 64.979949 141.90128 59.40625 142.125 C 55.717453 142.27306 51.638913 141.95378 50.34375 141.40625 C 44.237082 138.37869 37.575031 130.28076 36.4375 123.03125 C 35.170827 110.70525 44.918015 98.85043 57.1875 99.03125 z M 158.46875 130.25 L 156.34375 133.71875 C 153.75024 137.91513 153.66631 139.02563 155.9375 140.375 C 158.80004 142.07571 161.5749 141.15437 162.625 138.15625 C 163.45365 135.79042 163.21756 134.9988 161.03125 132.8125 L 158.46875 130.25 z M 121.0625 142.4375 C 118.29262 142.4375 116.4826 143.01659 115.59375 144.1875 C 113.19125 147.35239 113.93386 148.4375 118.53125 148.4375 C 122.211 148.4375 123.04718 148.03481 124.03125 145.875 C 125.63211 142.3615 125.69484 142.4375 121.0625 142.4375 z M 116.71875 157.59375 C 113.14021 157.59375 111.13872 158.89552 111.75 160.8125 C 112.31384 162.5807 114.54567 164 116.71875 164 C 118.89183 164 121.15492 162.5807 121.71875 160.8125 C 122.33002 158.89552 120.29728 157.59375 116.71875 157.59375 z M 99.59375 158.75 C 96.606531 158.75 94.1875 159.33641 94.1875 160.09375 C 94.1875 162.67152 97.051838 165.65625 99.59375 165.65625 C 100.98777 165.65625 102.79714 164.66726 103.59375 163.53125 C 106.14581 159.89178 105.15362 158.75 99.59375 158.75 z " id="path3184"></path>
  <path style="fill:#000000" d="m 117.04759,156.53107 c 0.725,0.004 1.4282,0.0936 1.90625,0.21875 0.95609,0.25029 -0.0813,0.4486 -2.28125,0.4375 -2.2,-0.0111 -2.96266,-0.22956 -1.71875,-0.46875 0.62196,-0.11959 1.36875,-0.19116 2.09375,-0.1875 z" id="path3132" inkscape:connector-curvature="0"></path>
  <path style="fill:#000000" d="m 100.17259,156.56227 c 0.63437,0 1.26875,0.0617 1.75,0.1875 0.9625,0.25153 0.175,0.4375 -1.75,0.4375 -1.925003,0 -2.712503,-0.18597 -1.750003,-0.4375 0.48125,-0.12576 1.11563,-0.1875 1.750003,-0.1875 z" id="path3130" inkscape:connector-curvature="0"></path>
  <g transform="matrix(0.24642735,0,0,0.24642735,102.35695,185.34027)" id="text3414" style="font-size:72px;font-style:normal;font-variant:normal;font-weight:normal;font-stretch:normal;text-align:end;line-height:125%;letter-spacing:0px;word-spacing:0px;text-anchor:end;fill:#f9f9f9;fill-opacity:1;stroke:none;font-family:Comic Sans MS;-inkscape-font-specification:Comic Sans MS">
    <path style="fill:#f9f9f9" inkscape:connector-curvature="0" id="path3419" d="m 20.198069,-2.654533 c -2.29688,5.66e-5 -3.43751,1.1563054 -3.4375,3.50000003 -10e-6,3.70317427 -0.07032,7.93754507 -0.1875,12.71874997 -0.11718,4.757848 -0.18751,9.015656 -0.1875,12.71875 -10e-6,2.835962 -0.1172,7.085958 -0.375,12.78125 -0.25782,5.671884 -0.37501,9.914067 -0.375,12.75 -10e-6,2.390624 1.14062,3.593749 3.4375,3.59375 2.06249,-10e-7 3.20312,-1.15625 3.4375,-3.5 0.18745,-3.585932 0.28124,-6.304679 0.28125,-8.15625 l 0.53125,-17.46875 c -2e-5,-3.703094 0.0703,-7.960902 0.1875,-12.71875 0.11718,-4.7812049 0.15624,-9.0155757 0.15625,-12.71874997 -10e-6,-2.34369463 -1.14845,-3.49994343 -3.46875,-3.50000003 z m -432.281249,0.15625 c -1.00782,5.64e-5 -1.84376,0.3438061 -2.5,1 -0.63282,0.65630483 -0.93751,1.50786643 -0.9375,2.5625 -10e-6,1.0547393 0.0313,2.289113 0.125,3.71875 0.11719,1.4297352 0.18749,2.664109 0.1875,3.71875 -10e-6,3.515667 -0.0703,7.593788 -0.1875,12.1875 -0.0937,4.570341 -0.12501,8.625025 -0.125,12.1875 -10e-6,1.945332 -0.15625,4.859391 -0.4375,8.75 -0.25781,3.867196 -0.37501,6.773443 -0.375,8.71875 -10e-6,3.187501 1.16405,4.781249 3.53125,4.78125 1.0078,-10e-7 1.83593,-0.312501 2.46875,-0.96875 0.65624,-0.656249 0.99999,-1.507811 1,-2.5625 -10e-6,-3.445307 0.11717,-6.992179 0.375,-10.625 2.85936,-1.945298 4.95311,-3.453108 6.3125,-4.53125 l 6.25,8.46875 c 2.46091,3.23438 4.28122,6.039066 5.5,8.40625 0.70309,1.359375 1.71091,2.031248 3,2.03125 0.9609,-2e-6 1.80465,-0.351564 2.53125,-1.03125 0.74996,-0.679688 1.12496,-1.468749 1.125,-2.40625 -4e-5,-1.476559 -1.7891,-4.664056 -5.375,-9.5625 l -7.6875,-10.4375 c 4.21872,-3.867162 7.7734,-7.499971 10.65625,-10.875 0.67965,-0.773404 1.03121,-1.546841 1.03125,-2.34375 -4e-5,-0.960901 -0.37504,-1.80465 -1.125,-2.53125 -0.7266,-0.726524 -1.55472,-1.093711 -2.46875,-1.09375 -0.89066,3.9e-5 -1.7266,0.390663 -2.5,1.1875 l -7.71875,7.96875 c -2.95314,2.906276 -6.03126,5.593774 -9.21875,8.03125 -0.0469,-4.0781 -0.0234,-8.171846 0.0937,-12.25 l 0.25,-11.3125 c -2e-5,-1.0780786 -0.0391,-2.3280774 -0.15625,-3.78125 -0.11719,-1.476512 -0.18751,-2.7655732 -0.1875,-3.84375 -10e-6,-1.05463357 -0.31251,-1.90619517 -0.96875,-2.5625 -0.63283,-0.6561939 -1.46095,-0.9999436 -2.46875,-1 z m 331.874999,0 c -1.00782,5.64e-5 -1.84376,0.3438061 -2.5,1 -0.63282,0.65630483 -0.93751,1.50786643 -0.9375,2.5625 -1e-5,1.0547393 0.0313,2.289113 0.125,3.71875 0.11719,1.4297352 0.18749,2.664109 0.1875,3.71875 -1e-5,3.515667 -0.07032,7.593788 -0.1875,12.1875 -0.09372,4.570341 -0.12501,8.625025 -0.125,12.1875 -1e-5,1.945332 -0.15625,4.859391 -0.4375,8.75 -0.25781,3.867196 -0.37501,6.773443 -0.375,8.71875 -1e-5,3.187501 1.16405,4.781249 3.53125,4.78125 1.0078,-10e-7 1.83593,-0.312501 2.46875,-0.96875 0.65624,-0.656249 0.99999,-1.507811 1,-2.5625 -1e-5,-3.445307 0.11717,-6.992179 0.375,-10.625 2.85936,-1.945298 4.95311,-3.453108 6.3125,-4.53125 l 6.25,8.46875 c 2.46091,3.23438 4.28122,6.039066 5.5,8.40625 0.70309,1.359375 1.71091,2.031248 3,2.03125 0.9609,-2e-6 1.80465,-0.351564 2.53125,-1.03125 0.74996,-0.679688 1.12496,-1.468749 1.125,-2.40625 -4e-5,-1.476559 -1.7891,-4.664056 -5.375,-9.5625 l -7.6875,-10.4375 c 4.21872,-3.867162 7.7734,-7.499971 10.65625,-10.875 0.67965,-0.773404 1.03121,-1.546841 1.03125,-2.34375 -4e-5,-0.960901 -0.37504,-1.80465 -1.125,-2.53125 -0.7266,-0.726524 -1.55472,-1.093711 -2.46875,-1.09375 -0.89066,3.9e-5 -1.7266,0.390663 -2.5,1.1875 l -7.71875,7.96875 c -2.95314,2.906276 -6.03126,5.593774 -9.21875,8.03125 -0.04688,-4.0781 -0.02345,-8.171846 0.09375,-12.25 l 0.25,-11.3125 c -2e-5,-1.0780786 -0.03908,-2.3280774 -0.15625,-3.78125 -0.11719,-1.476512 -0.18751,-2.7655732 -0.1875,-3.84375 -1e-5,-1.05463357 -0.31251,-1.90619517 -0.96875,-2.5625 -0.63283,-0.6561939 -1.46095,-0.9999436 -2.46875,-1 z m -203.281249,0.1875 c -5.17971,5.62e-5 -9.00002,1.49224233 -11.4375,4.46875 -2.01564,2.4609868 -3.32814,6.2969205 -3.9375,11.5 -0.28126,2.250038 -0.4297,4.031287 -0.5,5.34375 l -3.375,0.09375 c -4.10157,0.117222 -6.15626,1.335971 -6.15625,3.65625 -10e-6,2.273466 1.16406,3.406278 3.53125,3.40625 0.77343,2.8e-5 2.63281,-0.109347 5.5625,-0.34375 l 0,10.1875 0.0937,9.59375 c -10e-6,3.585942 -0.22657,6.921877 -0.71875,9.96875 -0.0469,0.281248 -0.0625,0.499998 -0.0625,0.6875 -10e-6,0.937497 0.3203,1.703121 1,2.3125 0.67968,0.632807 1.5078,0.968744 2.46875,0.96875 1.78123,-6e-6 2.88279,-0.937505 3.28125,-2.8125 0.51561,-2.484376 0.74998,-5.953122 0.75,-10.40625 -2e-5,-1.429679 -0.0313,-3.593739 -0.125,-6.5 -0.0937,-2.906233 -0.15627,-5.109356 -0.15625,-6.5625 l 0.28125,-8 c 4.33591,-0.351534 7.03904,-0.5156 8.09375,-0.46875 1.0781,0.02347 2.0156,-0.0156 2.8125,-0.15625 1.8281,-0.328095 2.74997,-1.351532 2.75,-3.0625 -3e-5,-2.343716 -1.86722,-3.531215 -5.59375,-3.53125 -1.1719,3.5e-5 -3.76564,0.156285 -7.75,0.4375 l 0.125,-2.1875 c 0.67967,-7.8749545 3.85935,-11.8124505 9.53125,-11.8125 3.04684,4.95e-5 4.56246,-1.1249494 4.5625,-3.375 -4e-5,-2.2733824 -1.67971,-3.4061938 -5.03125,-3.40625 z m 259.781249,0.84375 c -1.35939,5.54e-5 -2.44532,0.72661723 -3.21875,2.15625003 -0.58595,1.12505207 -0.87501,2.37505087 -0.875,3.78124997 -10e-5,1.7344228 -0.0079,5.0000445 -0.03125,9.78125 -0.0235,4.757848 -0.03126,7.976594 -0.03125,9.6875 -10e-6,2.484402 0.07031,6.218774 0.1875,11.1875 0.14064,4.945326 0.18749,8.671885 0.1875,11.15625 -10e-6,0.609382 -0.02345,1.492193 -0.09375,2.6875 -0.0469,1.195316 -0.06251,2.109378 -0.0625,2.71875 -10e-6,0.937501 0.29687,1.703126 0.90625,2.3125 0.6328,0.632812 1.39062,0.968749 2.28125,0.96875 1.07812,-10e-7 1.99999,-0.5625 2.75,-1.6875 2.92967,1.406249 6.19529,2.093749 9.78125,2.09375 5.1327903,-10e-7 9.3984003,-1.867187 12.84375029,-5.59375 3.44527001,-3.726554 5.18746001,-8.249988 5.18750001,-13.59375 -4e-5,-5.296852 -1.48441,-9.77341 -4.4375,-13.40625 -3.14066,-3.867152 -7.24222,-5.781213 -12.2812503,-5.78125 -1.61721,3.7e-5 -3.33596,0.328161 -5.1875,1.03125 -1.82814,0.679722 -3.77345,1.710971 -5.8125,3.09375 l 0.0625,-8.96875 0.125,-7.6875 c -10e-6,-0.3280752 0.03905,-0.8046373 0.15625,-1.4375 0.11718,-0.632761 0.18749,-1.109323 0.1875,-1.4375 -10e-6,-2.03900807 -0.8672,-3.0624446 -2.625,-3.0625 z m -235.031249,6.25 c -0.98439,4.91e-5 -1.82033,0.3437988 -2.5,1 -0.6797,0.63286 -1.00001,1.4219218 -1,2.40625 -10e-6,0.8906699 0.0312,2.359418 0.125,4.375 0.11719,1.992227 0.18748,3.585975 0.1875,4.78125 l -7.40625,-0.59375 c -0.98438,3.7e-5 -1.77344,0.320349 -2.40625,1 -0.63281,0.679723 -0.96875,1.531284 -0.96875,2.5625 0,2.039094 1.07031,3.21878 3.15625,3.5 3.49218,0.328154 6.0703,0.52347 7.78125,0.59375 l 0.71875,20.53125 c -10e-6,0.890633 -0.0547,2.218757 -0.125,4 -0.0704,1.781253 -0.0938,3.109377 -0.0937,4 -1e-5,0.914062 0.35154,1.703124 1.03125,2.3125 0.70311,0.609373 1.49999,0.906247 2.4375,0.90625 2.55467,-3e-6 3.81245,-2.585937 3.71875,-7.71875 l -0.0625,-1.78125 -0.0312,-1.53125 -0.65625,-20.78125 c 2.64841,-0.351532 4.24216,-0.53122 4.78125,-0.53125 0.49216,3e-5 1.06248,0.01566 1.71875,0.0625 0.67966,0.0469 1.25778,0.06253 1.75,0.0625 1.00778,2.9e-5 1.83591,-0.31247 2.46875,-0.96875 0.65622,-0.679656 0.99997,-1.531217 1,-2.5625 -3e-5,-1.734339 -0.7266,-2.843714 -2.15625,-3.3125 -0.75003,-0.234338 -2.34378,-0.343713 -4.78125,-0.34375 -0.4219,3.7e-5 -2.09377,0.187537 -5,0.5625 l 0.0312,-2.1875 0.0937,-2.03125 c -2e-5,-1.218708 -0.0547,-2.257769 -0.125,-3.125 -0.35158,-3.445265 -1.57814,-5.1874509 -3.6875,-5.1875 z m 491.625,0 c -0.98439,4.91e-5 -1.82033,0.3437988 -2.5,1 -0.6797,0.63286 -1.00001,1.4219218 -1,2.40625 -1e-5,0.8906699 0.0312,2.359418 0.125,4.375 0.11717,1.992227 0.18749,3.585975 0.1875,4.78125 l -7.40625,-0.59375 c -0.98438,3.7e-5 -1.77344,0.320349 -2.40625,1 -0.63282,0.679723 -0.96875,1.531284 -0.96875,2.5625 0,2.039094 1.07031,3.21878 3.15625,3.5 3.49218,0.328154 6.0703,0.52347 7.78125,0.59375 l 0.71875,20.53125 c -1e-5,0.890633 -0.0547,2.218757 -0.125,4 -0.0703,1.781253 -0.0938,3.109377 -0.0937,4 -10e-6,0.914062 0.35155,1.703124 1.03125,2.3125 0.70311,0.609373 1.49998,0.906247 2.4375,0.90625 2.55467,-3e-6 3.81248,-2.585937 3.71875,-7.71875 l -0.0625,-1.78125 -0.0312,-1.53125 -0.65625,-20.78125 c 2.64841,-0.351532 4.24216,-0.53122 4.78125,-0.53125 0.49216,3e-5 1.06247,0.01566 1.71875,0.0625 0.67966,0.0469 1.25778,0.06253 1.75,0.0625 1.00778,2.9e-5 1.83591,-0.31247 2.46875,-0.96875 0.65622,-0.679656 0.99997,-1.531217 1,-2.5625 -3e-5,-1.734339 -0.72659,-2.843714 -2.15625,-3.3125 -0.75003,-0.234338 -2.34378,-0.343713 -4.78125,-0.34375 -0.4219,3.7e-5 -2.09377,0.187537 -5,0.5625 l 0.0312,-2.1875 0.0937,-2.03125 c -2e-5,-1.218708 -0.0547,-2.257769 -0.125,-3.125 -0.35158,-3.445265 -1.57814,-5.1874509 -3.6875,-5.1875 z m -99.875,8.96875 c -1.12503,4e-5 -2.16409,0.203165 -3.125,0.625 -1.33596,0.609414 -3.56252,1.359413 -6.65625,2.25 -3.09376,0.867224 -5.34376,1.617223 -6.75,2.25 -4.61719,2.08597 -6.90626,5.601592 -6.90625,10.5 -1e-5,2.648459 0.9453,4.62502 2.84375,5.9375 1.31249,0.91408 3.5078,1.69533 6.625,2.375 l 3.65625,0.8125 c 4.4531,1.125014 6.68748,3.281262 6.6875,6.46875 -2e-5,1.47657 -1.10158,2.570319 -3.28125,3.25 -1.50002,0.468755 -3.21877,0.687505 -5.1875,0.6875 -1.07814,5e-6 -2.39845,-0.124995 -3.96875,-0.40625 -1.96876,-0.351557 -3.25001,-0.804682 -3.8125,-1.34375 -1.14845,-1.124993 -2.08595,-1.687492 -2.8125,-1.6875 -0.93751,8e-6 -1.78126,0.359383 -2.53125,1.0625 -0.72657,0.703132 -1.09375,1.500005 -1.09375,2.4375 0,2.343752 1.82812,4.1875 5.4375,5.5 2.78905,1.031248 5.71092,1.531247 8.78125,1.53125 4.19529,-3e-6 7.66404,-0.781252 10.40625,-2.375 3.30466,-1.945311 4.96872,-4.835932 4.96875,-8.65625 -3e-5,-4.664049 -1.92972,-8.226545 -5.75,-10.6875 -2.62502,-1.687479 -6.64064,-3.00779 -12.03125,-3.96875 -0.6797,-0.117164 -1.35938,-0.304664 -2.0625,-0.5625 0.0234,-2.203099 1.91405,-4.062471 5.6875,-5.5625 3.65623,-1.195281 6.36716,-2.023406 8.125,-2.46875 0.25779,1.921905 0.55466,3.203154 0.90625,3.8125 0.5156,0.867215 1.42966,1.312527 2.71875,1.3125 1.00779,2.7e-5 1.83591,-0.343723 2.46875,-1 0.65622,-0.656221 0.96871,-1.507783 0.96875,-2.5625 -4e-5,-0.679656 -0.13285,-1.687468 -0.4375,-3 -0.28129,-1.312466 -0.43753,-2.289026 -0.4375,-2.96875 -3e-5,-1.05465 -0.31254,-1.906211 -0.96875,-2.5625 -0.63285,-0.65621 -1.46097,-0.99996 -2.46875,-1 z m 218.28125,1.125 c -2.39063,3.9e-5 -3.59376,2.648474 -3.59375,7.96875 -10e-6,1.265655 0.10156,3.140653 0.3125,5.625 0.23437,2.484398 0.37499,4.351583 0.375,5.59375 -10e-6,1.406268 -0.14844,3.523454 -0.40625,6.3125 -0.25782,2.789074 -0.375,4.875009 -0.375,6.28125 0,6.023439 1.32031,9.031249 3.96875,9.03125 0.96093,-10e-7 1.79686,-0.312501 2.5,-0.96875 0.72655,-0.65625 1.09374,-1.476562 1.09375,-2.4375 -10e-6,-0.562498 -0.10939,-1.484372 -0.34375,-2.75 -0.21095,-1.26562 -0.34376,-2.234369 -0.34375,-2.9375 -10e-6,-1.312492 0.14843,-3.351552 0.40625,-6.09375 0.2578,-2.742171 0.37499,-4.812482 0.375,-6.21875 0.8203,-0.914042 1.43749,-1.656228 1.8125,-2.21875 l 4.125,-4.625 c 1.68748,-1.687472 3.35935,-2.90622 5,-3.65625 0.7031,1.382842 1.06248,3.296901 1.0625,5.78125 -2e-5,2.835959 0.28123,7.03908 0.84375,12.59375 0.58591,5.531256 0.87497,9.726565 0.875,12.5625 -3e-5,1.031248 0.30466,1.874998 0.9375,2.53125 0.65622,0.679684 1.49216,0.999995 2.5,1 1.00778,-5e-6 1.83591,-0.320316 2.46875,-1 0.65622,-0.656252 0.96872,-1.500002 0.96875,-2.53125 -3e-5,-2.414061 -0.21097,-5.48437 -0.65625,-9.1875 l -1.0625,-9.375 c -0.14065,-2.203105 -0.17972,-4.421853 -0.15625,-6.625 0.70309,-0.820287 2.15622,-1.890599 4.40625,-3.25 2.36715,-1.476533 4.00777,-2.21872 4.875,-2.21875 0.93746,3e-5 1.79683,1.046904 2.59375,3.15625 0.56246,1.5469 0.95308,3.132836 1.1875,4.75 l 1.1875,10.90625 c 0.42183,4.687506 0.85933,8.296877 1.28125,10.875 0.32808,2.03906 1.45308,3.062497 3.375,3.0625 1.00776,-3e-6 1.85932,-0.312502 2.5625,-0.96875 0.70307,-0.656251 1.00776,-1.46875 0.9375,-2.40625 -1.0313,-9.398427 -1.87505,-16.093733 -2.53125,-20.125 -0.67974,-5.742161 -1.1563,-9.062471 -1.4375,-9.90625 -1.42974,-4.218716 -4.08598,-6.312463 -8,-6.3125 -2.29691,3.7e-5 -4.34379,0.445349 -6.125,1.3125 -1.78128,0.843785 -3.30472,2.101596 -4.59375,3.8125 -1.38284,-3.656214 -3.91409,-5.468713 -7.59375,-5.46875 -1.66408,3.7e-5 -3.69533,1.023474 -6.0625,3.0625 -2.3672,2.015657 -4.15626,4.273468 -5.375,6.78125 l -0.0625,-3.6875 c -10e-6,-0.492156 0.0391,-1.218718 0.15625,-2.15625 0.11717,-0.937466 0.18749,-1.617153 0.1875,-2.0625 -10e-6,-0.937464 -0.38282,-1.828088 -1.15625,-2.625 -0.75001,-0.796836 -1.58595,-1.187461 -2.5,-1.1875 z m -202.84375,0.375 c -1.33594,3.9e-5 -2.35938,0.710975 -3.0625,2.09375 -0.60938,1.148472 -0.90626,2.554721 -0.90625,4.21875 l 0.53125,7.125 c 0.28124,4.218771 0.4297,8.898454 0.5,14.03125 l 0,14.03125 -0.0937,14.0625 c 0,1.031232 0.30468,1.874981 0.9375,2.53125 0.65625,0.65623 1.49218,0.968729 2.5,0.96875 1.0078,-2.1e-5 1.83593,-0.31252 2.46875,-0.96875 0.65624,-0.656269 0.99999,-1.500018 1,-2.53125 l 0.0625,-16.8125 c 2.81249,0.749999 5.37498,1.124999 7.71875,1.125 4.80466,-10e-7 8.64841,-1.718749 11.53125,-5.1875 2.71871,-3.281242 4.09372,-7.468738 4.09375,-12.53125 -3e-5,-5.554665 -0.89847,-9.999973 -2.65625,-13.375 -2.22659,-4.265591 -5.72659,-6.406214 -10.53125,-6.40625 -1.71096,3.6e-5 -3.50002,0.359411 -5.375,1.0625 -1.87501,0.679722 -3.82813,1.710971 -5.84375,3.09375 0.0469,-0.609342 0.1328,-1.304654 0.25,-2.03125 0.0703,-0.562466 0.0937,-0.945278 0.0937,-1.15625 -1e-5,-0.937464 -0.3047,-1.7109 -0.9375,-2.34375 -0.60939,-0.656212 -1.36719,-0.999961 -2.28125,-1 z m -343.375,0.25 c -0.98438,3.8e-5 -1.82032,0.343788 -2.5,1 -0.65625,0.63285 -0.96876,1.460973 -0.96875,2.46875 -1e-5,0.750034 0.0234,1.83597 0.0937,3.3125 0.0937,1.476592 0.125,2.593779 0.125,3.34375 0,2.414088 -0.14844,5.77346 -0.5,10.0625 -0.32813,4.265639 -0.5,7.617198 -0.5,10.03125 0,0.703133 0.0781,1.750006 0.21875,3.15625 0.16409,1.406253 0.21875,2.453128 0.21875,3.15625 0,1.054689 0.33593,1.906249 0.96875,2.5625 0.63281,0.656248 1.46874,0.999998 2.5,1 1.0078,-2e-6 1.80468,-0.343752 2.4375,-1 0.65624,-0.656251 0.99999,-1.507811 1,-2.5625 -1e-5,-0.703122 -0.0781,-1.749997 -0.21875,-3.15625 -0.14064,-1.406244 -0.21876,-2.453117 -0.21875,-3.15625 -1e-5,-1.101553 0.0781,-2.234365 0.21875,-3.40625 0.16405,-1.382799 0.2656,-2.554674 0.3125,-3.46875 1.21873,-4.335919 2.90623,-7.914039 5.0625,-10.75 2.3906,-3.117159 4.90623,-4.68747 7.53125,-4.6875 1.87498,3e-5 2.81248,2.531278 2.8125,7.59375 -2e-5,0.656272 -0.0313,1.773458 -0.125,3.34375 -0.0704,1.57033 -0.12503,2.687517 -0.125,3.34375 -3e-5,2.390639 0.17185,4.976574 0.5,7.71875 l 0.96875,7.6875 c 0.25779,2.203123 1.42184,3.312498 3.4375,3.3125 1.00778,-2e-6 1.81247,-0.343752 2.46875,-1 0.67966,-0.632813 1.03122,-1.468751 1.03125,-2.5 -3e-5,-1.921873 -0.26566,-4.398432 -0.78125,-7.46875 -0.49222,-3.093738 -0.71879,-5.617174 -0.71875,-7.5625 l 0.0312,-3.28125 0,-3.53125 c -0.0938,-4.312473 -0.64847,-7.578095 -1.65625,-9.78125 -1.4766,-3.304652 -4.09377,-4.968712 -7.84375,-4.96875 -4.14845,3.8e-5 -8.18752,2.625035 -12.125,7.875 l -0.0937,-4.09375 c -0.21095,-3.046838 -1.40626,-4.593712 -3.5625,-4.59375 z m 483.78125,1.03125 c -4.40627,3.7e-5 -8.35939,2.812534 -11.875,8.4375 -3.16407,5.062524 -4.75,9.960956 -4.75,14.71875 0,4.992196 1.68749,9.01563 5.0625,12.0625 3.21092,2.90625 7.22655,4.374998 12.03125,4.375 2.08591,-2e-6 4.71091,-0.718751 7.875,-2.125 3.60934,-1.593748 5.40622,-3.226559 5.40625,-4.9375 -3e-5,-0.890619 -0.30472,-1.695306 -0.9375,-2.375 -0.63285,-0.703117 -1.38284,-1.062492 -2.25,-1.0625 -0.30472,8e-6 -0.82816,0.187508 -1.53125,0.5625 l -4.0625,2.1875 c -1.59377,0.750005 -3.09377,1.125005 -4.5,1.125 -3.09377,5e-6 -5.62502,-0.835933 -7.59375,-2.5 -2.10939,-1.781242 -3.18751,-4.218739 -3.1875,-7.3125 -10e-6,-2.859358 1.08593,-6.242167 3.21875,-10.15625 2.34373,-4.265596 4.70311,-6.406219 7.09375,-6.40625 3.1406,3.1e-5 5.39841,0.554717 6.78125,1.65625 0.46872,0.398466 0.94528,0.828154 1.4375,1.25 0.5156,0.398465 1.13278,0.593777 1.8125,0.59375 0.86716,2.7e-5 1.57028,-0.351535 2.15625,-1.03125 0.5859,-0.703096 0.90622,-1.484345 0.90625,-2.375 -3e-5,-1.992155 -1.82034,-3.679653 -5.40625,-5.0625 -2.83596,-1.078088 -5.39065,-1.624963 -7.6875,-1.625 z m -645.375,0.3125 c -5.48439,3.7e-5 -10.46877,2.164098 -14.96875,6.5 -0.0234,-3.89059 -1.17188,-5.843714 -3.46875,-5.84375 -2.0625,3.6e-5 -3.09375,1.195348 -3.09375,3.5625 0,0.77347 -0.0547,1.921906 -0.125,3.46875 -0.0469,1.546903 -0.0625,2.726589 -0.0625,3.5 l 0,24.6875 c 0,2.367186 1.03124,3.531248 3.09375,3.53125 2.3203,-2e-6 3.49999,-1.164064 3.5,-3.53125 l -0.0937,-19.28125 c 1.3828,-3.070289 3.1328,-5.351537 5.21875,-6.875 2.22655,-1.640596 5.17186,-2.710908 8.875,-3.15625 l 0.125,2.96875 c 0.0703,1.195339 0.0937,2.023463 0.0937,2.46875 -3e-5,2.320336 1.0156,3.468772 3.03125,3.46875 2.17965,2.2e-5 3.33591,-1.47654 3.5,-4.40625 0.0234,-0.421849 0.0625,-1.218722 0.0625,-2.4375 -3e-5,-2.882781 -0.46878,-5.039029 -1.40625,-6.46875 -0.93753,-1.429651 -2.38284,-2.156213 -4.28125,-2.15625 z m 29.75,0.34375 c -5.41408,3.6e-5 -10.08595,2.031284 -14,6.0625 -3.89063,4.031276 -5.81251,8.890647 -5.8125,14.5625 -10e-6,6.00001 1.16406,10.437506 3.53125,13.34375 2.5078,3.09375 6.51561,4.656248 12,4.65625 1.14842,-2e-6 2.57029,-0.335939 4.28125,-0.96875 1.71091,-0.609375 3.68747,-1.53125 5.9375,-2.75 0.51559,0.750001 1.32028,1.632813 2.375,2.59375 1.17184,1.031248 1.9609,1.531248 2.40625,1.53125 0.86715,-2e-6 1.62497,-0.296877 2.28125,-0.90625 0.65622,-0.609376 0.99996,-1.375 1,-2.3125 l -0.21875,-0.625 c -0.37503,-0.82031 -0.64848,-1.421873 -0.8125,-1.84375 -1.24222,-3.093744 -1.9844,-5.156242 -2.21875,-6.1875 -0.4219,-1.687489 -0.61725,-3.999987 -0.59375,-6.90625 0.0234,-3.187481 0.10153,-5.804665 0.21875,-7.84375 0.1406,-2.039036 0.3281,-3.484348 0.5625,-4.375 0.46872,-0.492159 0.71872,-1.054658 0.71875,-1.6875 -3e-5,-1.851531 -1.59378,-3.437466 -4.78125,-4.75 -2.53128,-1.054652 -4.83596,-1.593714 -6.875,-1.59375 z m 118.03125,0.15625 c -1.21878,3.6e-5 -2.21878,0.656285 -2.96875,1.96875 -1.73441,3.023469 -3.53127,6.617215 -5.40625,10.8125 l -5.1875,12.125 c -4.57033,-10.218728 -8.85939,-18.09372 -12.84375,-23.625 -0.58594,-0.820277 -1.42188,-1.218713 -2.5,-1.21875 -0.91406,3.7e-5 -1.75,0.367223 -2.5,1.09375 -0.72656,0.726597 -1.09375,1.570346 -1.09375,2.53125 0,0.726594 0.33593,1.640656 0.96875,2.71875 l 1.5625,2.5625 12.59375,24.21875 c -5.06251,11.226554 -7.59375,17.999986 -7.59375,20.34375 0,0.96092 0.35937,1.773419 1.0625,2.40625 0.72656,0.65623 1.57811,0.96873 2.5625,0.96875 1.49999,-2e-5 2.54686,-0.843769 3.15625,-2.53125 l 2.3125,-6.8125 c 1.59373,-4.312507 3.90623,-9.664064 6.90625,-16.0625 l 12.15625,-26.3125 c 0.30465,-0.656218 0.46872,-1.234342 0.46875,-1.75 -3e-5,-0.937466 -0.37503,-1.757778 -1.125,-2.4375 -0.72659,-0.679651 -1.57034,-0.999964 -2.53125,-1 z m 63.53125,0.09375 c -5.85939,3.7e-5 -10.43751,2.398472 -13.71875,7.15625 -2.81251,4.031275 -4.14063,8.671895 -4,13.96875 0.16405,5.460947 1.80469,9.828131 4.96875,13.0625 2.83593,2.90625 6.24999,4.343748 10.1875,4.34375 4.94529,-2e-6 8.90622,-2.078125 11.90625,-6.25 2.6484,-3.67968 3.9922,-8.109363 4.0625,-13.3125 0.0703,-4.874978 -0.82816,-9.062473 -2.75,-12.53125 -2.41409,-4.289028 -5.96878,-6.437463 -10.65625,-6.4375 z m 37.8125,0 c -5.85939,3.7e-5 -10.43751,2.398472 -13.71875,7.15625 -2.8125,4.031275 -4.14063,8.671895 -4,13.96875 0.16406,5.460947 1.83593,9.828131 5,13.0625 2.83592,2.90625 6.21874,4.343748 10.15625,4.34375 4.94529,-2e-6 8.90623,-2.078125 11.906249,-6.25 2.64841,-3.67968 4.02345,-8.109363 4.09375,-13.3125 0.07028,-4.874978 -0.8594,-9.062473 -2.78125,-12.53125 -2.41409,-4.289028 -5.968769,-6.437463 -10.656249,-6.4375 z m 157.218749,0 c -5.85939,3.7e-5 -10.43751,2.398472 -13.71875,7.15625 -2.8125,4.031275 -4.14063,8.671895 -4,13.96875 0.16406,5.460947 1.83593,9.828131 5,13.0625 2.83592,2.90625 6.21874,4.343748 10.15625,4.34375 4.94529,-2e-6 8.90623,-2.078125 11.90625,-6.25 2.64841,-3.67968 4.02335,-8.109363 4.09375,-13.3125 0.07028,-4.874978 -0.8594,-9.062473 -2.78125,-12.53125 -2.41409,-4.289028 -5.96877,-6.437463 -10.65625,-6.4375 z m 149.625001,0 c -5.85939,3.7e-5 -10.43751,2.398472 -13.71875,7.15625 -2.8125,4.031275 -4.14063,8.671895 -4,13.96875 0.16406,5.460947 1.83593,9.828131 5,13.0625 2.83592,2.90625 6.21874,4.343748 10.15625,4.34375 4.94529,-2e-6 8.90622,-2.078125 11.90625,-6.25 2.6484,-3.67968 4.0234,-8.109363 4.09375,-13.3125 0.0703,-4.874978 -0.85941,-9.062473 -2.78125,-12.53125 -2.41409,-4.289028 -5.96878,-6.437463 -10.65625,-6.4375 z m 126.71875,0 c -5.85939,3.7e-5 -10.43751,2.398472 -13.71875,7.15625 -2.8125,4.031275 -4.14063,8.671895 -4,13.96875 0.16406,5.460947 1.80468,9.828131 4.96875,13.0625 2.83593,2.90625 6.24999,4.343748 10.1875,4.34375 4.94529,-2e-6 8.90622,-2.078125 11.90625,-6.25 2.6484,-3.67968 3.99215,-8.109363 4.0625,-13.3125 0.0703,-4.874978 -0.82816,-9.062473 -2.75,-12.53125 -2.41409,-4.289028 -5.96878,-6.437463 -10.65625,-6.4375 z m -236.250001,0.46875 c -6.46877,3.6e-5 -11.59376,1.984409 -15.34375,5.96875 -3.63282,3.867214 -5.4375,8.953146 -5.4375,15.28125 0,4.617197 1.32031,8.406256 3.96875,11.3125 2.67186,2.882813 6.1328,4.312499 10.375,4.3125 2.24998,-10e-7 4.23436,-0.578125 5.96875,-1.75 1.75779,-1.171873 3.2656,-2.937496 4.53125,-5.28125 -0.07034,5.929688 -0.65627,10.32812 -1.78125,13.1875 -1.71096,4.289051 -4.81252,6.46092 -9.3125,6.53125 -2.39064,0.04686 -4.59376,-0.140638 -6.5625,-0.5625 -1.96875,-0.39845 -3.375,-0.593763 -4.21875,-0.59375 -2.03906,-1.3e-5 -3.03125,1.039049 -3.03125,3.125 0,1.851545 1.45312,3.070294 4.40625,3.65625 2.10936,0.421855 4.72655,0.62498 7.84375,0.625 5.32029,-2e-5 9.40623,-1.070331 12.21875,-3.25 2.32028,-1.804702 4.00778,-4.609387 5.0625,-8.40625 0.82028,-2.976568 1.29684,-6.812502 1.437501,-11.5 l 0.8125,-11.8125 c 0.0937,-1.171859 0.3984,-3.390607 0.9375,-6.625 0.49215,-2.789038 0.74996,-4.99216 0.75,-6.65625 -4e-5,-2.718719 -1.27347,-4.11716 -3.781251,-4.1875 -0.77347,-1.124967 -1.89847,-1.968716 -3.375,-2.53125 -1.47659,-0.562465 -3.28909,-0.843714 -5.46875,-0.84375 z m -416.218749,5.5 c 0.37498,3e-5 0.85936,0.132843 1.46875,0.34375 0.63279,0.210967 1.38279,0.523467 2.25,0.96875 -0.25783,1.335965 -0.45315,2.617214 -0.59375,3.8125 -0.11718,1.171899 -0.18753,2.242211 -0.1875,3.25 -3e-5,3.093769 0.37497,7.757826 1.125,13.96875 -1.52347,1.335944 -2.68753,2.210943 -3.53125,2.65625 -1.57034,0.820317 -3.50002,1.250005 -5.75,1.25 -2.71877,5e-6 -4.73439,-0.98437 -6.09375,-2.90625 -1.35939,-1.921866 -2.06251,-4.781238 -2.0625,-8.625 -10e-6,-3.867168 1.31249,-7.296852 3.9375,-10.25 2.64842,-2.976534 5.80467,-4.46872 9.4375,-4.46875 z m 415.843749,0.125 c 1.0781,3e-5 2.14841,0.179718 3.15625,0.53125 1.00779,0.351592 1.96872,0.867216 2.90625,1.59375 -0.56253,5.414085 -1.10159,9.406268 -1.59375,11.9375 -0.28128,2.414076 -1.4219,4.851574 -3.4375,7.3125 -2.22658,2.671881 -4.50783,4.000005 -6.875,4 -2.57814,5e-6 -4.52345,-0.851557 -5.8125,-2.5625 -1.28907,-1.710928 -1.9375,-4.2578 -1.9375,-7.65625 0,-4.265605 1.10155,-7.796852 3.28125,-10.5625 2.43748,-3.070283 5.85936,-4.59372 10.3125,-4.59375 z m -100.15625,0.09375 c 3.2109103,3.1e-5 5.7890303,1.281279 7.6875003,3.8125 1.75778,2.343774 2.62496999,5.257833 2.62499999,8.75 -3e-5,3.562514 -1.10159999,6.546886 -3.28124999,8.9375 -2.17972,2.390631 -4.94534,3.562505 -8.3437503,3.5625 -1.80471,5e-6 -3.45314,-0.210932 -4.90625,-0.65625 -2.03908,-0.796869 -3.62502,-1.453118 -4.75,-1.96875 l -0.03125,-5.78125 -0.03125,-5.46875 0.0625,-6.09375 c 2.39061,-1.781224 4.07811,-2.92966 5.0625,-3.46875 2.0156,-1.078095 3.98435,-1.624969 5.90625,-1.625 z m -135.062499,0.96875 c 5.22654,0.02347 7.67185,4.554712 7.34375,13.625 -0.11721,3.351575 -1.16409,6.000009 -3.15625,7.96875 -1.75784,1.781256 -3.84377,2.687505 -6.28125,2.6875 -2.08595,5e-6 -3.92189,-0.773432 -5.46875,-2.34375 -1.85157,-1.898428 -2.78126,-4.570301 -2.78125,-7.96875 -1e-5,-3.398419 0.7578,-6.414041 2.28125,-9.0625 1.92186,-3.30466 4.61717,-4.92966 8.0625,-4.90625 z m 37.84375,0 c 5.22654,0.02347 7.67184,4.554712 7.34375,13.625 -0.11722,3.351575 -1.19534,6.000009 -3.1875,7.96875 -1.75783,1.781256 -3.84377,2.687505 -6.28125,2.6875 -2.08595,5e-6 -3.89064,-0.773432 -5.4375,-2.34375 -1.85158,-1.898428 -2.78126,-4.570301 -2.78125,-7.96875 -1e-5,-3.398419 0.7578,-6.414041 2.28125,-9.0625 1.92186,-3.30466 4.61717,-4.92966 8.0625,-4.90625 z m 157.218749,0 c 5.22654,0.02347 7.67184,4.554712 7.34375,13.625 -0.11722,3.351575 -1.19534,6.000009 -3.1875,7.96875 -1.75783,1.781256 -3.84377,2.687505 -6.28125,2.6875 -2.08595,5e-6 -3.89064,-0.773432 -5.4375,-2.34375 -1.85158,-1.898428 -2.78126,-4.570301 -2.78125,-7.96875 -10e-6,-3.398419 0.7578,-6.414041 2.28125,-9.0625 1.92186,-3.30466 4.61717,-4.92966 8.0625,-4.90625 z m 149.625001,0 c 5.22654,0.02347 7.67185,4.554712 7.34375,13.625 -0.11721,3.351575 -1.19534,6.000009 -3.1875,7.96875 -1.75784,1.781256 -3.84377,2.687505 -6.28125,2.6875 -2.08595,5e-6 -3.89064,-0.773432 -5.4375,-2.34375 -1.85158,-1.898428 -2.78126,-4.570301 -2.78125,-7.96875 -1e-5,-3.398419 0.7578,-6.414041 2.28125,-9.0625 1.92186,-3.30466 4.61717,-4.92966 8.0625,-4.90625 z m 126.6875,0 c 5.22654,0.02347 7.67185,4.554712 7.34375,13.625 -0.11721,3.351575 -1.16409,6.000009 -3.15625,7.96875 -1.75784,1.781256 -3.84377,2.687505 -6.28125,2.6875 -2.08595,5e-6 -3.92189,-0.773432 -5.46875,-2.34375 -1.85157,-1.898428 -2.78126,-4.570301 -2.78125,-7.96875 -10e-6,-3.398419 0.7578,-6.414041 2.28125,-9.0625 1.92186,-3.30466 4.61717,-4.92966 8.0625,-4.90625 z m -163.15625,0.0625 c 2.10935,2.9e-5 3.68747,1.054716 4.71875,3.1875 1.05465,2.109399 1.56247,5.296896 1.5625,9.5625 -3e-5,3.023451 -0.66409,5.476573 -2,7.375 -1.5469,2.179694 -3.78909,3.281256 -6.71875,3.28125 -2.55471,6e-6 -5.10157,-0.484369 -7.65625,-1.46875 -1e-5,-5.859362 -0.16407,-11.460918 -0.46875,-16.78125 1.89843,-1.804661 3.47655,-3.039036 4.71875,-3.71875 1.73436,-0.960909 3.68748,-1.437471 5.84375,-1.4375 z m -204.406251,23.78125 c -1.21876,5e-6 -2.25001,0.445318 -3.09375,1.3125 -0.84376,0.843753 -1.25001,1.86719 -1.25,3.0625 -10e-6,1.21875 0.40624,2.249999 1.25,3.09375 0.84374,0.843747 1.87499,1.249997 3.09375,1.25 1.1953,-3e-6 2.21874,-0.406253 3.0625,-1.25 0.86718,-0.843751 1.31248,-1.875 1.3125,-3.09375 -2e-5,-1.19531 -0.44532,-2.218747 -1.3125,-3.0625 -0.84376,-0.867182 -1.8672,-1.312495 -3.0625,-1.3125 z m 301.781251,0 c -1.21876,5e-6 -2.25001,0.445318 -3.09375,1.3125 -0.84376,0.843753 -1.25001,1.86719 -1.25,3.0625 -1e-5,1.21875 0.40624,2.249999 1.25,3.09375 0.84374,0.843747 1.87499,1.249997 3.09375,1.25 1.1953,-3e-6 2.21874,-0.406253 3.0625,-1.25 0.86717,-0.843751 1.31249,-1.875 1.3125,-3.09375 -10e-6,-1.19531 -0.44533,-2.218747 -1.3125,-3.0625 -0.84376,-0.867182 -1.8672,-1.312495 -3.0625,-1.3125 z"></path>
  </g>
</svg>
