<?xml version="1.0"?>

<!-- Created with Inkscape (http://www.inkscape.org/) -->

<svg xmlns:dc="http://purl.org/dc/elements/1.1/" xmlns:cc="http://creativecommons.org/ns#" xmlns:rdf="http://www.w3.org/1999/02/22-rdf-syntax-ns#" xmlns:svg="http://www.w3.org/2000/svg" xmlns="http://www.w3.org/2000/svg" xmlns:sodipodi="http://sodipodi.sourceforge.net/DTD/sodipodi-0.dtd" xmlns:inkscape="http://www.inkscape.org/namespaces/inkscape" id="svg3039" version="1.1" inkscape:version="0.48.5 r10040" width="473" height="633" sodipodi:docname="Kawaii Iron Man.svg" viewBox="0 0 473 633">
  <metadata id="metadata3045">
    <rdf:rdf>
      <cc:work rdf:about="">
        <dc:format>image/svg+xml</dc:format>
        <dc:type rdf:resource="http://purl.org/dc/dcmitype/StillImage"></dc:type>
        <dc:title></dc:title>
      </cc:work>
    </rdf:rdf>
  </metadata>
  <defs id="defs3043"></defs>
  <sodipodi:namedview pagecolor="#ffffff" bordercolor="#666666" borderopacity="1" objecttolerance="10" gridtolerance="10" guidetolerance="10" inkscape:pageopacity="0" inkscape:pageshadow="2" inkscape:window-width="1280" inkscape:window-height="712" id="namedview3041" showgrid="false" inkscape:zoom="1.9974906" inkscape:cx="236.5" inkscape:cy="-118.73359" inkscape:window-x="0" inkscape:window-y="0" inkscape:window-maximized="1" inkscape:current-layer="svg3039"></sodipodi:namedview>
  <path style="fill:#000000" d="m 113.81606,632.42475 c -5.74757,-2.86687 -10.40136,-7.78098 -11.75118,-12.4085 -1.35052,-4.62991 -2.267078,-5.49181 -5.862708,-5.51307 -4.4981,-0.0266 -14.56019,-5.77531 -17.7858,-10.16145 -11.81218,-16.06207 -0.23686,-40.77992 21.05918,-44.96967 5.116588,-1.00662 5.908068,-1.47638 6.347138,-3.76711 0.27589,-1.43939 0.94445,-4.53604 1.48569,-6.88143 0.54763,-2.3731 0.98407,-20.13226 0.98407,-40.04292 l 0,-35.77856 -5.44759,-1.85169 c -9.302528,-3.16203 -15.681588,-10.14772 -10.931128,-11.97065 1.0145,-0.3893 2.47479,0.29881 3.90178,1.83856 2.27369,2.45334 8.483748,5.56961 11.099058,5.56961 1.05462,0 1.37788,-1.85966 1.37788,-7.92669 l 0,-7.9267 -5.48546,-2.51132 c -10.749428,-4.92126 -17.312288,-11.97509 -19.602038,-21.0685 -1.01806,-4.04311 -0.96083,-4.94703 0.39938,-6.30723 1.30875,-1.30876 1.86013,-1.36169 3.13793,-0.30121 0.85261,0.7076 1.55019,2.32714 1.55019,3.599 0,6.92633 9.1136,17.12533 17.749998,19.86395 2.24392,0.71155 2.25,0.68251 2.25,-10.74262 l 0,-11.4561 -3.42361,-0.64227 c -2.13975,-0.40142 -4.57726,-1.95621 -6.499998,-4.14609 -2.59856,-2.95959 -3.07639,-4.31824 -3.07639,-8.74723 0,-5.80446 4.52705,-16.62002 9.347788,-22.33275 1.92185,-2.27746 3.09018,-5.45173 4.23275,-11.5 6.38493,-33.79938 19.04618,-64.14609 35.04514,-83.99682 l 6.15963,-7.64258 -8.64265,-5.83347 c -12.37551,-8.35302 -32.12862,-28.34547 -40.4472,-40.93725 -16.407778,-24.83641 -23.884398,-49.17208 -23.946678,-77.94412 -0.038,-17.55369 1.7371,-29.09999 6.82036,-44.36363 C 101.5598,60.481224 150.15658,20.283591 208.7376,10.330948 c 16.44736,-2.7943312 52.02795,-2.2352702 66.05486,1.037889 22.90442,5.344713 44.77338,14.907584 61.99999,27.111387 11.91976,8.44428 30.51224,27.20735 38.15755,38.50765 10.9344,16.1618 18.20478,32.792286 22.45769,51.370426 2.8124,12.28548 3.54802,35.59871 1.53444,48.62957 -6.26963,40.57384 -28.40704,75.36557 -63.68095,100.08265 -4.3828,3.07111 -7.96873,5.77505 -7.96873,6.00876 0,0.23371 2.5875,3.51428 5.75,7.29016 15.07976,18.00452 27.46893,47.12476 34.37764,80.8032 1.75121,8.5368 2.92071,11.79315 5.55134,15.45719 11.20743,15.61011 11.70834,29.32647 1.23162,33.72483 l -3.89026,1.63321 -0.0102,8.78518 c -0.01,8.30985 0.0922,8.7304 1.88197,7.77255 4.49717,-2.40682 11.8038,-13.62987 13.66337,-20.98708 0.90067,-3.56344 1.65869,-4.64511 3.43983,-4.90854 2.15597,-0.31887 2.25556,-0.0804 1.7691,4.23543 -0.84749,7.51886 -5.36525,15.38207 -13.42834,23.37212 l -7.3361,7.26966 -6.2e-4,46.23034 -6.2e-4,46.23034 5.16892,-0.35786 c 6.96276,-0.48206 12.13706,1.23716 17.0547,5.66663 11.09101,9.99 10.78557,27.84505 -0.62346,36.4455 l -4.16845,3.1423 0.39545,6.21044 c 0.60027,9.42719 -1.84834,15.62444 -8.90667,22.54209 -10.93615,10.71819 -25.6049,12.98863 -36.20565,5.60393 -2.62923,-1.83157 -3.01112,-1.85115 -6.77024,-0.34704 -6.01311,2.40596 -15.42602,2.05671 -21.44336,-0.79563 -10.48166,-4.96853 -17.61687,-15.24432 -18.33406,-26.40381 -0.52367,-8.14847 1.5522,-13.619 7.32767,-19.31055 4.4103,-4.34621 4.42476,-4.38366 3.84313,-9.94841 -0.89015,-8.51655 1.55971,-15.57895 7.75595,-22.35863 2.79371,-3.05676 6.84074,-6.54764 8.99339,-7.7575 l 3.91395,-2.19974 0,-55.16087 c 0,-51.92162 -0.10609,-55.25688 -1.80652,-56.79575 -0.99359,-0.89919 -3.10133,-4.34393 -4.68387,-7.65499 -1.58254,-3.31106 -3.15697,-6.02011 -3.49873,-6.02011 -0.34177,0 -1.18347,5.2875 -1.87046,11.75 -0.68698,6.4625 -2.58658,22.47076 -4.22134,35.57391 -2.30753,18.49573 -2.74392,24.64607 -1.95125,27.5 2.34688,8.44974 0.44628,19.32224 -4.51463,25.82635 -5.94704,7.79697 -15.81906,11.57162 -30.1171,11.51555 -18.16638,-0.0713 -30.35655,-10.17461 -35.22807,-29.19743 -1.71096,-6.6811 -1.98271,-7.15213 -2.5779,-4.46838 -5.54696,25.01152 -20.42712,36.30542 -43.98103,33.38119 -18.16293,-2.25494 -28.21811,-12.5616 -27.6887,-28.38119 0.12884,-3.85 0.32546,-10.15 0.43693,-14 0.17809,-6.15088 -5.11224,-55.25052 -7.11129,-66 l -0.74386,-4 -4.22109,7.99856 -4.22108,7.99856 0,56.78199 0,56.78199 3.37372,2.96217 c 3.68648,3.23677 7.18741,10.37999 8.20444,16.74014 0.57616,3.60314 1.01401,4.1251 3.91719,4.66974 5.03315,0.94422 10.9778,5.79287 12.85529,10.48516 1.90831,4.76934 2.16243,13.68801 0.50622,17.76659 -0.62873,1.54831 -1.19123,6.71018 -1.25,11.47082 -0.1002,8.11607 -0.30051,8.8954 -3.21288,12.5 -4.18125,5.17507 -8.22687,7.36833 -14.8528,8.05219 -3.04765,0.31454 -5.54118,0.96899 -5.54118,1.45434 0,2.09246 -8.91796,10.33629 -13.5,12.4795 -6.74889,3.15674 -20.9284,3.31187 -26.9764,0.29513 z" id="path3107"></path>
  <path style="fill:#ffffff" d="M 121.28125 417.5 L 121.28125 432.5 L 121.28125 447.5 L 125.03125 447.5 C 129.66909 447.5189 131.59082 448.64313 131.125 451.09375 C 130.84557 452.56381 129.73812 453.04294 126.03125 453.28125 L 121.28125 453.59375 L 121.28125 460.53125 L 121.28125 467.5 L 124.28125 467.5 C 126.63993 467.5 127.28125 467.91789 127.28125 469.53125 C 127.28125 470.9122 126.30017 471.92121 124.28125 472.625 L 121.28125 473.6875 L 121.28125 506.0625 L 121.28125 538.4375 L 124.03125 537.34375 C 125.54375 536.74847 129.03125 535.97861 131.78125 535.625 L 136.78125 535 L 137.0625 476.25 L 137.3125 417.5 L 129.3125 417.5 L 121.28125 417.5 z M 341.28125 417.5 L 341.28125 474.84375 L 341.28125 532.21875 L 346.71875 532.28125 C 349.71137 532.30815 352.97387 532.79627 353.96875 533.375 C 354.96363 533.95373 356.11875 534.45203 356.53125 534.46875 C 356.94375 534.48545 357.28125 516.07765 357.28125 493.5625 L 357.28125 452.625 L 354.03125 452.3125 C 351.57502 452.07567 350.78125 451.51449 350.78125 450.03125 C 350.78125 448.67493 351.7852 447.76916 354.03125 447.125 L 357.28125 446.1875 L 357.28125 431.84375 L 357.28125 417.5 L 349.28125 417.5 L 341.28125 417.5 z M 344.96875 539.5 C 337.41896 539.68866 328.781 543.37276 323.75 549.96875 C 319.54776 555.47817 319.35325 561.09516 323.125 567.6875 C 324.81187 570.63584 325.88297 573.52186 325.5 574.125 C 325.11704 574.72814 322.43144 576.25778 319.53125 577.5 C 316.63106 578.74222 313.07737 581.12359 311.65625 582.8125 C 309.42452 585.46476 309.12582 586.61286 309.5 591.125 C 310.26775 600.38309 317.67546 607.46179 326.5625 607.46875 C 330.7428 607.47175 331.88636 607.00377 335.6875 603.5 C 338.07422 601.3 340.73181 599.5 341.625 599.5 C 342.51819 599.5 344.46061 601.29952 345.9375 603.53125 C 350.63114 610.62383 356.98377 612.27271 364.90625 608.4375 C 370.90371 605.53419 374.56975 600.35 375.09375 594.03125 C 375.48264 589.3418 375.21682 588.5875 371.90625 584.625 C 369.92322 582.25146 368.30408 580.01671 368.3125 579.65625 C 368.3564 577.77613 370.31514 576.48687 374.71875 575.5 C 384.87362 573.22425 389.3104 567.98212 387.3125 560.5625 C 385.08346 552.28447 377.00508 550.0353 369.375 555.5625 C 363.73385 559.64893 362.09239 559.15451 360.71875 552.96875 C 360.10694 550.21364 359.04748 546.91279 358.375 545.65625 C 356.0434 541.29962 350.84081 539.35326 344.96875 539.5 z M 133.40625 542.53125 C 128.53245 542.76497 123.82477 544.72331 121.71875 547.9375 C 118.50389 552.844 118.07048 562.38917 120.71875 569.5 C 121.026 570.325 120.87398 571.622 120.375 572.40625 C 119.59743 573.62838 118.44131 573.64465 112.375 572.5 C 106.63089 571.41616 104.48386 571.41728 101.03125 572.4375 C 94.962532 574.23068 90.36052 578.08618 88.0625 583.28125 C 82.48345 595.89361 92.680432 604.25693 110.1875 601.4375 C 119.41934 599.95075 121.86309 602.64219 116.75 608.71875 C 114.95864 610.84765 114.28743 612.69253 114.5 614.875 C 115.15513 621.60138 128.38424 624.55273 136.53125 619.78125 C 140.94748 617.1948 143.30434 613.52491 144.09375 608.03125 C 145.02345 601.56135 146.78148 600.59059 152.46875 603.34375 C 158.02006 606.03109 160.30838 606.03247 163.09375 603.4375 C 166.1527 600.58766 165.91435 596.93407 162.53125 594.78125 C 157.23496 591.41097 156.95847 589.23787 161.53125 586.875 C 166.01035 584.56054 167.21297 582.67377 167.25 577.90625 C 167.2993 571.56131 165.00427 570.05256 156.3125 570.78125 C 148.28979 571.45384 146.87144 570.44533 148.40625 565.09375 C 150.82962 556.64396 147.78995 546.9154 141.84375 544.09375 C 139.31481 542.89369 136.33053 542.39102 133.40625 542.53125 z " id="path3105"></path>
  <path style="fill:#ff0000" d="M 240.09375 23.1875 C 217.56644 23.2124 206.20359 24.878114 188.78125 30.6875 C 178.02839 34.272986 156.19749 44.84434 152.5 48.25 C 151.75358 48.9375 150.84197 49.49121 150.46875 49.5 C 150.09554 49.509 148.35202 50.74628 146.59375 52.25 C 144.83549 53.75371 141.23549 56.77534 138.59375 58.96875 C 131.91756 64.51195 124.28125 72.17843 124.28125 73.34375 C 124.28125 73.87886 123.89634 74.47292 123.40625 74.65625 C 120.72657 75.65868 105.28125 98.847604 105.28125 101.875 C 105.28125 102.66353 104.93244 103.47292 104.5 103.65625 C 102.23208 104.61774 96.31647 122.48255 93.28125 137.5 C 91.21673 147.71467 90.98035 163.27668 92.71875 174 C 94.98364 187.9709 97.475822 196.38994 102.6875 207.59375 C 104.12014 210.67357 105.28125 213.71107 105.28125 214.34375 C 105.28125 214.97643 105.63308 215.5 106.0625 215.5 C 106.49192 215.5 107.37719 216.85 108 218.5 C 108.6228 220.15 109.84597 221.5 110.71875 221.5 C 112.1492 221.5 112.28125 215.92766 112.28125 164.9375 C 112.28125 107.64253 112.43139 105.25823 115.9375 103.1875 C 116.68221 102.74767 117.28125 101.79229 117.28125 101.0625 C 117.28125 98.607614 141.43425 76.14617 149.875 70.75 C 159.43097 64.64086 176.11859 55.5 177.6875 55.5 C 178.21255 55.5 179.33945 54.827 180.21875 54.03125 C 181.09805 53.2355 186.01635 51.40291 191.125 49.9375 C 200.12315 47.35641 200.46182 47.32197 201.8125 49.125 C 202.57934 50.14866 203.46843 52.35 203.8125 54 C 204.41552 56.89185 208.39724 70.16983 214.3125 89 C 215.86748 93.95 217.4344 99.414694 217.78125 101.15625 C 218.12811 102.8978 219.12129 104.60031 220 104.9375 C 222.15041 105.76269 255.65978 105.50704 256.96875 104.65625 C 258.21826 103.8441 263.28125 88.82018 263.28125 85.9375 C 263.28125 84.81187 263.66126 83.46 264.125 82.9375 C 264.58875 82.415 265.78392 79.3 266.75 76 C 267.71608 72.7 269.58608 66.67507 270.90625 62.625 C 272.22642 58.57492 273.28125 54.31912 273.28125 53.1875 C 273.28125 50.69117 276.03572 47.5 278.15625 47.5 C 280.31156 47.5 296.71778 53.71483 297.125 54.6875 C 297.30834 55.1254 297.98334 55.50021 298.625 55.5 C 300.14405 55.49949 312.69067 61.77275 313.125 62.75 C 313.30834 63.1625 313.84927 63.5 314.34375 63.5 C 315.95646 63.5 328.47531 71.54049 335.71875 77.25 C 344.18711 83.92502 358.5021 98.349954 362.15625 103.875 L 364.78125 107.84375 L 364.84375 164.40625 C 364.88915 229.42708 364.66617 228.1118 372.5 211.75 C 378.54271 199.12915 382.6191 186.81422 381.90625 183.25 C 381.60337 181.7356 381.73245 180.5 382.21875 180.5 C 384.21663 180.5 385.57264 166.49814 385 151.8125 C 384.27178 133.1373 381.07806 120.39142 372.78125 103.03125 C 368.1614 93.364744 365.10051 88.23259 363.03125 86.6875 C 362.06875 85.96881 361.28125 84.87091 361.28125 84.25 C 361.28125 81.54223 344.61101 63.54274 335.78125 56.71875 C 332.48125 54.16838 329.55625 51.77325 329.28125 51.40625 C 328.44005 50.28362 315.32882 42.5 314.28125 42.5 C 313.74093 42.5 313.28125 42.07544 313.28125 41.5625 C 313.28125 41.04957 312.26875 40.34927 311.03125 40 C 309.79375 39.65073 306.03861 37.994981 302.6875 36.34375 C 299.3364 34.692518 295.0614 32.967152 293.1875 32.5 C 291.31361 32.032847 287.30625 30.781452 284.28125 29.71875 C 276.75278 27.07395 269.89316 25.5 265.96875 25.5 C 264.16164 25.5 262.16875 24.98125 261.53125 24.34375 C 260.72707 23.539571 254.17161 23.171942 240.09375 23.1875 z M 168.5 288.5 C 166.11538 288.5 156.52245 297.99184 150.71875 306.125 C 148.22702 309.61685 144.58885 315.86468 142.625 320 C 140.66115 324.13532 138.67279 327.76257 138.1875 328.0625 C 136.2953 329.23194 165.84069 359.5 168.875 359.5 C 171.51876 359.5 172.2451 361.69738 172.34375 370 C 172.38295 373.3 172.73834 377.75885 173.125 379.9375 C 173.7159 383.26689 174.29995 384.01657 176.8125 384.625 C 180.21361 385.44861 188.10156 388.01421 193.28125 389.96875 C 197.38397 391.51691 201.26173 391.79894 203.0625 390.65625 C 204.44433 389.77941 213.27013 376.47338 213.28125 375.25 C 213.29715 373.50136 220.71421 364.94723 222.65625 364.4375 C 223.82691 364.13024 231.75625 363.9463 240.28125 364.03125 L 255.78125 364.1875 L 260.0625 370.09375 C 262.41685 373.34106 264.81823 376.9 265.375 378 C 267.24693 381.6983 268.94975 384.45048 270.46875 386.21875 C 271.29882 387.18504 272.25241 388.7875 272.59375 389.75 C 273.27493 391.67079 278.07055 392.14507 281.0625 390.59375 C 282.01754 390.09857 285.25625 388.96202 288.28125 388.09375 C 291.30625 387.22547 296.12174 385.8048 298.96875 384.9375 L 304.15625 383.375 L 304.8125 377.15625 C 305.17922 373.73187 305.38417 369.60112 305.25 367.96875 C 304.67031 360.91634 305.11259 359.5 308.03125 359.5 C 310.10876 359.5 312.22592 357.97025 316.6875 353.25 C 319.93662 349.8125 326.35613 343.06635 330.9375 338.28125 L 339.28125 329.59375 L 335.125 321.28125 C 327.45072 305.96434 313.09969 288.5 308.21875 288.5 C 307.19363 288.5 304.64366 289.22376 302.5625 290.125 C 297.00141 292.5332 295.21307 293.21763 290.78125 294.625 C 288.58125 295.32363 286.36625 296.24978 285.84375 296.6875 C 285.32125 297.12522 283.87782 297.5 282.65625 297.5 C 281.43467 297.5 276.48092 298.47133 271.625 299.6875 C 263.81555 301.64337 260.12537 301.9123 239.78125 301.9375 C 210.68859 301.9735 200.50419 300.29428 179.0625 291.90625 C 174.26234 290.02842 169.51619 288.5 168.5 288.5 z M 209.1875 309.5 L 238.5 309.5 C 263.43097 309.5 268.17359 309.7082 270.0625 311.03125 C 271.28488 311.88744 272.28125 313.01398 272.28125 313.53125 C 272.28125 314.66046 280.87168 326.56737 282.71875 328 C 285.09702 329.84462 282.62906 333.11153 275.875 337.0625 C 272.25283 339.18138 269.28125 341.25177 269.28125 341.6875 C 269.28125 342.12322 268.6973 342.5 267.96875 342.5 C 267.24021 342.5 260.47559 346.325 252.9375 351 C 245.39942 355.675 238.67087 359.4843 238 359.46875 C 237.32913 359.45325 234.08125 357.62711 230.78125 355.40625 C 227.48125 353.1854 222.24743 350.03879 219.125 348.4375 C 216.00256 346.83621 213.18274 345.12293 212.875 344.625 C 212.56727 344.12707 208.27126 341.31065 203.3125 338.375 C 194.3273 333.05564 191.77532 330.12536 194.40625 328.0625 C 195.16115 327.47059 196.43831 325.7625 197.21875 324.25 C 197.99919 322.7375 198.99456 321.5 199.4375 321.5 C 199.88044 321.5 200.88765 320.2625 201.6875 318.75 C 202.48736 317.2375 204.49799 314.5375 206.15625 312.75 L 209.1875 309.5 z M 126.625 368.5 C 125.31138 368.503 124.70647 370.08 123.78125 376 C 122.09265 386.80442 120.77921 391.06286 118.65625 392.75 C 115.39647 395.34057 112.28125 400.81021 112.28125 403.96875 C 112.28125 406.49069 112.54121 406.69801 115.25 406.15625 C 116.87867 405.83052 118.48372 405.99927 118.8125 406.53125 C 119.14129 407.06324 124.03169 407.5 129.6875 407.5 L 139.96875 407.5 L 143.71875 399.5 C 145.78377 395.09953 147.87828 391.24449 148.375 390.9375 C 148.87171 390.63051 149.28125 389.68704 149.28125 388.84375 C 149.28125 388.00046 150.18125 386.14842 151.28125 384.75 C 155.44713 379.45394 154.25131 378.37542 137.28125 372.03125 C 132.05625 370.07791 127.27543 368.49835 126.625 368.5 z M 349.21875 369.5 C 347.6762 369.5 342.90999 370.85 338.625 372.5 C 334.34002 374.15 330.37505 375.48777 329.8125 375.5 C 329.24995 375.5122 327.65625 376.46534 326.28125 377.59375 C 324.44292 379.1024 324.15388 379.78515 325.15625 380.1875 C 326.22115 380.61495 326.25482 380.89829 325.28125 381.5 C 324.36925 382.06364 325.82867 385.69552 330.78125 395.03125 L 337.5625 407.78125 L 351.09375 407.125 C 358.53662 406.76805 364.72584 406.38726 364.84375 406.25 C 364.96166 406.11274 364.83401 404.52968 364.5625 402.75 C 364.28027 400.89717 362.32752 397.55046 360 394.90625 C 355.95054 390.30583 354.85568 387.1024 352.625 373.25 C 352.09385 369.95159 351.68565 369.5 349.21875 369.5 z M 178.9375 425.09375 L 177.96875 427.28125 C 176.65357 430.22868 179.28925 433.1191 184.71875 434.6875 C 186.96671 435.33686 189.87583 436.6916 191.1875 437.6875 C 192.49917 438.68339 193.98929 439.5 194.5 439.5 C 195.01072 439.5 200.21614 441.77847 206.09375 444.59375 C 221.48988 451.96823 222.48846 452.23298 236.25 452.375 C 243.06157 452.4453 248.85555 452.73056 249.125 453 C 249.96391 453.83892 250.88836 453.58274 257.4375 450.59375 C 260.93675 448.9967 267.60625 445.98828 272.28125 443.9375 C 288.80345 436.68973 295.28125 433.49255 295.28125 432.5625 C 295.28125 432.04511 296.29937 431.48825 297.53125 431.3125 C 299.82451 430.98532 301.13884 427.93871 299.625 426.46875 C 299.16092 426.01813 271.83185 425.52545 238.875 425.375 L 178.9375 425.09375 z M 294.125 461.46875 C 293.03566 461.45305 279.42762 466.81501 264.78125 473.03125 C 263.13125 473.73154 260.04958 475.00494 257.9375 475.875 C 254.14319 477.43804 254.12613 477.50629 254.78125 481.71875 C 256.02382 489.70847 261.50654 498.32518 266.78125 500.53125 C 270.40173 502.04546 283.97341 501.61742 288.40625 499.84375 C 291.83381 498.47232 292.91613 497.3116 294.75 493.15625 C 296.81687 488.47295 296.88138 487.81278 295.5625 483.5625 C 294.54168 480.27277 294.34737 476.55855 294.8125 470.25 C 295.32255 463.33226 295.1726 461.48387 294.125 461.46875 z M 182.75 461.5 C 181.32691 461.5 181.22853 462.35893 181.90625 468.25 C 182.33334 471.9625 182.62191 475.9 182.53125 477 C 182.44055 478.1 182.07605 482.02838 181.71875 485.75 C 181.13804 491.79848 181.29281 492.86749 183.375 495.90625 C 186.44914 500.39266 189.95702 501.45099 200.9375 501.15625 C 209.10011 500.93715 210.41963 500.61593 213.5625 498.21875 C 217.69789 495.06453 221.02399 488.71805 221.90625 482.28125 C 222.60537 477.18059 223.61159 478.13262 211.78125 473.0625 C 210.13125 472.35536 207.65625 471.28714 206.28125 470.6875 C 194.68886 465.63205 184.10059 461.5 182.75 461.5 z " id="path3097"></path>
  <path style="fill:#ffff00" d="M 280.03125 54.53125 C 279.97623 54.538988 279.92825 54.538739 279.90625 54.5625 C 279.69334 54.7925 276.7366 64.225 273.34375 75.5 C 269.95091 86.775 266.0465 99.487504 264.65625 103.75 L 262.125 111.5 L 238.6875 111.5 C 215.3494 111.5 215.23587 111.49 214.21875 109.25 C 213.6569 108.0125 209.68484 95.37515 205.375 81.1875 C 201.06515 66.99986 197.29347 55.16847 197 54.875 C 195.95623 53.83123 174.90114 62.9488 165.40625 68.5625 C 147.15146 79.35535 129.04772 94.743074 121.28125 106.03125 L 118.28125 110.34375 L 118.28125 173 L 118.28125 235.6875 L 130.03125 247.4375 C 142.12288 259.52204 154.01477 268.26958 167.71875 275.21875 C 175.02159 278.92196 188.0256 284.34274 189.78125 284.40625 C 190.33125 284.42615 191.85666 281.19399 193.15625 277.21875 C 194.45584 273.24352 196.10891 268.5375 196.84375 266.75 L 198.1875 263.5 L 238.625 263.5 L 279.0625 263.5 L 282.8125 274 C 284.87003 279.775 286.66505 284.5 286.78125 284.5 C 286.89745 284.5 289.43134 283.62802 292.4375 282.59375 C 313.30744 275.41343 338.29328 258.67468 352.1875 242.53125 L 358.28125 235.4375 L 358.28125 172.375 L 358.28125 109.34375 L 353.84375 103.5625 C 344.30987 91.172514 325.32367 75.88203 307.53125 66.25 C 298.90297 61.579036 281.73695 54.291379 280.03125 54.53125 z M 229.3125 316.1875 C 219.58811 316.16262 212.36623 316.29374 211.78125 316.5 C 211.00128 316.775 208.31275 319.88669 205.8125 323.4375 C 202.52968 328.09969 201.62311 330.10038 202.53125 330.625 C 203.22291 331.02457 211.43125 336.0901 220.78125 341.875 C 230.13125 347.6599 237.96929 352.41027 238.1875 352.4375 C 238.40571 352.4647 246.28071 347.76373 255.6875 342 C 265.09429 336.23628 273.41448 331.10284 274.1875 330.59375 C 275.31748 329.84957 274.67155 328.4016 270.90625 323.125 L 266.25 316.5625 L 239.71875 316.28125 C 236.07285 316.2425 232.55396 316.19579 229.3125 316.1875 z M 135.15625 336.5 C 134.2883 336.4873 128.278 355.26763 128 358.875 C 127.78399 361.67796 128.082 361.85114 141.78125 367.0625 C 149.48125 369.99167 156.23125 372.4137 156.78125 372.4375 C 157.33125 372.4613 158.61198 370.46337 159.625 368 L 161.46875 363.53125 L 148.625 350 C 141.56198 342.57061 135.51076 336.50518 135.15625 336.5 z M 342.28125 337.1875 C 341.0376 337.21294 330.29554 347.61929 318.96875 359.8125 C 315.43743 363.61394 315.44024 363.62969 316.96875 367.3125 C 318.91386 371.99905 319.24619 372.5 320.21875 372.5 C 320.65703 372.5 327.48948 370.04317 335.40625 367.0625 C 347.27993 362.59203 349.74884 361.32255 349.5 359.8125 C 348.94471 356.44281 343.1293 338.01019 342.375 337.21875 C 342.35492 337.19769 342.32137 337.18668 342.28125 337.1875 z M 252.78125 370.4375 L 238.3125 370.71875 L 223.84375 371 L 215.625 384 C 207.19897 397.30454 206.80521 398.55272 209.46875 403.75 C 210.29107 405.35457 212.72499 405.5 238.78125 405.5 L 267.1875 405.5 L 268.25 401.75 C 268.82278 399.6875 269.27819 397.62206 269.28125 397.1875 C 269.28425 396.75294 265.56875 390.57548 261.03125 383.4375 L 252.78125 370.4375 z M 303.28125 390.5625 C 301.8202 390.77474 296.1103 392.37046 289.4375 394.4375 L 275.5625 398.75 L 272.53125 408.625 L 269.53125 418.5 L 285.40625 418.5 C 297.40916 418.5 301.32412 418.1947 301.375 417.25 C 301.412 416.5625 302.00989 410.375 302.71875 403.5 C 303.42761 396.625 303.85286 390.7924 303.65625 390.5625 C 303.63167 390.53376 303.48997 390.53218 303.28125 390.5625 z M 173.71875 390.84375 C 173.65372 390.84652 173.61191 390.85684 173.59375 390.875 C 173.30325 391.1655 173.61487 397.48587 174.3125 404.9375 L 175.59375 418.5 L 191.4375 418.5 C 200.15491 418.5 207.29326 418.3875 207.28125 418.25 C 207.26925 418.1125 205.99243 413.71069 204.46875 408.5 L 201.71875 399.03125 L 187.90625 394.6875 C 180.7917 392.44319 174.69417 390.80223 173.71875 390.84375 z M 211.46875 411.5 L 212.5625 415 L 213.625 418.5 L 238.375 418.5 L 263.09375 418.5 L 264.1875 415.34375 C 264.79131 413.61167 265.28125 412.03667 265.28125 411.84375 C 265.28125 411.65082 253.17352 411.5 238.375 411.5 L 211.46875 411.5 z M 178.125 438.5625 L 178.84375 445.28125 C 179.22222 448.97631 179.91719 452.41437 180.40625 452.9375 C 181.42181 454.0238 221.1129 470.26712 223.09375 470.40625 C 224.04946 470.47335 224.31425 469.00216 224.09375 464.875 L 223.78125 459.25 L 213.28125 454.5 C 207.50625 451.88975 197.24816 447.2411 190.46875 444.15625 L 178.125 438.5625 z M 297.78125 439.90625 C 295.61396 440.30084 280.69675 446.72529 262.03125 455.34375 L 253.28125 459.40625 L 253.28125 464.9375 C 253.28125 467.98768 253.53933 470.5 253.84375 470.5 C 254.14818 470.5 264.02089 466.59872 275.78125 461.84375 L 297.15625 453.1875 L 297.84375 446.8125 C 298.2207 443.29254 298.33011 440.17386 298.0625 439.90625 C 298.03397 439.87772 297.92574 439.87994 297.78125 439.90625 z " id="path3093"></path>
  <path style="fill:#000000" d="m 263.79246,289.95172 c 11.87265,-1.894 16.71472,-3.31956 16.22884,-4.77796 -0.29422,-0.88313 -10.87669,-1.25252 -41.45076,-1.44689 -35.23585,-0.22401 -41.13507,-0.0541 -41.61584,1.19881 -0.64613,1.68379 -0.11988,1.88026 10.88757,4.0647 17.14239,3.40194 38.36533,3.76659 55.95019,0.96134 z" id="path3065"></path>
  <path style="fill:#000000" d="m 168.29246,238.48787 -26.5,-0.5 -0.28434,-11.41976 c -0.21073,-8.46341 0.0481,-11.63073 1,-12.23469 2.17051,-1.37721 59.18625,-1.04364 60.58434,0.35445 1.48582,1.48582 1.67192,22.3903 0.20738,23.29544 -1.5615,0.96506 -6.68625,1.03892 -35.00738,0.50456 z" id="path3061"></path>
  <path style="fill:#000000" d="m 270.51168,226.23787 0.28078,-12.25 29.87937,-0.26508 c 21.21232,-0.18819 30.27693,0.0649 31.24999,0.87245 0.99014,0.82174 1.37063,3.85681 1.37063,10.93329 0,5.38767 -0.27314,10.50757 -0.60699,11.37755 -0.53539,1.3952 -4.25482,1.58179 -31.53077,1.58179 l -30.92379,0 0.28078,-12.25 z" id="path3057"></path>
  <path style="fill:#000000" d="m 276.89518,275.89497 c -0.33619,-0.8761 -0.88449,-2.68159 -1.21846,-4.01221 l -0.6072,-2.4193 -36.53816,0.2622 -36.53816,0.26221 -1.29802,3.75 -1.29802,3.75 39.05464,0 c 35.31672,0 38.99613,-0.15246 38.44338,-1.5929 z" id="path3053"></path>
  <path style="fill:#00ffff" d="M 147.28125 219.5 L 147.28125 226.5 L 147.28125 233.53125 L 172.53125 233.25 L 197.78125 233 L 198.09375 226.25 L 198.375 219.5 L 172.84375 219.5 L 147.28125 219.5 z M 276.28125 219.5 L 276.28125 226.53125 L 276.28125 233.5625 L 301.53125 233.28125 L 326.78125 233 L 327.09375 226.25 L 327.375 219.5 L 301.84375 219.5 L 276.28125 219.5 z " id="path3059"></path>
  <g transform="matrix(0.55571038,0,0,0.55571038,246.84258,639.12165)" id="text3414" style="font-size:72px;font-style:normal;font-variant:normal;font-weight:normal;font-stretch:normal;text-align:end;line-height:125%;letter-spacing:0px;word-spacing:0px;text-anchor:end;fill:#f9f9f9;fill-opacity:1;stroke:none;font-family:Comic Sans MS;-inkscape-font-specification:Comic Sans MS">
    <path style="fill:#f9f9f9" inkscape:connector-curvature="0" id="path3419" d="m 20.198069,-2.654533 c -2.29688,5.66e-5 -3.43751,1.1563054 -3.4375,3.50000003 -10e-6,3.70317427 -0.07032,7.93754507 -0.1875,12.71874997 -0.11718,4.757848 -0.18751,9.015656 -0.1875,12.71875 -10e-6,2.835962 -0.1172,7.085958 -0.375,12.78125 -0.25782,5.671884 -0.37501,9.914067 -0.375,12.75 -10e-6,2.390624 1.14062,3.593749 3.4375,3.59375 2.06249,-10e-7 3.20312,-1.15625 3.4375,-3.5 0.18745,-3.585932 0.28124,-6.304679 0.28125,-8.15625 l 0.53125,-17.46875 c -2e-5,-3.703094 0.0703,-7.960902 0.1875,-12.71875 0.11718,-4.7812049 0.15624,-9.0155757 0.15625,-12.71874997 -10e-6,-2.34369463 -1.14845,-3.49994343 -3.46875,-3.50000003 z m -432.281249,0.15625 c -1.00782,5.64e-5 -1.84376,0.3438061 -2.5,1 -0.63282,0.65630483 -0.93751,1.50786643 -0.9375,2.5625 -10e-6,1.0547393 0.0313,2.289113 0.125,3.71875 0.11719,1.4297352 0.18749,2.664109 0.1875,3.71875 -10e-6,3.515667 -0.0703,7.593788 -0.1875,12.1875 -0.0937,4.570341 -0.12501,8.625025 -0.125,12.1875 -10e-6,1.945332 -0.15625,4.859391 -0.4375,8.75 -0.25781,3.867196 -0.37501,6.773443 -0.375,8.71875 -10e-6,3.187501 1.16405,4.781249 3.53125,4.78125 1.0078,-10e-7 1.83593,-0.312501 2.46875,-0.96875 0.65624,-0.656249 0.99999,-1.507811 1,-2.5625 -10e-6,-3.445307 0.11717,-6.992179 0.375,-10.625 2.85936,-1.945298 4.95311,-3.453108 6.3125,-4.53125 l 6.25,8.46875 c 2.46091,3.23438 4.28122,6.039066 5.5,8.40625 0.70309,1.359375 1.71091,2.031248 3,2.03125 0.9609,-2e-6 1.80465,-0.351564 2.53125,-1.03125 0.74996,-0.679688 1.12496,-1.468749 1.125,-2.40625 -4e-5,-1.476559 -1.7891,-4.664056 -5.375,-9.5625 l -7.6875,-10.4375 c 4.21872,-3.867162 7.7734,-7.499971 10.65625,-10.875 0.67965,-0.773404 1.03121,-1.546841 1.03125,-2.34375 -4e-5,-0.960901 -0.37504,-1.80465 -1.125,-2.53125 -0.7266,-0.726524 -1.55472,-1.093711 -2.46875,-1.09375 -0.89066,3.9e-5 -1.7266,0.390663 -2.5,1.1875 l -7.71875,7.96875 c -2.95314,2.906276 -6.03126,5.593774 -9.21875,8.03125 -0.0469,-4.0781 -0.0234,-8.171846 0.0937,-12.25 l 0.25,-11.3125 c -2e-5,-1.0780786 -0.0391,-2.3280774 -0.15625,-3.78125 -0.11719,-1.476512 -0.18751,-2.7655732 -0.1875,-3.84375 -10e-6,-1.05463357 -0.31251,-1.90619517 -0.96875,-2.5625 -0.63283,-0.6561939 -1.46095,-0.9999436 -2.46875,-1 z m 331.874999,0 c -1.00782,5.64e-5 -1.84376,0.3438061 -2.5,1 -0.63282,0.65630483 -0.93751,1.50786643 -0.9375,2.5625 -1e-5,1.0547393 0.0313,2.289113 0.125,3.71875 0.11719,1.4297352 0.18749,2.664109 0.1875,3.71875 -1e-5,3.515667 -0.07032,7.593788 -0.1875,12.1875 -0.09372,4.570341 -0.12501,8.625025 -0.125,12.1875 -1e-5,1.945332 -0.15625,4.859391 -0.4375,8.75 -0.25781,3.867196 -0.37501,6.773443 -0.375,8.71875 -1e-5,3.187501 1.16405,4.781249 3.53125,4.78125 1.0078,-10e-7 1.83593,-0.312501 2.46875,-0.96875 0.65624,-0.656249 0.99999,-1.507811 1,-2.5625 -1e-5,-3.445307 0.11717,-6.992179 0.375,-10.625 2.85936,-1.945298 4.95311,-3.453108 6.3125,-4.53125 l 6.25,8.46875 c 2.46091,3.23438 4.28122,6.039066 5.5,8.40625 0.70309,1.359375 1.71091,2.031248 3,2.03125 0.9609,-2e-6 1.80465,-0.351564 2.53125,-1.03125 0.74996,-0.679688 1.12496,-1.468749 1.125,-2.40625 -4e-5,-1.476559 -1.7891,-4.664056 -5.375,-9.5625 l -7.6875,-10.4375 c 4.21872,-3.867162 7.7734,-7.499971 10.65625,-10.875 0.67965,-0.773404 1.03121,-1.546841 1.03125,-2.34375 -4e-5,-0.960901 -0.37504,-1.80465 -1.125,-2.53125 -0.7266,-0.726524 -1.55472,-1.093711 -2.46875,-1.09375 -0.89066,3.9e-5 -1.7266,0.390663 -2.5,1.1875 l -7.71875,7.96875 c -2.95314,2.906276 -6.03126,5.593774 -9.21875,8.03125 -0.04688,-4.0781 -0.02345,-8.171846 0.09375,-12.25 l 0.25,-11.3125 c -2e-5,-1.0780786 -0.03908,-2.3280774 -0.15625,-3.78125 -0.11719,-1.476512 -0.18751,-2.7655732 -0.1875,-3.84375 -1e-5,-1.05463357 -0.31251,-1.90619517 -0.96875,-2.5625 -0.63283,-0.6561939 -1.46095,-0.9999436 -2.46875,-1 z m -203.281249,0.1875 c -5.17971,5.62e-5 -9.00002,1.49224233 -11.4375,4.46875 -2.01564,2.4609868 -3.32814,6.2969205 -3.9375,11.5 -0.28126,2.250038 -0.4297,4.031287 -0.5,5.34375 l -3.375,0.09375 c -4.10157,0.117222 -6.15626,1.335971 -6.15625,3.65625 -10e-6,2.273466 1.16406,3.406278 3.53125,3.40625 0.77343,2.8e-5 2.63281,-0.109347 5.5625,-0.34375 l 0,10.1875 0.0937,9.59375 c -10e-6,3.585942 -0.22657,6.921877 -0.71875,9.96875 -0.0469,0.281248 -0.0625,0.499998 -0.0625,0.6875 -10e-6,0.937497 0.3203,1.703121 1,2.3125 0.67968,0.632807 1.5078,0.968744 2.46875,0.96875 1.78123,-6e-6 2.88279,-0.937505 3.28125,-2.8125 0.51561,-2.484376 0.74998,-5.953122 0.75,-10.40625 -2e-5,-1.429679 -0.0313,-3.593739 -0.125,-6.5 -0.0937,-2.906233 -0.15627,-5.109356 -0.15625,-6.5625 l 0.28125,-8 c 4.33591,-0.351534 7.03904,-0.5156 8.09375,-0.46875 1.0781,0.02347 2.0156,-0.0156 2.8125,-0.15625 1.8281,-0.328095 2.74997,-1.351532 2.75,-3.0625 -3e-5,-2.343716 -1.86722,-3.531215 -5.59375,-3.53125 -1.1719,3.5e-5 -3.76564,0.156285 -7.75,0.4375 l 0.125,-2.1875 c 0.67967,-7.8749545 3.85935,-11.8124505 9.53125,-11.8125 3.04684,4.95e-5 4.56246,-1.1249494 4.5625,-3.375 -4e-5,-2.2733824 -1.67971,-3.4061938 -5.03125,-3.40625 z m 259.781249,0.84375 c -1.35939,5.54e-5 -2.44532,0.72661723 -3.21875,2.15625003 -0.58595,1.12505207 -0.87501,2.37505087 -0.875,3.78124997 -10e-5,1.7344228 -0.0079,5.0000445 -0.03125,9.78125 -0.0235,4.757848 -0.03126,7.976594 -0.03125,9.6875 -10e-6,2.484402 0.07031,6.218774 0.1875,11.1875 0.14064,4.945326 0.18749,8.671885 0.1875,11.15625 -10e-6,0.609382 -0.02345,1.492193 -0.09375,2.6875 -0.0469,1.195316 -0.06251,2.109378 -0.0625,2.71875 -10e-6,0.937501 0.29687,1.703126 0.90625,2.3125 0.6328,0.632812 1.39062,0.968749 2.28125,0.96875 1.07812,-10e-7 1.99999,-0.5625 2.75,-1.6875 2.92967,1.406249 6.19529,2.093749 9.78125,2.09375 5.1327903,-10e-7 9.3984003,-1.867187 12.84375029,-5.59375 3.44527001,-3.726554 5.18746001,-8.249988 5.18750001,-13.59375 -4e-5,-5.296852 -1.48441,-9.77341 -4.4375,-13.40625 -3.14066,-3.867152 -7.24222,-5.781213 -12.2812503,-5.78125 -1.61721,3.7e-5 -3.33596,0.328161 -5.1875,1.03125 -1.82814,0.679722 -3.77345,1.710971 -5.8125,3.09375 l 0.0625,-8.96875 0.125,-7.6875 c -10e-6,-0.3280752 0.03905,-0.8046373 0.15625,-1.4375 0.11718,-0.632761 0.18749,-1.109323 0.1875,-1.4375 -10e-6,-2.03900807 -0.8672,-3.0624446 -2.625,-3.0625 z m -235.031249,6.25 c -0.98439,4.91e-5 -1.82033,0.3437988 -2.5,1 -0.6797,0.63286 -1.00001,1.4219218 -1,2.40625 -10e-6,0.8906699 0.0312,2.359418 0.125,4.375 0.11719,1.992227 0.18748,3.585975 0.1875,4.78125 l -7.40625,-0.59375 c -0.98438,3.7e-5 -1.77344,0.320349 -2.40625,1 -0.63281,0.679723 -0.96875,1.531284 -0.96875,2.5625 0,2.039094 1.07031,3.21878 3.15625,3.5 3.49218,0.328154 6.0703,0.52347 7.78125,0.59375 l 0.71875,20.53125 c -10e-6,0.890633 -0.0547,2.218757 -0.125,4 -0.0704,1.781253 -0.0938,3.109377 -0.0937,4 -1e-5,0.914062 0.35154,1.703124 1.03125,2.3125 0.70311,0.609373 1.49999,0.906247 2.4375,0.90625 2.55467,-3e-6 3.81245,-2.585937 3.71875,-7.71875 l -0.0625,-1.78125 -0.0312,-1.53125 -0.65625,-20.78125 c 2.64841,-0.351532 4.24216,-0.53122 4.78125,-0.53125 0.49216,3e-5 1.06248,0.01566 1.71875,0.0625 0.67966,0.0469 1.25778,0.06253 1.75,0.0625 1.00778,2.9e-5 1.83591,-0.31247 2.46875,-0.96875 0.65622,-0.679656 0.99997,-1.531217 1,-2.5625 -3e-5,-1.734339 -0.7266,-2.843714 -2.15625,-3.3125 -0.75003,-0.234338 -2.34378,-0.343713 -4.78125,-0.34375 -0.4219,3.7e-5 -2.09377,0.187537 -5,0.5625 l 0.0312,-2.1875 0.0937,-2.03125 c -2e-5,-1.218708 -0.0547,-2.257769 -0.125,-3.125 -0.35158,-3.445265 -1.57814,-5.1874509 -3.6875,-5.1875 z m 491.625,0 c -0.98439,4.91e-5 -1.82033,0.3437988 -2.5,1 -0.6797,0.63286 -1.00001,1.4219218 -1,2.40625 -1e-5,0.8906699 0.0312,2.359418 0.125,4.375 0.11717,1.992227 0.18749,3.585975 0.1875,4.78125 l -7.40625,-0.59375 c -0.98438,3.7e-5 -1.77344,0.320349 -2.40625,1 -0.63282,0.679723 -0.96875,1.531284 -0.96875,2.5625 0,2.039094 1.07031,3.21878 3.15625,3.5 3.49218,0.328154 6.0703,0.52347 7.78125,0.59375 l 0.71875,20.53125 c -1e-5,0.890633 -0.0547,2.218757 -0.125,4 -0.0703,1.781253 -0.0938,3.109377 -0.0937,4 -10e-6,0.914062 0.35155,1.703124 1.03125,2.3125 0.70311,0.609373 1.49998,0.906247 2.4375,0.90625 2.55467,-3e-6 3.81248,-2.585937 3.71875,-7.71875 l -0.0625,-1.78125 -0.0312,-1.53125 -0.65625,-20.78125 c 2.64841,-0.351532 4.24216,-0.53122 4.78125,-0.53125 0.49216,3e-5 1.06247,0.01566 1.71875,0.0625 0.67966,0.0469 1.25778,0.06253 1.75,0.0625 1.00778,2.9e-5 1.83591,-0.31247 2.46875,-0.96875 0.65622,-0.679656 0.99997,-1.531217 1,-2.5625 -3e-5,-1.734339 -0.72659,-2.843714 -2.15625,-3.3125 -0.75003,-0.234338 -2.34378,-0.343713 -4.78125,-0.34375 -0.4219,3.7e-5 -2.09377,0.187537 -5,0.5625 l 0.0312,-2.1875 0.0937,-2.03125 c -2e-5,-1.218708 -0.0547,-2.257769 -0.125,-3.125 -0.35158,-3.445265 -1.57814,-5.1874509 -3.6875,-5.1875 z m -99.875,8.96875 c -1.12503,4e-5 -2.16409,0.203165 -3.125,0.625 -1.33596,0.609414 -3.56252,1.359413 -6.65625,2.25 -3.09376,0.867224 -5.34376,1.617223 -6.75,2.25 -4.61719,2.08597 -6.90626,5.601592 -6.90625,10.5 -1e-5,2.648459 0.9453,4.62502 2.84375,5.9375 1.31249,0.91408 3.5078,1.69533 6.625,2.375 l 3.65625,0.8125 c 4.4531,1.125014 6.68748,3.281262 6.6875,6.46875 -2e-5,1.47657 -1.10158,2.570319 -3.28125,3.25 -1.50002,0.468755 -3.21877,0.687505 -5.1875,0.6875 -1.07814,5e-6 -2.39845,-0.124995 -3.96875,-0.40625 -1.96876,-0.351557 -3.25001,-0.804682 -3.8125,-1.34375 -1.14845,-1.124993 -2.08595,-1.687492 -2.8125,-1.6875 -0.93751,8e-6 -1.78126,0.359383 -2.53125,1.0625 -0.72657,0.703132 -1.09375,1.500005 -1.09375,2.4375 0,2.343752 1.82812,4.1875 5.4375,5.5 2.78905,1.031248 5.71092,1.531247 8.78125,1.53125 4.19529,-3e-6 7.66404,-0.781252 10.40625,-2.375 3.30466,-1.945311 4.96872,-4.835932 4.96875,-8.65625 -3e-5,-4.664049 -1.92972,-8.226545 -5.75,-10.6875 -2.62502,-1.687479 -6.64064,-3.00779 -12.03125,-3.96875 -0.6797,-0.117164 -1.35938,-0.304664 -2.0625,-0.5625 0.0234,-2.203099 1.91405,-4.062471 5.6875,-5.5625 3.65623,-1.195281 6.36716,-2.023406 8.125,-2.46875 0.25779,1.921905 0.55466,3.203154 0.90625,3.8125 0.5156,0.867215 1.42966,1.312527 2.71875,1.3125 1.00779,2.7e-5 1.83591,-0.343723 2.46875,-1 0.65622,-0.656221 0.96871,-1.507783 0.96875,-2.5625 -4e-5,-0.679656 -0.13285,-1.687468 -0.4375,-3 -0.28129,-1.312466 -0.43753,-2.289026 -0.4375,-2.96875 -3e-5,-1.05465 -0.31254,-1.906211 -0.96875,-2.5625 -0.63285,-0.65621 -1.46097,-0.99996 -2.46875,-1 z m 218.28125,1.125 c -2.39063,3.9e-5 -3.59376,2.648474 -3.59375,7.96875 -10e-6,1.265655 0.10156,3.140653 0.3125,5.625 0.23437,2.484398 0.37499,4.351583 0.375,5.59375 -10e-6,1.406268 -0.14844,3.523454 -0.40625,6.3125 -0.25782,2.789074 -0.375,4.875009 -0.375,6.28125 0,6.023439 1.32031,9.031249 3.96875,9.03125 0.96093,-10e-7 1.79686,-0.312501 2.5,-0.96875 0.72655,-0.65625 1.09374,-1.476562 1.09375,-2.4375 -10e-6,-0.562498 -0.10939,-1.484372 -0.34375,-2.75 -0.21095,-1.26562 -0.34376,-2.234369 -0.34375,-2.9375 -10e-6,-1.312492 0.14843,-3.351552 0.40625,-6.09375 0.2578,-2.742171 0.37499,-4.812482 0.375,-6.21875 0.8203,-0.914042 1.43749,-1.656228 1.8125,-2.21875 l 4.125,-4.625 c 1.68748,-1.687472 3.35935,-2.90622 5,-3.65625 0.7031,1.382842 1.06248,3.296901 1.0625,5.78125 -2e-5,2.835959 0.28123,7.03908 0.84375,12.59375 0.58591,5.531256 0.87497,9.726565 0.875,12.5625 -3e-5,1.031248 0.30466,1.874998 0.9375,2.53125 0.65622,0.679684 1.49216,0.999995 2.5,1 1.00778,-5e-6 1.83591,-0.320316 2.46875,-1 0.65622,-0.656252 0.96872,-1.500002 0.96875,-2.53125 -3e-5,-2.414061 -0.21097,-5.48437 -0.65625,-9.1875 l -1.0625,-9.375 c -0.14065,-2.203105 -0.17972,-4.421853 -0.15625,-6.625 0.70309,-0.820287 2.15622,-1.890599 4.40625,-3.25 2.36715,-1.476533 4.00777,-2.21872 4.875,-2.21875 0.93746,3e-5 1.79683,1.046904 2.59375,3.15625 0.56246,1.5469 0.95308,3.132836 1.1875,4.75 l 1.1875,10.90625 c 0.42183,4.687506 0.85933,8.296877 1.28125,10.875 0.32808,2.03906 1.45308,3.062497 3.375,3.0625 1.00776,-3e-6 1.85932,-0.312502 2.5625,-0.96875 0.70307,-0.656251 1.00776,-1.46875 0.9375,-2.40625 -1.0313,-9.398427 -1.87505,-16.093733 -2.53125,-20.125 -0.67974,-5.742161 -1.1563,-9.062471 -1.4375,-9.90625 -1.42974,-4.218716 -4.08598,-6.312463 -8,-6.3125 -2.29691,3.7e-5 -4.34379,0.445349 -6.125,1.3125 -1.78128,0.843785 -3.30472,2.101596 -4.59375,3.8125 -1.38284,-3.656214 -3.91409,-5.468713 -7.59375,-5.46875 -1.66408,3.7e-5 -3.69533,1.023474 -6.0625,3.0625 -2.3672,2.015657 -4.15626,4.273468 -5.375,6.78125 l -0.0625,-3.6875 c -10e-6,-0.492156 0.0391,-1.218718 0.15625,-2.15625 0.11717,-0.937466 0.18749,-1.617153 0.1875,-2.0625 -10e-6,-0.937464 -0.38282,-1.828088 -1.15625,-2.625 -0.75001,-0.796836 -1.58595,-1.187461 -2.5,-1.1875 z m -202.84375,0.375 c -1.33594,3.9e-5 -2.35938,0.710975 -3.0625,2.09375 -0.60938,1.148472 -0.90626,2.554721 -0.90625,4.21875 l 0.53125,7.125 c 0.28124,4.218771 0.4297,8.898454 0.5,14.03125 l 0,14.03125 -0.0937,14.0625 c 0,1.031232 0.30468,1.874981 0.9375,2.53125 0.65625,0.65623 1.49218,0.968729 2.5,0.96875 1.0078,-2.1e-5 1.83593,-0.31252 2.46875,-0.96875 0.65624,-0.656269 0.99999,-1.500018 1,-2.53125 l 0.0625,-16.8125 c 2.81249,0.749999 5.37498,1.124999 7.71875,1.125 4.80466,-10e-7 8.64841,-1.718749 11.53125,-5.1875 2.71871,-3.281242 4.09372,-7.468738 4.09375,-12.53125 -3e-5,-5.554665 -0.89847,-9.999973 -2.65625,-13.375 -2.22659,-4.265591 -5.72659,-6.406214 -10.53125,-6.40625 -1.71096,3.6e-5 -3.50002,0.359411 -5.375,1.0625 -1.87501,0.679722 -3.82813,1.710971 -5.84375,3.09375 0.0469,-0.609342 0.1328,-1.304654 0.25,-2.03125 0.0703,-0.562466 0.0937,-0.945278 0.0937,-1.15625 -1e-5,-0.937464 -0.3047,-1.7109 -0.9375,-2.34375 -0.60939,-0.656212 -1.36719,-0.999961 -2.28125,-1 z m -343.375,0.25 c -0.98438,3.8e-5 -1.82032,0.343788 -2.5,1 -0.65625,0.63285 -0.96876,1.460973 -0.96875,2.46875 -1e-5,0.750034 0.0234,1.83597 0.0937,3.3125 0.0937,1.476592 0.125,2.593779 0.125,3.34375 0,2.414088 -0.14844,5.77346 -0.5,10.0625 -0.32813,4.265639 -0.5,7.617198 -0.5,10.03125 0,0.703133 0.0781,1.750006 0.21875,3.15625 0.16409,1.406253 0.21875,2.453128 0.21875,3.15625 0,1.054689 0.33593,1.906249 0.96875,2.5625 0.63281,0.656248 1.46874,0.999998 2.5,1 1.0078,-2e-6 1.80468,-0.343752 2.4375,-1 0.65624,-0.656251 0.99999,-1.507811 1,-2.5625 -1e-5,-0.703122 -0.0781,-1.749997 -0.21875,-3.15625 -0.14064,-1.406244 -0.21876,-2.453117 -0.21875,-3.15625 -1e-5,-1.101553 0.0781,-2.234365 0.21875,-3.40625 0.16405,-1.382799 0.2656,-2.554674 0.3125,-3.46875 1.21873,-4.335919 2.90623,-7.914039 5.0625,-10.75 2.3906,-3.117159 4.90623,-4.68747 7.53125,-4.6875 1.87498,3e-5 2.81248,2.531278 2.8125,7.59375 -2e-5,0.656272 -0.0313,1.773458 -0.125,3.34375 -0.0704,1.57033 -0.12503,2.687517 -0.125,3.34375 -3e-5,2.390639 0.17185,4.976574 0.5,7.71875 l 0.96875,7.6875 c 0.25779,2.203123 1.42184,3.312498 3.4375,3.3125 1.00778,-2e-6 1.81247,-0.343752 2.46875,-1 0.67966,-0.632813 1.03122,-1.468751 1.03125,-2.5 -3e-5,-1.921873 -0.26566,-4.398432 -0.78125,-7.46875 -0.49222,-3.093738 -0.71879,-5.617174 -0.71875,-7.5625 l 0.0312,-3.28125 0,-3.53125 c -0.0938,-4.312473 -0.64847,-7.578095 -1.65625,-9.78125 -1.4766,-3.304652 -4.09377,-4.968712 -7.84375,-4.96875 -4.14845,3.8e-5 -8.18752,2.625035 -12.125,7.875 l -0.0937,-4.09375 c -0.21095,-3.046838 -1.40626,-4.593712 -3.5625,-4.59375 z m 483.78125,1.03125 c -4.40627,3.7e-5 -8.35939,2.812534 -11.875,8.4375 -3.16407,5.062524 -4.75,9.960956 -4.75,14.71875 0,4.992196 1.68749,9.01563 5.0625,12.0625 3.21092,2.90625 7.22655,4.374998 12.03125,4.375 2.08591,-2e-6 4.71091,-0.718751 7.875,-2.125 3.60934,-1.593748 5.40622,-3.226559 5.40625,-4.9375 -3e-5,-0.890619 -0.30472,-1.695306 -0.9375,-2.375 -0.63285,-0.703117 -1.38284,-1.062492 -2.25,-1.0625 -0.30472,8e-6 -0.82816,0.187508 -1.53125,0.5625 l -4.0625,2.1875 c -1.59377,0.750005 -3.09377,1.125005 -4.5,1.125 -3.09377,5e-6 -5.62502,-0.835933 -7.59375,-2.5 -2.10939,-1.781242 -3.18751,-4.218739 -3.1875,-7.3125 -10e-6,-2.859358 1.08593,-6.242167 3.21875,-10.15625 2.34373,-4.265596 4.70311,-6.406219 7.09375,-6.40625 3.1406,3.1e-5 5.39841,0.554717 6.78125,1.65625 0.46872,0.398466 0.94528,0.828154 1.4375,1.25 0.5156,0.398465 1.13278,0.593777 1.8125,0.59375 0.86716,2.7e-5 1.57028,-0.351535 2.15625,-1.03125 0.5859,-0.703096 0.90622,-1.484345 0.90625,-2.375 -3e-5,-1.992155 -1.82034,-3.679653 -5.40625,-5.0625 -2.83596,-1.078088 -5.39065,-1.624963 -7.6875,-1.625 z m -645.375,0.3125 c -5.48439,3.7e-5 -10.46877,2.164098 -14.96875,6.5 -0.0234,-3.89059 -1.17188,-5.843714 -3.46875,-5.84375 -2.0625,3.6e-5 -3.09375,1.195348 -3.09375,3.5625 0,0.77347 -0.0547,1.921906 -0.125,3.46875 -0.0469,1.546903 -0.0625,2.726589 -0.0625,3.5 l 0,24.6875 c 0,2.367186 1.03124,3.531248 3.09375,3.53125 2.3203,-2e-6 3.49999,-1.164064 3.5,-3.53125 l -0.0937,-19.28125 c 1.3828,-3.070289 3.1328,-5.351537 5.21875,-6.875 2.22655,-1.640596 5.17186,-2.710908 8.875,-3.15625 l 0.125,2.96875 c 0.0703,1.195339 0.0937,2.023463 0.0937,2.46875 -3e-5,2.320336 1.0156,3.468772 3.03125,3.46875 2.17965,2.2e-5 3.33591,-1.47654 3.5,-4.40625 0.0234,-0.421849 0.0625,-1.218722 0.0625,-2.4375 -3e-5,-2.882781 -0.46878,-5.039029 -1.40625,-6.46875 -0.93753,-1.429651 -2.38284,-2.156213 -4.28125,-2.15625 z m 29.75,0.34375 c -5.41408,3.6e-5 -10.08595,2.031284 -14,6.0625 -3.89063,4.031276 -5.81251,8.890647 -5.8125,14.5625 -10e-6,6.00001 1.16406,10.437506 3.53125,13.34375 2.5078,3.09375 6.51561,4.656248 12,4.65625 1.14842,-2e-6 2.57029,-0.335939 4.28125,-0.96875 1.71091,-0.609375 3.68747,-1.53125 5.9375,-2.75 0.51559,0.750001 1.32028,1.632813 2.375,2.59375 1.17184,1.031248 1.9609,1.531248 2.40625,1.53125 0.86715,-2e-6 1.62497,-0.296877 2.28125,-0.90625 0.65622,-0.609376 0.99996,-1.375 1,-2.3125 l -0.21875,-0.625 c -0.37503,-0.82031 -0.64848,-1.421873 -0.8125,-1.84375 -1.24222,-3.093744 -1.9844,-5.156242 -2.21875,-6.1875 -0.4219,-1.687489 -0.61725,-3.999987 -0.59375,-6.90625 0.0234,-3.187481 0.10153,-5.804665 0.21875,-7.84375 0.1406,-2.039036 0.3281,-3.484348 0.5625,-4.375 0.46872,-0.492159 0.71872,-1.054658 0.71875,-1.6875 -3e-5,-1.851531 -1.59378,-3.437466 -4.78125,-4.75 -2.53128,-1.054652 -4.83596,-1.593714 -6.875,-1.59375 z m 118.03125,0.15625 c -1.21878,3.6e-5 -2.21878,0.656285 -2.96875,1.96875 -1.73441,3.023469 -3.53127,6.617215 -5.40625,10.8125 l -5.1875,12.125 c -4.57033,-10.218728 -8.85939,-18.09372 -12.84375,-23.625 -0.58594,-0.820277 -1.42188,-1.218713 -2.5,-1.21875 -0.91406,3.7e-5 -1.75,0.367223 -2.5,1.09375 -0.72656,0.726597 -1.09375,1.570346 -1.09375,2.53125 0,0.726594 0.33593,1.640656 0.96875,2.71875 l 1.5625,2.5625 12.59375,24.21875 c -5.06251,11.226554 -7.59375,17.999986 -7.59375,20.34375 0,0.96092 0.35937,1.773419 1.0625,2.40625 0.72656,0.65623 1.57811,0.96873 2.5625,0.96875 1.49999,-2e-5 2.54686,-0.843769 3.15625,-2.53125 l 2.3125,-6.8125 c 1.59373,-4.312507 3.90623,-9.664064 6.90625,-16.0625 l 12.15625,-26.3125 c 0.30465,-0.656218 0.46872,-1.234342 0.46875,-1.75 -3e-5,-0.937466 -0.37503,-1.757778 -1.125,-2.4375 -0.72659,-0.679651 -1.57034,-0.999964 -2.53125,-1 z m 63.53125,0.09375 c -5.85939,3.7e-5 -10.43751,2.398472 -13.71875,7.15625 -2.81251,4.031275 -4.14063,8.671895 -4,13.96875 0.16405,5.460947 1.80469,9.828131 4.96875,13.0625 2.83593,2.90625 6.24999,4.343748 10.1875,4.34375 4.94529,-2e-6 8.90622,-2.078125 11.90625,-6.25 2.6484,-3.67968 3.9922,-8.109363 4.0625,-13.3125 0.0703,-4.874978 -0.82816,-9.062473 -2.75,-12.53125 -2.41409,-4.289028 -5.96878,-6.437463 -10.65625,-6.4375 z m 37.8125,0 c -5.85939,3.7e-5 -10.43751,2.398472 -13.71875,7.15625 -2.8125,4.031275 -4.14063,8.671895 -4,13.96875 0.16406,5.460947 1.83593,9.828131 5,13.0625 2.83592,2.90625 6.21874,4.343748 10.15625,4.34375 4.94529,-2e-6 8.90623,-2.078125 11.906249,-6.25 2.64841,-3.67968 4.02345,-8.109363 4.09375,-13.3125 0.07028,-4.874978 -0.8594,-9.062473 -2.78125,-12.53125 -2.41409,-4.289028 -5.968769,-6.437463 -10.656249,-6.4375 z m 157.218749,0 c -5.85939,3.7e-5 -10.43751,2.398472 -13.71875,7.15625 -2.8125,4.031275 -4.14063,8.671895 -4,13.96875 0.16406,5.460947 1.83593,9.828131 5,13.0625 2.83592,2.90625 6.21874,4.343748 10.15625,4.34375 4.94529,-2e-6 8.90623,-2.078125 11.90625,-6.25 2.64841,-3.67968 4.02335,-8.109363 4.09375,-13.3125 0.07028,-4.874978 -0.8594,-9.062473 -2.78125,-12.53125 -2.41409,-4.289028 -5.96877,-6.437463 -10.65625,-6.4375 z m 149.625001,0 c -5.85939,3.7e-5 -10.43751,2.398472 -13.71875,7.15625 -2.8125,4.031275 -4.14063,8.671895 -4,13.96875 0.16406,5.460947 1.83593,9.828131 5,13.0625 2.83592,2.90625 6.21874,4.343748 10.15625,4.34375 4.94529,-2e-6 8.90622,-2.078125 11.90625,-6.25 2.6484,-3.67968 4.0234,-8.109363 4.09375,-13.3125 0.0703,-4.874978 -0.85941,-9.062473 -2.78125,-12.53125 -2.41409,-4.289028 -5.96878,-6.437463 -10.65625,-6.4375 z m 126.71875,0 c -5.85939,3.7e-5 -10.43751,2.398472 -13.71875,7.15625 -2.8125,4.031275 -4.14063,8.671895 -4,13.96875 0.16406,5.460947 1.80468,9.828131 4.96875,13.0625 2.83593,2.90625 6.24999,4.343748 10.1875,4.34375 4.94529,-2e-6 8.90622,-2.078125 11.90625,-6.25 2.6484,-3.67968 3.99215,-8.109363 4.0625,-13.3125 0.0703,-4.874978 -0.82816,-9.062473 -2.75,-12.53125 -2.41409,-4.289028 -5.96878,-6.437463 -10.65625,-6.4375 z m -236.250001,0.46875 c -6.46877,3.6e-5 -11.59376,1.984409 -15.34375,5.96875 -3.63282,3.867214 -5.4375,8.953146 -5.4375,15.28125 0,4.617197 1.32031,8.406256 3.96875,11.3125 2.67186,2.882813 6.1328,4.312499 10.375,4.3125 2.24998,-10e-7 4.23436,-0.578125 5.96875,-1.75 1.75779,-1.171873 3.2656,-2.937496 4.53125,-5.28125 -0.07034,5.929688 -0.65627,10.32812 -1.78125,13.1875 -1.71096,4.289051 -4.81252,6.46092 -9.3125,6.53125 -2.39064,0.04686 -4.59376,-0.140638 -6.5625,-0.5625 -1.96875,-0.39845 -3.375,-0.593763 -4.21875,-0.59375 -2.03906,-1.3e-5 -3.03125,1.039049 -3.03125,3.125 0,1.851545 1.45312,3.070294 4.40625,3.65625 2.10936,0.421855 4.72655,0.62498 7.84375,0.625 5.32029,-2e-5 9.40623,-1.070331 12.21875,-3.25 2.32028,-1.804702 4.00778,-4.609387 5.0625,-8.40625 0.82028,-2.976568 1.29684,-6.812502 1.437501,-11.5 l 0.8125,-11.8125 c 0.0937,-1.171859 0.3984,-3.390607 0.9375,-6.625 0.49215,-2.789038 0.74996,-4.99216 0.75,-6.65625 -4e-5,-2.718719 -1.27347,-4.11716 -3.781251,-4.1875 -0.77347,-1.124967 -1.89847,-1.968716 -3.375,-2.53125 -1.47659,-0.562465 -3.28909,-0.843714 -5.46875,-0.84375 z m -416.218749,5.5 c 0.37498,3e-5 0.85936,0.132843 1.46875,0.34375 0.63279,0.210967 1.38279,0.523467 2.25,0.96875 -0.25783,1.335965 -0.45315,2.617214 -0.59375,3.8125 -0.11718,1.171899 -0.18753,2.242211 -0.1875,3.25 -3e-5,3.093769 0.37497,7.757826 1.125,13.96875 -1.52347,1.335944 -2.68753,2.210943 -3.53125,2.65625 -1.57034,0.820317 -3.50002,1.250005 -5.75,1.25 -2.71877,5e-6 -4.73439,-0.98437 -6.09375,-2.90625 -1.35939,-1.921866 -2.06251,-4.781238 -2.0625,-8.625 -10e-6,-3.867168 1.31249,-7.296852 3.9375,-10.25 2.64842,-2.976534 5.80467,-4.46872 9.4375,-4.46875 z m 415.843749,0.125 c 1.0781,3e-5 2.14841,0.179718 3.15625,0.53125 1.00779,0.351592 1.96872,0.867216 2.90625,1.59375 -0.56253,5.414085 -1.10159,9.406268 -1.59375,11.9375 -0.28128,2.414076 -1.4219,4.851574 -3.4375,7.3125 -2.22658,2.671881 -4.50783,4.000005 -6.875,4 -2.57814,5e-6 -4.52345,-0.851557 -5.8125,-2.5625 -1.28907,-1.710928 -1.9375,-4.2578 -1.9375,-7.65625 0,-4.265605 1.10155,-7.796852 3.28125,-10.5625 2.43748,-3.070283 5.85936,-4.59372 10.3125,-4.59375 z m -100.15625,0.09375 c 3.2109103,3.1e-5 5.7890303,1.281279 7.6875003,3.8125 1.75778,2.343774 2.62496999,5.257833 2.62499999,8.75 -3e-5,3.562514 -1.10159999,6.546886 -3.28124999,8.9375 -2.17972,2.390631 -4.94534,3.562505 -8.3437503,3.5625 -1.80471,5e-6 -3.45314,-0.210932 -4.90625,-0.65625 -2.03908,-0.796869 -3.62502,-1.453118 -4.75,-1.96875 l -0.03125,-5.78125 -0.03125,-5.46875 0.0625,-6.09375 c 2.39061,-1.781224 4.07811,-2.92966 5.0625,-3.46875 2.0156,-1.078095 3.98435,-1.624969 5.90625,-1.625 z m -135.062499,0.96875 c 5.22654,0.02347 7.67185,4.554712 7.34375,13.625 -0.11721,3.351575 -1.16409,6.000009 -3.15625,7.96875 -1.75784,1.781256 -3.84377,2.687505 -6.28125,2.6875 -2.08595,5e-6 -3.92189,-0.773432 -5.46875,-2.34375 -1.85157,-1.898428 -2.78126,-4.570301 -2.78125,-7.96875 -1e-5,-3.398419 0.7578,-6.414041 2.28125,-9.0625 1.92186,-3.30466 4.61717,-4.92966 8.0625,-4.90625 z m 37.84375,0 c 5.22654,0.02347 7.67184,4.554712 7.34375,13.625 -0.11722,3.351575 -1.19534,6.000009 -3.1875,7.96875 -1.75783,1.781256 -3.84377,2.687505 -6.28125,2.6875 -2.08595,5e-6 -3.89064,-0.773432 -5.4375,-2.34375 -1.85158,-1.898428 -2.78126,-4.570301 -2.78125,-7.96875 -1e-5,-3.398419 0.7578,-6.414041 2.28125,-9.0625 1.92186,-3.30466 4.61717,-4.92966 8.0625,-4.90625 z m 157.218749,0 c 5.22654,0.02347 7.67184,4.554712 7.34375,13.625 -0.11722,3.351575 -1.19534,6.000009 -3.1875,7.96875 -1.75783,1.781256 -3.84377,2.687505 -6.28125,2.6875 -2.08595,5e-6 -3.89064,-0.773432 -5.4375,-2.34375 -1.85158,-1.898428 -2.78126,-4.570301 -2.78125,-7.96875 -10e-6,-3.398419 0.7578,-6.414041 2.28125,-9.0625 1.92186,-3.30466 4.61717,-4.92966 8.0625,-4.90625 z m 149.625001,0 c 5.22654,0.02347 7.67185,4.554712 7.34375,13.625 -0.11721,3.351575 -1.19534,6.000009 -3.1875,7.96875 -1.75784,1.781256 -3.84377,2.687505 -6.28125,2.6875 -2.08595,5e-6 -3.89064,-0.773432 -5.4375,-2.34375 -1.85158,-1.898428 -2.78126,-4.570301 -2.78125,-7.96875 -1e-5,-3.398419 0.7578,-6.414041 2.28125,-9.0625 1.92186,-3.30466 4.61717,-4.92966 8.0625,-4.90625 z m 126.6875,0 c 5.22654,0.02347 7.67185,4.554712 7.34375,13.625 -0.11721,3.351575 -1.16409,6.000009 -3.15625,7.96875 -1.75784,1.781256 -3.84377,2.687505 -6.28125,2.6875 -2.08595,5e-6 -3.92189,-0.773432 -5.46875,-2.34375 -1.85157,-1.898428 -2.78126,-4.570301 -2.78125,-7.96875 -10e-6,-3.398419 0.7578,-6.414041 2.28125,-9.0625 1.92186,-3.30466 4.61717,-4.92966 8.0625,-4.90625 z m -163.15625,0.0625 c 2.10935,2.9e-5 3.68747,1.054716 4.71875,3.1875 1.05465,2.109399 1.56247,5.296896 1.5625,9.5625 -3e-5,3.023451 -0.66409,5.476573 -2,7.375 -1.5469,2.179694 -3.78909,3.281256 -6.71875,3.28125 -2.55471,6e-6 -5.10157,-0.484369 -7.65625,-1.46875 -1e-5,-5.859362 -0.16407,-11.460918 -0.46875,-16.78125 1.89843,-1.804661 3.47655,-3.039036 4.71875,-3.71875 1.73436,-0.960909 3.68748,-1.437471 5.84375,-1.4375 z m -204.406251,23.78125 c -1.21876,5e-6 -2.25001,0.445318 -3.09375,1.3125 -0.84376,0.843753 -1.25001,1.86719 -1.25,3.0625 -10e-6,1.21875 0.40624,2.249999 1.25,3.09375 0.84374,0.843747 1.87499,1.249997 3.09375,1.25 1.1953,-3e-6 2.21874,-0.406253 3.0625,-1.25 0.86718,-0.843751 1.31248,-1.875 1.3125,-3.09375 -2e-5,-1.19531 -0.44532,-2.218747 -1.3125,-3.0625 -0.84376,-0.867182 -1.8672,-1.312495 -3.0625,-1.3125 z m 301.781251,0 c -1.21876,5e-6 -2.25001,0.445318 -3.09375,1.3125 -0.84376,0.843753 -1.25001,1.86719 -1.25,3.0625 -1e-5,1.21875 0.40624,2.249999 1.25,3.09375 0.84374,0.843747 1.87499,1.249997 3.09375,1.25 1.1953,-3e-6 2.21874,-0.406253 3.0625,-1.25 0.86717,-0.843751 1.31249,-1.875 1.3125,-3.09375 -10e-6,-1.19531 -0.44533,-2.218747 -1.3125,-3.0625 -0.84376,-0.867182 -1.8672,-1.312495 -3.0625,-1.3125 z"></path>
  </g>
</svg>
