<?xml version="1.0"?>

<!-- Generator: Adobe Illustrator 18.0.0, SVG Export Plug-In . SVG Version: 6.00 Build 0)  -->

<svg version="1.1" id="Layer_1" xmlns="http://www.w3.org/2000/svg" xmlns:xlink="http://www.w3.org/1999/xlink" x="0px" y="0px" viewBox="0 0 228.4 231.5" enable-background="new 0 0 228.4 231.5" xml:space="preserve" width="228.4" height="231.5">
<path fill="#FFFFFF" d="M53.5,81.1l-12.7,0.5l1.9,5.1l-4.4,1.6l7.1,19l4.4-1.6l4.1,11l32.1-12l-28.5-13L53.5,81.1z M28.1,88.9
	l9.3,24.9l6.5-2.4l-9.3-24.9L28.1,88.9z M208.5,107.6c-2.2,0-3.9,1.7-3.9,3.9v3.8c-0.5-0.2-1-0.3-1.6-0.3c-2.2,0-3.9,1.7-3.9,3.9
	v4.3h-50.4c-0.1-0.4-0.2-0.9-0.4-1.3c-1.4-3.8-5-6-8.8-5.8L132,96c2.4-2.3,3.4-5.9,2.3-9.3l29.2-10.9l17.9-23.6l-11.2-29.8L16,80.1
	l23.9-0.9l0.1,0.2l14.3-0.6l0.8,0L59.3,90l29.8,13.6L117.5,93c1.4,3.3,4.5,5.3,7.9,5.5l7.7,20.7c-2.1,2.4-2.8,5.8-1.6,9
	c1.7,4.6,6.9,7,11.6,5.3c1.7-0.7,3.2-1.8,4.2-3.2h51.9v4.3c0,2.2,1.7,3.9,3.9,3.9c0.6,0,1.1-0.1,1.6-0.3v3.8c0,2.2,1.7,3.9,3.9,3.9
	c2.2,0,3.9-1.7,3.9-3.9v-30.5C212.4,109.3,210.6,107.6,208.5,107.6z M67.3,83.4c-1.2,0.5-2.6-0.2-3-1.4c-0.5-1.2,0.2-2.6,1.4-3
	c1.2-0.5,2.6,0.2,3,1.4C69.1,81.6,68.5,83,67.3,83.4z"></path>
</svg>
